<svg width="789" height="410" viewBox="0 0 789 410" fill="none" xmlns="http://www.w3.org/2000/svg">
<rect width="789" height="410" fill="#2B2D2E"/>
<path d="M59.7186 116.628C59.7186 117.643 59.3514 118.44 58.617 119.018C57.8827 119.596 56.8696 119.886 55.578 119.886C54.2863 119.886 53.229 119.685 52.4061 119.284V117.518C52.9269 117.763 53.479 117.956 54.0623 118.096C54.6509 118.237 55.1978 118.307 55.703 118.307C56.4426 118.307 56.9868 118.167 57.3358 117.886C57.69 117.604 57.867 117.227 57.867 116.753C57.867 116.326 57.7056 115.964 57.3827 115.667C57.0597 115.37 56.3931 115.018 55.3827 114.612C54.341 114.19 53.6066 113.708 53.1795 113.167C52.7525 112.625 52.5389 111.974 52.5389 111.214C52.5389 110.261 52.8775 109.511 53.5545 108.964C54.2316 108.417 55.1405 108.143 56.2811 108.143C57.3748 108.143 58.4634 108.383 59.5467 108.862L58.953 110.386C57.9373 109.958 57.0311 109.745 56.2342 109.745C55.6301 109.745 55.1717 109.878 54.8592 110.143C54.5467 110.404 54.3905 110.75 54.3905 111.182C54.3905 111.479 54.453 111.735 54.578 111.948C54.703 112.156 54.9087 112.354 55.1952 112.542C55.4816 112.729 55.9972 112.977 56.742 113.284C57.5806 113.633 58.1952 113.958 58.5858 114.261C58.9764 114.563 59.2629 114.904 59.4452 115.284C59.6275 115.664 59.7186 116.112 59.7186 116.628ZM65.1561 118.417C65.9269 118.417 66.479 118.195 66.8123 117.753C67.1509 117.305 67.3202 116.63 67.3202 115.729V115.44C67.3202 114.373 67.1457 113.604 66.7967 113.136C66.453 112.667 65.8957 112.432 65.1248 112.432C64.4686 112.432 63.9686 112.693 63.6248 113.214C63.2811 113.735 63.1092 114.482 63.1092 115.456C63.1092 117.43 63.7915 118.417 65.1561 118.417ZM64.6327 119.886C63.565 119.886 62.729 119.495 62.1248 118.714C61.5207 117.927 61.2186 116.831 61.2186 115.425C61.2186 114.018 61.5259 112.919 62.1405 112.128C62.7551 111.331 63.6014 110.932 64.6795 110.932C65.2212 110.932 65.7056 111.034 66.1327 111.237C66.565 111.435 66.9504 111.763 67.2889 112.221H67.3514L67.5545 111.089H69.078V123.573H67.2342V119.909C67.2342 119.68 67.2446 119.438 67.2655 119.182C67.2863 118.927 67.3045 118.732 67.3202 118.596H67.2186C66.6769 119.456 65.815 119.886 64.6327 119.886ZM77.7967 119.729L77.5389 118.596H77.4452C77.19 118.998 76.8254 119.313 76.3514 119.542C75.8827 119.771 75.3462 119.886 74.742 119.886C73.6952 119.886 72.9139 119.625 72.3983 119.104C71.8827 118.583 71.6248 117.794 71.6248 116.737V111.089H73.4764V116.417C73.4764 117.078 73.6118 117.576 73.8827 117.909C74.1535 118.237 74.578 118.401 75.1561 118.401C75.9269 118.401 76.492 118.172 76.8514 117.714C77.216 117.25 77.3983 116.477 77.3983 115.393V111.089H79.242V119.729H77.7967ZM85.6327 119.886C84.2889 119.886 83.2368 119.495 82.4764 118.714C81.7212 117.927 81.3436 116.846 81.3436 115.471C81.3436 114.06 81.6952 112.951 82.3983 112.143C83.1014 111.336 84.0676 110.932 85.2967 110.932C86.4373 110.932 87.3384 111.279 87.9998 111.971C88.6613 112.664 88.992 113.617 88.992 114.831V115.823H83.2342C83.2603 116.662 83.4868 117.307 83.9139 117.761C84.341 118.208 84.9426 118.432 85.7186 118.432C86.229 118.432 86.703 118.386 87.1405 118.292C87.5832 118.193 88.0571 118.031 88.5623 117.807V119.3C88.1144 119.513 87.6613 119.664 87.203 119.753C86.7446 119.841 86.2212 119.886 85.6327 119.886ZM85.2967 112.323C84.7134 112.323 84.2446 112.508 83.8905 112.878C83.5415 113.248 83.3332 113.787 83.2655 114.495H87.1873C87.1769 113.781 87.0051 113.242 86.6717 112.878C86.3384 112.508 85.8801 112.323 85.2967 112.323ZM94.8514 119.886C93.5077 119.886 92.4556 119.495 91.6952 118.714C90.94 117.927 90.5623 116.846 90.5623 115.471C90.5623 114.06 90.9139 112.951 91.617 112.143C92.3202 111.336 93.2863 110.932 94.5155 110.932C95.6561 110.932 96.5571 111.279 97.2186 111.971C97.8801 112.664 98.2108 113.617 98.2108 114.831V115.823H92.453C92.479 116.662 92.7056 117.307 93.1327 117.761C93.5597 118.208 94.1613 118.432 94.9373 118.432C95.4478 118.432 95.9217 118.386 96.3592 118.292C96.8019 118.193 97.2759 118.031 97.7811 117.807V119.3C97.3332 119.513 96.8801 119.664 96.4217 119.753C95.9634 119.841 95.44 119.886 94.8514 119.886ZM94.5155 112.323C93.9321 112.323 93.4634 112.508 93.1092 112.878C92.7603 113.248 92.5519 113.787 92.4842 114.495H96.4061C96.3957 113.781 96.2238 113.242 95.8905 112.878C95.5571 112.508 95.0988 112.323 94.5155 112.323ZM103.515 118.401C103.963 118.401 104.411 118.331 104.859 118.19V119.573C104.656 119.662 104.393 119.735 104.07 119.792C103.752 119.854 103.422 119.886 103.078 119.886C101.338 119.886 100.469 118.969 100.469 117.136V112.479H99.2889V111.667L100.555 110.995L101.18 109.167H102.312V111.089H104.773V112.479H102.312V117.104C102.312 117.547 102.422 117.875 102.64 118.089C102.864 118.297 103.156 118.401 103.515 118.401ZM114.195 119.729H112.351V114.417C112.351 113.75 112.216 113.253 111.945 112.925C111.68 112.596 111.255 112.432 110.672 112.432C109.901 112.432 109.333 112.664 108.969 113.128C108.609 113.586 108.43 114.357 108.43 115.44V119.729H106.594V107.573H108.43V110.659C108.43 111.154 108.398 111.682 108.336 112.245H108.453C108.703 111.828 109.049 111.505 109.492 111.276C109.94 111.047 110.461 110.932 111.055 110.932C113.148 110.932 114.195 111.987 114.195 114.096V119.729Z" fill="#C0C0C1"/>
<path d="M615.898 120H614.57V108.578H620.938V109.758H615.898V113.938H620.633V115.117H615.898V120ZM623.859 111.438V116.992C623.859 117.69 624.018 118.211 624.336 118.555C624.654 118.898 625.151 119.07 625.828 119.07C626.724 119.07 627.378 118.826 627.789 118.336C628.206 117.846 628.414 117.047 628.414 115.938V111.438H629.711V120H628.641L628.453 118.852H628.383C628.117 119.273 627.747 119.596 627.273 119.82C626.805 120.044 626.268 120.156 625.664 120.156C624.622 120.156 623.841 119.909 623.32 119.414C622.805 118.919 622.547 118.128 622.547 117.039V111.438H623.859ZM638.328 120V114.461C638.328 113.763 638.169 113.242 637.852 112.898C637.534 112.555 637.036 112.383 636.359 112.383C635.464 112.383 634.807 112.625 634.391 113.109C633.974 113.594 633.766 114.393 633.766 115.508V120H632.469V111.438H633.523L633.734 112.609H633.797C634.062 112.188 634.435 111.862 634.914 111.633C635.393 111.398 635.927 111.281 636.516 111.281C637.547 111.281 638.323 111.531 638.844 112.031C639.365 112.526 639.625 113.32 639.625 114.414V120H638.328ZM648.125 118.852H648.055C647.456 119.721 646.56 120.156 645.367 120.156C644.247 120.156 643.375 119.773 642.75 119.008C642.13 118.242 641.82 117.154 641.82 115.742C641.82 114.331 642.133 113.234 642.758 112.453C643.383 111.672 644.253 111.281 645.367 111.281C646.529 111.281 647.419 111.703 648.039 112.547H648.141L648.086 111.93L648.055 111.328V107.844H649.352V120H648.297L648.125 118.852ZM645.531 119.07C646.417 119.07 647.057 118.831 647.453 118.352C647.854 117.867 648.055 117.089 648.055 116.016V115.742C648.055 114.529 647.852 113.664 647.445 113.148C647.044 112.628 646.401 112.367 645.516 112.367C644.755 112.367 644.172 112.664 643.766 113.258C643.365 113.846 643.164 114.68 643.164 115.758C643.164 116.852 643.365 117.677 643.766 118.234C644.167 118.792 644.755 119.07 645.531 119.07ZM653.406 120H652.109V111.438H653.406V120ZM652 109.117C652 108.82 652.073 108.604 652.219 108.469C652.365 108.328 652.547 108.258 652.766 108.258C652.974 108.258 653.154 108.328 653.305 108.469C653.456 108.609 653.531 108.826 653.531 109.117C653.531 109.409 653.456 109.628 653.305 109.773C653.154 109.914 652.974 109.984 652.766 109.984C652.547 109.984 652.365 109.914 652.219 109.773C652.073 109.628 652 109.409 652 109.117ZM662.016 120V114.461C662.016 113.763 661.857 113.242 661.539 112.898C661.221 112.555 660.724 112.383 660.047 112.383C659.151 112.383 658.495 112.625 658.078 113.109C657.661 113.594 657.453 114.393 657.453 115.508V120H656.156V111.438H657.211L657.422 112.609H657.484C657.75 112.188 658.122 111.862 658.602 111.633C659.081 111.398 659.615 111.281 660.203 111.281C661.234 111.281 662.01 111.531 662.531 112.031C663.052 112.526 663.312 113.32 663.312 114.414V120H662.016ZM672.992 111.438V112.258L671.406 112.445C671.552 112.628 671.682 112.867 671.797 113.164C671.911 113.456 671.969 113.786 671.969 114.156C671.969 114.995 671.682 115.664 671.109 116.164C670.536 116.664 669.75 116.914 668.75 116.914C668.495 116.914 668.255 116.893 668.031 116.852C667.479 117.143 667.203 117.51 667.203 117.953C667.203 118.188 667.299 118.362 667.492 118.477C667.685 118.586 668.016 118.641 668.484 118.641H670C670.927 118.641 671.638 118.836 672.133 119.227C672.633 119.617 672.883 120.185 672.883 120.93C672.883 121.878 672.503 122.599 671.742 123.094C670.982 123.594 669.872 123.844 668.414 123.844C667.294 123.844 666.43 123.635 665.82 123.219C665.216 122.802 664.914 122.214 664.914 121.453C664.914 120.932 665.081 120.482 665.414 120.102C665.747 119.721 666.216 119.464 666.82 119.328C666.602 119.229 666.417 119.076 666.266 118.867C666.12 118.659 666.047 118.417 666.047 118.141C666.047 117.828 666.13 117.555 666.297 117.32C666.464 117.086 666.727 116.859 667.086 116.641C666.643 116.458 666.281 116.148 666 115.711C665.724 115.273 665.586 114.773 665.586 114.211C665.586 113.273 665.867 112.552 666.43 112.047C666.992 111.536 667.789 111.281 668.82 111.281C669.268 111.281 669.672 111.333 670.031 111.438H672.992ZM666.164 121.438C666.164 121.901 666.359 122.253 666.75 122.492C667.141 122.732 667.701 122.852 668.43 122.852C669.518 122.852 670.323 122.688 670.844 122.359C671.37 122.036 671.633 121.596 671.633 121.039C671.633 120.576 671.49 120.253 671.203 120.07C670.917 119.893 670.378 119.805 669.586 119.805H668.031C667.443 119.805 666.984 119.945 666.656 120.227C666.328 120.508 666.164 120.911 666.164 121.438ZM666.867 114.18C666.867 114.779 667.036 115.232 667.375 115.539C667.714 115.846 668.185 116 668.789 116C670.055 116 670.688 115.385 670.688 114.156C670.688 112.87 670.047 112.227 668.766 112.227C668.156 112.227 667.688 112.391 667.359 112.719C667.031 113.047 666.867 113.534 666.867 114.18Z" fill="#C0C0C1"/>
<path d="M441.492 120H439.977L433.734 110.414H433.672C433.755 111.539 433.797 112.57 433.797 113.508V120H432.57V108.578H434.07L440.297 118.125H440.359C440.349 117.984 440.326 117.534 440.289 116.773C440.253 116.008 440.24 115.461 440.25 115.133V108.578H441.492V120ZM451.828 115.711C451.828 117.107 451.477 118.198 450.773 118.984C450.07 119.766 449.099 120.156 447.859 120.156C447.094 120.156 446.414 119.977 445.82 119.617C445.227 119.258 444.768 118.742 444.445 118.07C444.122 117.398 443.961 116.612 443.961 115.711C443.961 114.315 444.31 113.229 445.008 112.453C445.706 111.672 446.674 111.281 447.914 111.281C449.112 111.281 450.062 111.68 450.766 112.477C451.474 113.273 451.828 114.352 451.828 115.711ZM445.305 115.711C445.305 116.805 445.523 117.638 445.961 118.211C446.398 118.784 447.042 119.07 447.891 119.07C448.74 119.07 449.383 118.786 449.82 118.219C450.263 117.646 450.484 116.81 450.484 115.711C450.484 114.622 450.263 113.797 449.82 113.234C449.383 112.667 448.734 112.383 447.875 112.383C447.026 112.383 446.385 112.661 445.953 113.219C445.521 113.776 445.305 114.607 445.305 115.711Z" fill="#C0C0C1"/>
<path d="M435.477 182.289L438.523 176.578H439.961L436.148 183.57V188H434.805V183.633L431 176.578H432.453L435.477 182.289ZM444.961 188.156C443.695 188.156 442.695 187.771 441.961 187C441.232 186.229 440.867 185.159 440.867 183.789C440.867 182.409 441.206 181.312 441.883 180.5C442.565 179.688 443.479 179.281 444.625 179.281C445.698 179.281 446.547 179.635 447.172 180.344C447.797 181.047 448.109 181.977 448.109 183.133V183.953H442.211C442.237 184.958 442.49 185.721 442.969 186.242C443.453 186.763 444.133 187.023 445.008 187.023C445.93 187.023 446.841 186.831 447.742 186.445V187.602C447.284 187.799 446.849 187.94 446.438 188.023C446.031 188.112 445.539 188.156 444.961 188.156ZM444.609 180.367C443.922 180.367 443.372 180.591 442.961 181.039C442.555 181.487 442.315 182.107 442.242 182.898H446.719C446.719 182.081 446.536 181.456 446.172 181.023C445.807 180.586 445.286 180.367 444.609 180.367ZM455.852 185.664C455.852 186.461 455.555 187.076 454.961 187.508C454.367 187.94 453.534 188.156 452.461 188.156C451.326 188.156 450.44 187.977 449.805 187.617V186.414C450.216 186.622 450.656 186.786 451.125 186.906C451.599 187.026 452.055 187.086 452.492 187.086C453.169 187.086 453.69 186.979 454.055 186.766C454.419 186.547 454.602 186.216 454.602 185.773C454.602 185.44 454.456 185.156 454.164 184.922C453.878 184.682 453.315 184.401 452.477 184.078C451.68 183.781 451.112 183.523 450.773 183.305C450.44 183.081 450.19 182.828 450.023 182.547C449.862 182.266 449.781 181.93 449.781 181.539C449.781 180.841 450.065 180.292 450.633 179.891C451.201 179.484 451.979 179.281 452.969 179.281C453.891 179.281 454.792 179.469 455.672 179.844L455.211 180.898C454.352 180.544 453.573 180.367 452.875 180.367C452.26 180.367 451.797 180.464 451.484 180.656C451.172 180.849 451.016 181.115 451.016 181.453C451.016 181.682 451.073 181.878 451.188 182.039C451.307 182.201 451.497 182.354 451.758 182.5C452.018 182.646 452.518 182.857 453.258 183.133C454.273 183.503 454.958 183.875 455.312 184.25C455.672 184.625 455.852 185.096 455.852 185.664Z" fill="#C0C0C1"/>
<path d="M435.477 249.289L438.523 243.578H439.961L436.148 250.57V255H434.805V250.633L431 243.578H432.453L435.477 249.289ZM444.961 255.156C443.695 255.156 442.695 254.771 441.961 254C441.232 253.229 440.867 252.159 440.867 250.789C440.867 249.409 441.206 248.312 441.883 247.5C442.565 246.688 443.479 246.281 444.625 246.281C445.698 246.281 446.547 246.635 447.172 247.344C447.797 248.047 448.109 248.977 448.109 250.133V250.953H442.211C442.237 251.958 442.49 252.721 442.969 253.242C443.453 253.763 444.133 254.023 445.008 254.023C445.93 254.023 446.841 253.831 447.742 253.445V254.602C447.284 254.799 446.849 254.94 446.438 255.023C446.031 255.112 445.539 255.156 444.961 255.156ZM444.609 247.367C443.922 247.367 443.372 247.591 442.961 248.039C442.555 248.487 442.315 249.107 442.242 249.898H446.719C446.719 249.081 446.536 248.456 446.172 248.023C445.807 247.586 445.286 247.367 444.609 247.367ZM455.852 252.664C455.852 253.461 455.555 254.076 454.961 254.508C454.367 254.94 453.534 255.156 452.461 255.156C451.326 255.156 450.44 254.977 449.805 254.617V253.414C450.216 253.622 450.656 253.786 451.125 253.906C451.599 254.026 452.055 254.086 452.492 254.086C453.169 254.086 453.69 253.979 454.055 253.766C454.419 253.547 454.602 253.216 454.602 252.773C454.602 252.44 454.456 252.156 454.164 251.922C453.878 251.682 453.315 251.401 452.477 251.078C451.68 250.781 451.112 250.523 450.773 250.305C450.44 250.081 450.19 249.828 450.023 249.547C449.862 249.266 449.781 248.93 449.781 248.539C449.781 247.841 450.065 247.292 450.633 246.891C451.201 246.484 451.979 246.281 452.969 246.281C453.891 246.281 454.792 246.469 455.672 246.844L455.211 247.898C454.352 247.544 453.573 247.367 452.875 247.367C452.26 247.367 451.797 247.464 451.484 247.656C451.172 247.849 451.016 248.115 451.016 248.453C451.016 248.682 451.073 248.878 451.188 249.039C451.307 249.201 451.497 249.354 451.758 249.5C452.018 249.646 452.518 249.857 453.258 250.133C454.273 250.503 454.958 250.875 455.312 251.25C455.672 251.625 455.852 252.096 455.852 252.664Z" fill="#C0C0C1"/>
<path d="M441.492 321H439.977L433.734 311.414H433.672C433.755 312.539 433.797 313.57 433.797 314.508V321H432.57V309.578H434.07L440.297 319.125H440.359C440.349 318.984 440.326 318.534 440.289 317.773C440.253 317.008 440.24 316.461 440.25 316.133V309.578H441.492V321ZM451.828 316.711C451.828 318.107 451.477 319.198 450.773 319.984C450.07 320.766 449.099 321.156 447.859 321.156C447.094 321.156 446.414 320.977 445.82 320.617C445.227 320.258 444.768 319.742 444.445 319.07C444.122 318.398 443.961 317.612 443.961 316.711C443.961 315.315 444.31 314.229 445.008 313.453C445.706 312.672 446.674 312.281 447.914 312.281C449.112 312.281 450.062 312.68 450.766 313.477C451.474 314.273 451.828 315.352 451.828 316.711ZM445.305 316.711C445.305 317.805 445.523 318.638 445.961 319.211C446.398 319.784 447.042 320.07 447.891 320.07C448.74 320.07 449.383 319.786 449.82 319.219C450.263 318.646 450.484 317.81 450.484 316.711C450.484 315.622 450.263 314.797 449.82 314.234C449.383 313.667 448.734 313.383 447.875 313.383C447.026 313.383 446.385 313.661 445.953 314.219C445.521 314.776 445.305 315.607 445.305 316.711Z" fill="#C0C0C1"/>
<path d="M617.57 188V176.578H618.898V188H617.57ZM627.703 188V182.461C627.703 181.763 627.544 181.242 627.227 180.898C626.909 180.555 626.411 180.383 625.734 180.383C624.839 180.383 624.182 180.625 623.766 181.109C623.349 181.594 623.141 182.393 623.141 183.508V188H621.844V179.438H622.898L623.109 180.609H623.172C623.438 180.188 623.81 179.862 624.289 179.633C624.768 179.398 625.302 179.281 625.891 179.281C626.922 179.281 627.698 179.531 628.219 180.031C628.74 180.526 629 181.32 629 182.414V188H627.703ZM634.438 187.086C634.667 187.086 634.888 187.07 635.102 187.039C635.315 187.003 635.484 186.966 635.609 186.93V187.922C635.469 187.99 635.26 188.044 634.984 188.086C634.714 188.133 634.469 188.156 634.25 188.156C632.594 188.156 631.766 187.284 631.766 185.539V180.445H630.539V179.82L631.766 179.281L632.312 177.453H633.062V179.438H635.547V180.445H633.062V185.484C633.062 186 633.185 186.396 633.43 186.672C633.674 186.948 634.01 187.086 634.438 187.086ZM640.945 188.156C639.68 188.156 638.68 187.771 637.945 187C637.216 186.229 636.852 185.159 636.852 183.789C636.852 182.409 637.19 181.312 637.867 180.5C638.549 179.688 639.464 179.281 640.609 179.281C641.682 179.281 642.531 179.635 643.156 180.344C643.781 181.047 644.094 181.977 644.094 183.133V183.953H638.195C638.221 184.958 638.474 185.721 638.953 186.242C639.438 186.763 640.117 187.023 640.992 187.023C641.914 187.023 642.826 186.831 643.727 186.445V187.602C643.268 187.799 642.833 187.94 642.422 188.023C642.016 188.112 641.523 188.156 640.945 188.156ZM640.594 180.367C639.906 180.367 639.357 180.591 638.945 181.039C638.539 181.487 638.299 182.107 638.227 182.898H642.703C642.703 182.081 642.521 181.456 642.156 181.023C641.792 180.586 641.271 180.367 640.594 180.367ZM650.219 179.281C650.599 179.281 650.94 179.312 651.242 179.375L651.062 180.578C650.708 180.5 650.396 180.461 650.125 180.461C649.432 180.461 648.839 180.742 648.344 181.305C647.854 181.867 647.609 182.568 647.609 183.406V188H646.312V179.438H647.383L647.531 181.023H647.594C647.911 180.466 648.294 180.036 648.742 179.734C649.19 179.432 649.682 179.281 650.219 179.281ZM656.461 188.156C655.195 188.156 654.195 187.771 653.461 187C652.732 186.229 652.367 185.159 652.367 183.789C652.367 182.409 652.706 181.312 653.383 180.5C654.065 179.688 654.979 179.281 656.125 179.281C657.198 179.281 658.047 179.635 658.672 180.344C659.297 181.047 659.609 181.977 659.609 183.133V183.953H653.711C653.737 184.958 653.99 185.721 654.469 186.242C654.953 186.763 655.633 187.023 656.508 187.023C657.43 187.023 658.341 186.831 659.242 186.445V187.602C658.784 187.799 658.349 187.94 657.938 188.023C657.531 188.112 657.039 188.156 656.461 188.156ZM656.109 180.367C655.422 180.367 654.872 180.591 654.461 181.039C654.055 181.487 653.815 182.107 653.742 182.898H658.219C658.219 182.081 658.036 181.456 657.672 181.023C657.307 180.586 656.786 180.367 656.109 180.367ZM667.352 185.664C667.352 186.461 667.055 187.076 666.461 187.508C665.867 187.94 665.034 188.156 663.961 188.156C662.826 188.156 661.94 187.977 661.305 187.617V186.414C661.716 186.622 662.156 186.786 662.625 186.906C663.099 187.026 663.555 187.086 663.992 187.086C664.669 187.086 665.19 186.979 665.555 186.766C665.919 186.547 666.102 186.216 666.102 185.773C666.102 185.44 665.956 185.156 665.664 184.922C665.378 184.682 664.815 184.401 663.977 184.078C663.18 183.781 662.612 183.523 662.273 183.305C661.94 183.081 661.69 182.828 661.523 182.547C661.362 182.266 661.281 181.93 661.281 181.539C661.281 180.841 661.565 180.292 662.133 179.891C662.701 179.484 663.479 179.281 664.469 179.281C665.391 179.281 666.292 179.469 667.172 179.844L666.711 180.898C665.852 180.544 665.073 180.367 664.375 180.367C663.76 180.367 663.297 180.464 662.984 180.656C662.672 180.849 662.516 181.115 662.516 181.453C662.516 181.682 662.573 181.878 662.688 182.039C662.807 182.201 662.997 182.354 663.258 182.5C663.518 182.646 664.018 182.857 664.758 183.133C665.773 183.503 666.458 183.875 666.812 184.25C667.172 184.625 667.352 185.096 667.352 185.664ZM672.234 187.086C672.464 187.086 672.685 187.07 672.898 187.039C673.112 187.003 673.281 186.966 673.406 186.93V187.922C673.266 187.99 673.057 188.044 672.781 188.086C672.51 188.133 672.266 188.156 672.047 188.156C670.391 188.156 669.562 187.284 669.562 185.539V180.445H668.336V179.82L669.562 179.281L670.109 177.453H670.859V179.438H673.344V180.445H670.859V185.484C670.859 186 670.982 186.396 671.227 186.672C671.471 186.948 671.807 187.086 672.234 187.086Z" fill="#C0C0C1"/>
<path d="M618.898 255H617.57V243.578H623.938V244.758H618.898V248.938H623.633V250.117H618.898V255ZM626.859 246.438V251.992C626.859 252.69 627.018 253.211 627.336 253.555C627.654 253.898 628.151 254.07 628.828 254.07C629.724 254.07 630.378 253.826 630.789 253.336C631.206 252.846 631.414 252.047 631.414 250.938V246.438H632.711V255H631.641L631.453 253.852H631.383C631.117 254.273 630.747 254.596 630.273 254.82C629.805 255.044 629.268 255.156 628.664 255.156C627.622 255.156 626.841 254.909 626.32 254.414C625.805 253.919 625.547 253.128 625.547 252.039V246.438H626.859ZM641.328 255V249.461C641.328 248.763 641.169 248.242 640.852 247.898C640.534 247.555 640.036 247.383 639.359 247.383C638.464 247.383 637.807 247.625 637.391 248.109C636.974 248.594 636.766 249.393 636.766 250.508V255H635.469V246.438H636.523L636.734 247.609H636.797C637.062 247.188 637.435 246.862 637.914 246.633C638.393 246.398 638.927 246.281 639.516 246.281C640.547 246.281 641.323 246.531 641.844 247.031C642.365 247.526 642.625 248.32 642.625 249.414V255H641.328ZM651.125 253.852H651.055C650.456 254.721 649.56 255.156 648.367 255.156C647.247 255.156 646.375 254.773 645.75 254.008C645.13 253.242 644.82 252.154 644.82 250.742C644.82 249.331 645.133 248.234 645.758 247.453C646.383 246.672 647.253 246.281 648.367 246.281C649.529 246.281 650.419 246.703 651.039 247.547H651.141L651.086 246.93L651.055 246.328V242.844H652.352V255H651.297L651.125 253.852ZM648.531 254.07C649.417 254.07 650.057 253.831 650.453 253.352C650.854 252.867 651.055 252.089 651.055 251.016V250.742C651.055 249.529 650.852 248.664 650.445 248.148C650.044 247.628 649.401 247.367 648.516 247.367C647.755 247.367 647.172 247.664 646.766 248.258C646.365 248.846 646.164 249.68 646.164 250.758C646.164 251.852 646.365 252.677 646.766 253.234C647.167 253.792 647.755 254.07 648.531 254.07ZM656.406 255H655.109V246.438H656.406V255ZM655 244.117C655 243.82 655.073 243.604 655.219 243.469C655.365 243.328 655.547 243.258 655.766 243.258C655.974 243.258 656.154 243.328 656.305 243.469C656.456 243.609 656.531 243.826 656.531 244.117C656.531 244.409 656.456 244.628 656.305 244.773C656.154 244.914 655.974 244.984 655.766 244.984C655.547 244.984 655.365 244.914 655.219 244.773C655.073 244.628 655 244.409 655 244.117ZM665.016 255V249.461C665.016 248.763 664.857 248.242 664.539 247.898C664.221 247.555 663.724 247.383 663.047 247.383C662.151 247.383 661.495 247.625 661.078 248.109C660.661 248.594 660.453 249.393 660.453 250.508V255H659.156V246.438H660.211L660.422 247.609H660.484C660.75 247.188 661.122 246.862 661.602 246.633C662.081 246.398 662.615 246.281 663.203 246.281C664.234 246.281 665.01 246.531 665.531 247.031C666.052 247.526 666.312 248.32 666.312 249.414V255H665.016ZM675.992 246.438V247.258L674.406 247.445C674.552 247.628 674.682 247.867 674.797 248.164C674.911 248.456 674.969 248.786 674.969 249.156C674.969 249.995 674.682 250.664 674.109 251.164C673.536 251.664 672.75 251.914 671.75 251.914C671.495 251.914 671.255 251.893 671.031 251.852C670.479 252.143 670.203 252.51 670.203 252.953C670.203 253.188 670.299 253.362 670.492 253.477C670.685 253.586 671.016 253.641 671.484 253.641H673C673.927 253.641 674.638 253.836 675.133 254.227C675.633 254.617 675.883 255.185 675.883 255.93C675.883 256.878 675.503 257.599 674.742 258.094C673.982 258.594 672.872 258.844 671.414 258.844C670.294 258.844 669.43 258.635 668.82 258.219C668.216 257.802 667.914 257.214 667.914 256.453C667.914 255.932 668.081 255.482 668.414 255.102C668.747 254.721 669.216 254.464 669.82 254.328C669.602 254.229 669.417 254.076 669.266 253.867C669.12 253.659 669.047 253.417 669.047 253.141C669.047 252.828 669.13 252.555 669.297 252.32C669.464 252.086 669.727 251.859 670.086 251.641C669.643 251.458 669.281 251.148 669 250.711C668.724 250.273 668.586 249.773 668.586 249.211C668.586 248.273 668.867 247.552 669.43 247.047C669.992 246.536 670.789 246.281 671.82 246.281C672.268 246.281 672.672 246.333 673.031 246.438H675.992ZM669.164 256.438C669.164 256.901 669.359 257.253 669.75 257.492C670.141 257.732 670.701 257.852 671.43 257.852C672.518 257.852 673.323 257.688 673.844 257.359C674.37 257.036 674.633 256.596 674.633 256.039C674.633 255.576 674.49 255.253 674.203 255.07C673.917 254.893 673.378 254.805 672.586 254.805H671.031C670.443 254.805 669.984 254.945 669.656 255.227C669.328 255.508 669.164 255.911 669.164 256.438ZM669.867 249.18C669.867 249.779 670.036 250.232 670.375 250.539C670.714 250.846 671.185 251 671.789 251C673.055 251 673.688 250.385 673.688 249.156C673.688 247.87 673.047 247.227 671.766 247.227C671.156 247.227 670.688 247.391 670.359 247.719C670.031 248.047 669.867 248.534 669.867 249.18Z" fill="#C0C0C1"/>
<path d="M624.812 314.906C624.812 316.062 624.417 316.953 623.625 317.578C622.839 318.198 621.711 318.508 620.242 318.508H618.898V323H617.57V311.578H620.531C623.385 311.578 624.812 312.688 624.812 314.906ZM618.898 317.367H620.094C621.271 317.367 622.122 317.177 622.648 316.797C623.174 316.417 623.438 315.807 623.438 314.969C623.438 314.214 623.19 313.651 622.695 313.281C622.201 312.911 621.43 312.727 620.383 312.727H618.898V317.367ZM630.922 314.281C631.302 314.281 631.643 314.312 631.945 314.375L631.766 315.578C631.411 315.5 631.099 315.461 630.828 315.461C630.135 315.461 629.542 315.742 629.047 316.305C628.557 316.867 628.312 317.568 628.312 318.406V323H627.016V314.438H628.086L628.234 316.023H628.297C628.615 315.466 628.997 315.036 629.445 314.734C629.893 314.432 630.385 314.281 630.922 314.281ZM637.164 323.156C635.898 323.156 634.898 322.771 634.164 322C633.435 321.229 633.07 320.159 633.07 318.789C633.07 317.409 633.409 316.312 634.086 315.5C634.768 314.688 635.682 314.281 636.828 314.281C637.901 314.281 638.75 314.635 639.375 315.344C640 316.047 640.312 316.977 640.312 318.133V318.953H634.414C634.44 319.958 634.693 320.721 635.172 321.242C635.656 321.763 636.336 322.023 637.211 322.023C638.133 322.023 639.044 321.831 639.945 321.445V322.602C639.487 322.799 639.052 322.94 638.641 323.023C638.234 323.112 637.742 323.156 637.164 323.156ZM636.812 315.367C636.125 315.367 635.576 315.591 635.164 316.039C634.758 316.487 634.518 317.107 634.445 317.898H638.922C638.922 317.081 638.74 316.456 638.375 316.023C638.01 315.586 637.49 315.367 636.812 315.367ZM653.445 323V317.43C653.445 316.747 653.299 316.237 653.008 315.898C652.716 315.555 652.263 315.383 651.648 315.383C650.841 315.383 650.245 315.615 649.859 316.078C649.474 316.542 649.281 317.255 649.281 318.219V323H647.984V317.43C647.984 316.747 647.839 316.237 647.547 315.898C647.255 315.555 646.799 315.383 646.18 315.383C645.367 315.383 644.771 315.628 644.391 316.117C644.016 316.602 643.828 317.398 643.828 318.508V323H642.531V314.438H643.586L643.797 315.609H643.859C644.104 315.193 644.448 314.867 644.891 314.633C645.339 314.398 645.839 314.281 646.391 314.281C647.729 314.281 648.604 314.766 649.016 315.734H649.078C649.333 315.286 649.703 314.932 650.188 314.672C650.672 314.411 651.224 314.281 651.844 314.281C652.812 314.281 653.536 314.531 654.016 315.031C654.5 315.526 654.742 316.32 654.742 317.414V323H653.445ZM658.719 323H657.422V314.438H658.719V323ZM657.312 312.117C657.312 311.82 657.385 311.604 657.531 311.469C657.677 311.328 657.859 311.258 658.078 311.258C658.286 311.258 658.466 311.328 658.617 311.469C658.768 311.609 658.844 311.826 658.844 312.117C658.844 312.409 658.768 312.628 658.617 312.773C658.466 312.914 658.286 312.984 658.078 312.984C657.859 312.984 657.677 312.914 657.531 312.773C657.385 312.628 657.312 312.409 657.312 312.117ZM662.688 314.438V319.992C662.688 320.69 662.846 321.211 663.164 321.555C663.482 321.898 663.979 322.07 664.656 322.07C665.552 322.07 666.206 321.826 666.617 321.336C667.034 320.846 667.242 320.047 667.242 318.938V314.438H668.539V323H667.469L667.281 321.852H667.211C666.945 322.273 666.576 322.596 666.102 322.82C665.633 323.044 665.096 323.156 664.492 323.156C663.451 323.156 662.669 322.909 662.148 322.414C661.633 321.919 661.375 321.128 661.375 320.039V314.438H662.688ZM682.211 323V317.43C682.211 316.747 682.065 316.237 681.773 315.898C681.482 315.555 681.029 315.383 680.414 315.383C679.607 315.383 679.01 315.615 678.625 316.078C678.24 316.542 678.047 317.255 678.047 318.219V323H676.75V317.43C676.75 316.747 676.604 316.237 676.312 315.898C676.021 315.555 675.565 315.383 674.945 315.383C674.133 315.383 673.536 315.628 673.156 316.117C672.781 316.602 672.594 317.398 672.594 318.508V323H671.297V314.438H672.352L672.562 315.609H672.625C672.87 315.193 673.214 314.867 673.656 314.633C674.104 314.398 674.604 314.281 675.156 314.281C676.495 314.281 677.37 314.766 677.781 315.734H677.844C678.099 315.286 678.469 314.932 678.953 314.672C679.438 314.411 679.99 314.281 680.609 314.281C681.578 314.281 682.302 314.531 682.781 315.031C683.266 315.526 683.508 316.32 683.508 317.414V323H682.211Z" fill="#C0C0C1"/>
<path d="M223.508 64V52.5781H225.375V62.3984H230.211V64H223.508ZM239.648 59.6641C239.648 61.0755 239.286 62.1771 238.562 62.9688C237.839 63.7604 236.831 64.1562 235.539 64.1562C234.732 64.1562 234.018 63.974 233.398 63.6094C232.779 63.2448 232.302 62.7214 231.969 62.0391C231.635 61.3568 231.469 60.5651 231.469 59.6641C231.469 58.263 231.828 57.1693 232.547 56.3828C233.266 55.5964 234.279 55.2031 235.586 55.2031C236.836 55.2031 237.826 55.6068 238.555 56.4141C239.284 57.2161 239.648 58.2995 239.648 59.6641ZM233.359 59.6641C233.359 61.6589 234.096 62.6562 235.57 62.6562C237.029 62.6562 237.758 61.6589 237.758 59.6641C237.758 57.6901 237.023 56.7031 235.555 56.7031C234.784 56.7031 234.224 56.9583 233.875 57.4688C233.531 57.9792 233.359 58.7109 233.359 59.6641ZM249.367 64H247.523V58.6875C247.523 58.0208 247.388 57.5234 247.117 57.1953C246.852 56.8672 246.427 56.7031 245.844 56.7031C245.068 56.7031 244.5 56.9323 244.141 57.3906C243.781 57.849 243.602 58.6172 243.602 59.6953V64H241.766V55.3594H243.203L243.461 56.4922H243.555C243.815 56.0807 244.185 55.763 244.664 55.5391C245.143 55.3151 245.674 55.2031 246.258 55.2031C248.331 55.2031 249.367 56.2578 249.367 58.3672V64ZM259.219 55.3594V56.3672L257.742 56.6406C257.878 56.8229 257.99 57.0469 258.078 57.3125C258.167 57.5781 258.211 57.8594 258.211 58.1562C258.211 59.0469 257.904 59.7474 257.289 60.2578C256.674 60.7682 255.828 61.0234 254.75 61.0234C254.474 61.0234 254.224 61.0026 254 60.9609C253.604 61.2057 253.406 61.4922 253.406 61.8203C253.406 62.0182 253.497 62.1667 253.68 62.2656C253.867 62.3646 254.208 62.4141 254.703 62.4141H256.211C257.164 62.4141 257.888 62.6172 258.383 63.0234C258.878 63.4297 259.125 64.0156 259.125 64.7812C259.125 65.7604 258.721 66.5156 257.914 67.0469C257.107 67.5781 255.94 67.8438 254.414 67.8438C253.237 67.8438 252.339 67.6354 251.719 67.2188C251.099 66.8021 250.789 66.2083 250.789 65.4375C250.789 64.9062 250.956 64.4583 251.289 64.0938C251.628 63.7344 252.099 63.4844 252.703 63.3438C252.458 63.2396 252.255 63.0729 252.094 62.8438C251.938 62.6094 251.859 62.3646 251.859 62.1094C251.859 61.7865 251.951 61.513 252.133 61.2891C252.315 61.0651 252.586 60.8438 252.945 60.625C252.497 60.4323 252.133 60.1198 251.852 59.6875C251.576 59.25 251.438 58.7396 251.438 58.1562C251.438 57.2188 251.732 56.4922 252.32 55.9766C252.914 55.4609 253.758 55.2031 254.852 55.2031C255.096 55.2031 255.352 55.2214 255.617 55.2578C255.888 55.2891 256.091 55.3229 256.227 55.3594H259.219ZM252.43 65.3438C252.43 65.7396 252.607 66.0443 252.961 66.2578C253.32 66.4714 253.823 66.5781 254.469 66.5781C255.469 66.5781 256.214 66.4349 256.703 66.1484C257.193 65.862 257.438 65.4818 257.438 65.0078C257.438 64.6328 257.302 64.3646 257.031 64.2031C256.766 64.0469 256.268 63.9688 255.539 63.9688H254.148C253.622 63.9688 253.203 64.0911 252.891 64.3359C252.583 64.5859 252.43 64.9219 252.43 65.3438ZM253.219 58.1562C253.219 58.6979 253.357 59.1146 253.633 59.4062C253.914 59.6979 254.315 59.8438 254.836 59.8438C255.898 59.8438 256.43 59.276 256.43 58.1406C256.43 57.5781 256.297 57.1458 256.031 56.8438C255.771 56.5365 255.372 56.3828 254.836 56.3828C254.305 56.3828 253.901 56.5339 253.625 56.8359C253.354 57.138 253.219 57.5781 253.219 58.1562ZM272.742 56.0312C272.742 57.224 272.352 58.138 271.57 58.7734C270.789 59.4089 269.677 59.7266 268.234 59.7266H267.047V64H265.18V52.5781H268.469C269.896 52.5781 270.964 52.8698 271.672 53.4531C272.385 54.0365 272.742 54.8958 272.742 56.0312ZM267.047 58.1562H268.039C268.997 58.1562 269.701 57.9896 270.148 57.6562C270.596 57.3229 270.82 56.8021 270.82 56.0938C270.82 55.4375 270.62 54.9479 270.219 54.625C269.818 54.3021 269.193 54.1406 268.344 54.1406H267.047V58.1562ZM280.234 64L279.867 62.7969H279.805C279.388 63.3229 278.969 63.6823 278.547 63.875C278.125 64.0625 277.583 64.1562 276.922 64.1562C276.073 64.1562 275.409 63.9271 274.93 63.4688C274.456 63.0104 274.219 62.362 274.219 61.5234C274.219 60.6328 274.549 59.9609 275.211 59.5078C275.872 59.0547 276.88 58.8073 278.234 58.7656L279.727 58.7188V58.2578C279.727 57.7057 279.596 57.2943 279.336 57.0234C279.081 56.7474 278.682 56.6094 278.141 56.6094C277.698 56.6094 277.273 56.6745 276.867 56.8047C276.461 56.9349 276.07 57.0885 275.695 57.2656L275.102 55.9531C275.57 55.7083 276.083 55.5234 276.641 55.3984C277.198 55.2682 277.724 55.2031 278.219 55.2031C279.318 55.2031 280.146 55.4427 280.703 55.9219C281.266 56.401 281.547 57.1536 281.547 58.1797V64H280.234ZM277.5 62.75C278.167 62.75 278.701 62.5651 279.102 62.1953C279.508 61.8203 279.711 61.2969 279.711 60.625V59.875L278.602 59.9219C277.737 59.9531 277.107 60.099 276.711 60.3594C276.32 60.6146 276.125 61.0078 276.125 61.5391C276.125 61.9245 276.24 62.224 276.469 62.4375C276.698 62.6458 277.042 62.75 277.5 62.75ZM282.797 55.3594H284.797L286.555 60.2578C286.82 60.9557 286.997 61.612 287.086 62.2266H287.148C287.195 61.9401 287.281 61.5938 287.406 61.1875C287.531 60.776 288.193 58.8333 289.391 55.3594H291.375L287.68 65.1484C287.008 66.9453 285.888 67.8438 284.32 67.8438C283.914 67.8438 283.518 67.7995 283.133 67.7109V66.2578C283.409 66.3203 283.724 66.3516 284.078 66.3516C284.964 66.3516 285.586 65.8385 285.945 64.8125L286.266 64L282.797 55.3594ZM300.352 59.6641C300.352 61.0755 299.99 62.1771 299.266 62.9688C298.542 63.7604 297.534 64.1562 296.242 64.1562C295.435 64.1562 294.721 63.974 294.102 63.6094C293.482 63.2448 293.005 62.7214 292.672 62.0391C292.339 61.3568 292.172 60.5651 292.172 59.6641C292.172 58.263 292.531 57.1693 293.25 56.3828C293.969 55.5964 294.982 55.2031 296.289 55.2031C297.539 55.2031 298.529 55.6068 299.258 56.4141C299.987 57.2161 300.352 58.2995 300.352 59.6641ZM294.062 59.6641C294.062 61.6589 294.799 62.6562 296.273 62.6562C297.732 62.6562 298.461 61.6589 298.461 59.6641C298.461 57.6901 297.727 56.7031 296.258 56.7031C295.487 56.7031 294.927 56.9583 294.578 57.4688C294.234 57.9792 294.062 58.7109 294.062 59.6641ZM306.805 56.75H304.695V64H302.852V56.75H301.43V55.8906L302.852 55.3281V54.7656C302.852 53.7448 303.091 52.9896 303.57 52.5C304.049 52.0052 304.781 51.7578 305.766 51.7578C306.411 51.7578 307.047 51.8646 307.672 52.0781L307.188 53.4688C306.734 53.3229 306.302 53.25 305.891 53.25C305.474 53.25 305.169 53.3802 304.977 53.6406C304.789 53.8958 304.695 54.2812 304.695 54.7969V55.3594H306.805V56.75ZM312.609 56.75H310.5V64H308.656V56.75H307.234V55.8906L308.656 55.3281V54.7656C308.656 53.7448 308.896 52.9896 309.375 52.5C309.854 52.0052 310.586 51.7578 311.57 51.7578C312.216 51.7578 312.852 51.8646 313.477 52.0781L312.992 53.4688C312.539 53.3229 312.107 53.25 311.695 53.25C311.279 53.25 310.974 53.3802 310.781 53.6406C310.594 53.8958 310.5 54.2812 310.5 54.7969V55.3594H312.609V56.75Z" fill="#C0C0C1"/>
<path d="M400.508 64V52.5781H402.375V62.3984H407.211V64H400.508ZM410.82 64H408.984V55.3594H410.82V64ZM408.875 53.0703C408.875 52.7422 408.964 52.4896 409.141 52.3125C409.323 52.1354 409.581 52.0469 409.914 52.0469C410.237 52.0469 410.487 52.1354 410.664 52.3125C410.846 52.4896 410.938 52.7422 410.938 53.0703C410.938 53.3828 410.846 53.6302 410.664 53.8125C410.487 53.9896 410.237 54.0781 409.914 54.0781C409.581 54.0781 409.323 53.9896 409.141 53.8125C408.964 53.6302 408.875 53.3828 408.875 53.0703ZM416.875 62.6875C417.646 62.6875 418.198 62.4661 418.531 62.0234C418.87 61.5755 419.039 60.901 419.039 60V59.7109C419.039 58.6432 418.865 57.875 418.516 57.4062C418.172 56.9375 417.615 56.7031 416.844 56.7031C416.188 56.7031 415.688 56.9635 415.344 57.4844C415 58.0052 414.828 58.7526 414.828 59.7266C414.828 61.7005 415.51 62.6875 416.875 62.6875ZM416.352 64.1562C415.284 64.1562 414.448 63.7656 413.844 62.9844C413.24 62.1979 412.938 61.1016 412.938 59.6953C412.938 58.2891 413.245 57.1901 413.859 56.3984C414.474 55.6016 415.32 55.2031 416.398 55.2031C416.94 55.2031 417.424 55.3047 417.852 55.5078C418.284 55.7057 418.669 56.0339 419.008 56.4922H419.07L419.273 55.3594H420.797V67.8438H418.953V64.1797C418.953 63.9505 418.964 63.7083 418.984 63.4531C419.005 63.1979 419.023 63.0026 419.039 62.8672H418.938C418.396 63.7266 417.534 64.1562 416.352 64.1562ZM429.516 64L429.258 62.8672H429.164C428.909 63.2682 428.544 63.5833 428.07 63.8125C427.602 64.0417 427.065 64.1562 426.461 64.1562C425.414 64.1562 424.633 63.8958 424.117 63.375C423.602 62.8542 423.344 62.0651 423.344 61.0078V55.3594H425.195V60.6875C425.195 61.349 425.331 61.8464 425.602 62.1797C425.872 62.5078 426.297 62.6719 426.875 62.6719C427.646 62.6719 428.211 62.4427 428.57 61.9844C428.935 61.5208 429.117 60.7474 429.117 59.6641V55.3594H430.961V64H429.516ZM435.414 64H433.578V55.3594H435.414V64ZM433.469 53.0703C433.469 52.7422 433.557 52.4896 433.734 52.3125C433.917 52.1354 434.174 52.0469 434.508 52.0469C434.831 52.0469 435.081 52.1354 435.258 52.3125C435.44 52.4896 435.531 52.7422 435.531 53.0703C435.531 53.3828 435.44 53.6302 435.258 53.8125C435.081 53.9896 434.831 54.0781 434.508 54.0781C434.174 54.0781 433.917 53.9896 433.734 53.8125C433.557 53.6302 433.469 53.3828 433.469 53.0703ZM440.961 64.1562C439.883 64.1562 439.042 63.7656 438.438 62.9844C437.833 62.2031 437.531 61.1068 437.531 59.6953C437.531 58.2786 437.836 57.1771 438.445 56.3906C439.06 55.599 439.909 55.2031 440.992 55.2031C442.128 55.2031 442.992 55.6224 443.586 56.4609H443.68C443.591 55.8411 443.547 55.3516 443.547 54.9922V51.8438H445.391V64H443.953L443.633 62.8672H443.547C442.958 63.7266 442.096 64.1562 440.961 64.1562ZM441.453 62.6719C442.208 62.6719 442.758 62.4609 443.102 62.0391C443.445 61.612 443.622 60.9219 443.633 59.9688V59.7109C443.633 58.6224 443.456 57.849 443.102 57.3906C442.747 56.9323 442.193 56.7031 441.438 56.7031C440.792 56.7031 440.294 56.9661 439.945 57.4922C439.596 58.013 439.422 58.7578 439.422 59.7266C439.422 60.6849 439.591 61.4167 439.93 61.9219C440.268 62.4219 440.776 62.6719 441.453 62.6719ZM453.422 64L453.055 62.7969H452.992C452.576 63.3229 452.156 63.6823 451.734 63.875C451.312 64.0625 450.771 64.1562 450.109 64.1562C449.26 64.1562 448.596 63.9271 448.117 63.4688C447.643 63.0104 447.406 62.362 447.406 61.5234C447.406 60.6328 447.737 59.9609 448.398 59.5078C449.06 59.0547 450.068 58.8073 451.422 58.7656L452.914 58.7188V58.2578C452.914 57.7057 452.784 57.2943 452.523 57.0234C452.268 56.7474 451.87 56.6094 451.328 56.6094C450.885 56.6094 450.461 56.6745 450.055 56.8047C449.648 56.9349 449.258 57.0885 448.883 57.2656L448.289 55.9531C448.758 55.7083 449.271 55.5234 449.828 55.3984C450.385 55.2682 450.911 55.2031 451.406 55.2031C452.505 55.2031 453.333 55.4427 453.891 55.9219C454.453 56.401 454.734 57.1536 454.734 58.1797V64H453.422ZM450.688 62.75C451.354 62.75 451.888 62.5651 452.289 62.1953C452.695 61.8203 452.898 61.2969 452.898 60.625V59.875L451.789 59.9219C450.924 59.9531 450.294 60.099 449.898 60.3594C449.508 60.6146 449.312 61.0078 449.312 61.5391C449.312 61.9245 449.427 62.224 449.656 62.4375C449.885 62.6458 450.229 62.75 450.688 62.75ZM460.516 62.6719C460.964 62.6719 461.411 62.6016 461.859 62.4609V63.8438C461.656 63.9323 461.393 64.0052 461.07 64.0625C460.753 64.125 460.422 64.1562 460.078 64.1562C458.339 64.1562 457.469 63.2396 457.469 61.4062V56.75H456.289V55.9375L457.555 55.2656L458.18 53.4375H459.312V55.3594H461.773V56.75H459.312V61.375C459.312 61.8177 459.422 62.1458 459.641 62.3594C459.865 62.5677 460.156 62.6719 460.516 62.6719ZM465.43 64H463.594V55.3594H465.43V64ZM463.484 53.0703C463.484 52.7422 463.573 52.4896 463.75 52.3125C463.932 52.1354 464.19 52.0469 464.523 52.0469C464.846 52.0469 465.096 52.1354 465.273 52.3125C465.456 52.4896 465.547 52.7422 465.547 53.0703C465.547 53.3828 465.456 53.6302 465.273 53.8125C465.096 53.9896 464.846 54.0781 464.523 54.0781C464.19 54.0781 463.932 53.9896 463.75 53.8125C463.573 53.6302 463.484 53.3828 463.484 53.0703ZM475.727 59.6641C475.727 61.0755 475.365 62.1771 474.641 62.9688C473.917 63.7604 472.909 64.1562 471.617 64.1562C470.81 64.1562 470.096 63.974 469.477 63.6094C468.857 63.2448 468.38 62.7214 468.047 62.0391C467.714 61.3568 467.547 60.5651 467.547 59.6641C467.547 58.263 467.906 57.1693 468.625 56.3828C469.344 55.5964 470.357 55.2031 471.664 55.2031C472.914 55.2031 473.904 55.6068 474.633 56.4141C475.362 57.2161 475.727 58.2995 475.727 59.6641ZM469.438 59.6641C469.438 61.6589 470.174 62.6562 471.648 62.6562C473.107 62.6562 473.836 61.6589 473.836 59.6641C473.836 57.6901 473.102 56.7031 471.633 56.7031C470.862 56.7031 470.302 56.9583 469.953 57.4688C469.609 57.9792 469.438 58.7109 469.438 59.6641ZM485.445 64H483.602V58.6875C483.602 58.0208 483.466 57.5234 483.195 57.1953C482.93 56.8672 482.505 56.7031 481.922 56.7031C481.146 56.7031 480.578 56.9323 480.219 57.3906C479.859 57.849 479.68 58.6172 479.68 59.6953V64H477.844V55.3594H479.281L479.539 56.4922H479.633C479.893 56.0807 480.263 55.763 480.742 55.5391C481.221 55.3151 481.753 55.2031 482.336 55.2031C484.409 55.2031 485.445 56.2578 485.445 58.3672V64ZM493.805 61.5391C493.805 62.3828 493.497 63.0312 492.883 63.4844C492.268 63.9323 491.388 64.1562 490.242 64.1562C489.091 64.1562 488.167 63.9818 487.469 63.6328V62.0469C488.484 62.5156 489.43 62.75 490.305 62.75C491.435 62.75 492 62.4089 492 61.7266C492 61.5078 491.938 61.3255 491.812 61.1797C491.688 61.0339 491.482 60.8828 491.195 60.7266C490.909 60.5703 490.51 60.3932 490 60.1953C489.005 59.8099 488.331 59.4245 487.977 59.0391C487.628 58.6536 487.453 58.1536 487.453 57.5391C487.453 56.7995 487.75 56.2266 488.344 55.8203C488.943 55.4089 489.755 55.2031 490.781 55.2031C491.797 55.2031 492.758 55.4089 493.664 55.8203L493.07 57.2031C492.138 56.8177 491.354 56.625 490.719 56.625C489.75 56.625 489.266 56.901 489.266 57.4531C489.266 57.724 489.391 57.9531 489.641 58.1406C489.896 58.3281 490.448 58.5859 491.297 58.9141C492.01 59.1901 492.529 59.4427 492.852 59.6719C493.174 59.901 493.414 60.1667 493.57 60.4688C493.727 60.7656 493.805 61.1224 493.805 61.5391Z" fill="#C0C0C1"/>
<path d="M625.07 56.0312C625.07 57.224 624.68 58.138 623.898 58.7734C623.117 59.4089 622.005 59.7266 620.562 59.7266H619.375V64H617.508V52.5781H620.797C622.224 52.5781 623.292 52.8698 624 53.4531C624.714 54.0365 625.07 54.8958 625.07 56.0312ZM619.375 58.1562H620.367C621.326 58.1562 622.029 57.9896 622.477 57.6562C622.924 57.3229 623.148 56.8021 623.148 56.0938C623.148 55.4375 622.948 54.9479 622.547 54.625C622.146 54.3021 621.521 54.1406 620.672 54.1406H619.375V58.1562ZM632.562 64L632.195 62.7969H632.133C631.716 63.3229 631.297 63.6823 630.875 63.875C630.453 64.0625 629.911 64.1562 629.25 64.1562C628.401 64.1562 627.737 63.9271 627.258 63.4688C626.784 63.0104 626.547 62.362 626.547 61.5234C626.547 60.6328 626.878 59.9609 627.539 59.5078C628.201 59.0547 629.208 58.8073 630.562 58.7656L632.055 58.7188V58.2578C632.055 57.7057 631.924 57.2943 631.664 57.0234C631.409 56.7474 631.01 56.6094 630.469 56.6094C630.026 56.6094 629.602 56.6745 629.195 56.8047C628.789 56.9349 628.398 57.0885 628.023 57.2656L627.43 55.9531C627.898 55.7083 628.411 55.5234 628.969 55.3984C629.526 55.2682 630.052 55.2031 630.547 55.2031C631.646 55.2031 632.474 55.4427 633.031 55.9219C633.594 56.401 633.875 57.1536 633.875 58.1797V64H632.562ZM629.828 62.75C630.495 62.75 631.029 62.5651 631.43 62.1953C631.836 61.8203 632.039 61.2969 632.039 60.625V59.875L630.93 59.9219C630.065 59.9531 629.435 60.099 629.039 60.3594C628.648 60.6146 628.453 61.0078 628.453 61.5391C628.453 61.9245 628.568 62.224 628.797 62.4375C629.026 62.6458 629.37 62.75 629.828 62.75ZM635.125 55.3594H637.125L638.883 60.2578C639.148 60.9557 639.326 61.612 639.414 62.2266H639.477C639.523 61.9401 639.609 61.5938 639.734 61.1875C639.859 60.776 640.521 58.8333 641.719 55.3594H643.703L640.008 65.1484C639.336 66.9453 638.216 67.8438 636.648 67.8438C636.242 67.8438 635.846 67.7995 635.461 67.7109V66.2578C635.737 66.3203 636.052 66.3516 636.406 66.3516C637.292 66.3516 637.914 65.8385 638.273 64.8125L638.594 64L635.125 55.3594ZM652.297 64H650.453V58.6719C650.453 58.0104 650.328 57.5182 650.078 57.1953C649.828 56.8672 649.438 56.7031 648.906 56.7031C648.198 56.7031 647.677 56.9349 647.344 57.3984C647.016 57.8568 646.852 58.6224 646.852 59.6953V64H645.016V55.3594H646.453L646.711 56.4922H646.805C647.044 56.0807 647.391 55.763 647.844 55.5391C648.302 55.3151 648.805 55.2031 649.352 55.2031C650.68 55.2031 651.56 55.6562 651.992 56.5625H652.117C652.372 56.1354 652.732 55.8021 653.195 55.5625C653.659 55.3229 654.19 55.2031 654.789 55.2031C655.82 55.2031 656.57 55.4635 657.039 55.9844C657.513 56.5052 657.75 57.2995 657.75 58.3672V64H655.914V58.6719C655.914 58.0104 655.786 57.5182 655.531 57.1953C655.281 56.8672 654.891 56.7031 654.359 56.7031C653.646 56.7031 653.122 56.9271 652.789 57.375C652.461 57.8177 652.297 58.5 652.297 59.4219V64ZM664.086 64.1562C662.742 64.1562 661.69 63.7656 660.93 62.9844C660.174 62.1979 659.797 61.1172 659.797 59.7422C659.797 58.3307 660.148 57.2214 660.852 56.4141C661.555 55.6068 662.521 55.2031 663.75 55.2031C664.891 55.2031 665.792 55.5495 666.453 56.2422C667.115 56.9349 667.445 57.888 667.445 59.1016V60.0938H661.688C661.714 60.9323 661.94 61.5781 662.367 62.0312C662.794 62.4792 663.396 62.7031 664.172 62.7031C664.682 62.7031 665.156 62.6562 665.594 62.5625C666.036 62.4635 666.51 62.3021 667.016 62.0781V63.5703C666.568 63.7839 666.115 63.9349 665.656 64.0234C665.198 64.112 664.674 64.1562 664.086 64.1562ZM663.75 56.5938C663.167 56.5938 662.698 56.7786 662.344 57.1484C661.995 57.5182 661.786 58.0573 661.719 58.7656H665.641C665.63 58.0521 665.458 57.513 665.125 57.1484C664.792 56.7786 664.333 56.5938 663.75 56.5938ZM677.133 64H675.289V58.6875C675.289 58.0208 675.154 57.5234 674.883 57.1953C674.617 56.8672 674.193 56.7031 673.609 56.7031C672.833 56.7031 672.266 56.9323 671.906 57.3906C671.547 57.849 671.367 58.6172 671.367 59.6953V64H669.531V55.3594H670.969L671.227 56.4922H671.32C671.581 56.0807 671.951 55.763 672.43 55.5391C672.909 55.3151 673.44 55.2031 674.023 55.2031C676.096 55.2031 677.133 56.2578 677.133 58.3672V64ZM682.906 62.6719C683.354 62.6719 683.802 62.6016 684.25 62.4609V63.8438C684.047 63.9323 683.784 64.0052 683.461 64.0625C683.143 64.125 682.812 64.1562 682.469 64.1562C680.729 64.1562 679.859 63.2396 679.859 61.4062V56.75H678.68V55.9375L679.945 55.2656L680.57 53.4375H681.703V55.3594H684.164V56.75H681.703V61.375C681.703 61.8177 681.812 62.1458 682.031 62.3594C682.255 62.5677 682.547 62.6719 682.906 62.6719Z" fill="#C0C0C1"/>
<path d="M60.4453 188H52.7031V186.609L55.6484 183.648C56.5182 182.758 57.0938 182.128 57.375 181.758C57.6615 181.383 57.8698 181.031 58 180.703C58.1302 180.375 58.1953 180.023 58.1953 179.648C58.1953 179.133 58.0391 178.727 57.7266 178.43C57.4193 178.133 56.9922 177.984 56.4453 177.984C56.0078 177.984 55.5833 178.065 55.1719 178.227C54.7656 178.388 54.2943 178.68 53.7578 179.102L52.7656 177.891C53.401 177.354 54.0182 176.974 54.6172 176.75C55.2161 176.526 55.8542 176.414 56.5312 176.414C57.5938 176.414 58.4453 176.693 59.0859 177.25C59.7266 177.802 60.0469 178.547 60.0469 179.484C60.0469 180 59.9531 180.49 59.7656 180.953C59.5833 181.417 59.2995 181.896 58.9141 182.391C58.5339 182.88 57.8984 183.544 57.0078 184.383L55.0234 186.305V186.383H60.4453V188ZM64.375 183.586L61.4766 179.359H63.5703L65.5391 182.383L67.5234 179.359H69.6016L66.6953 183.586L69.75 188H67.6719L65.5391 184.766L63.4141 188H61.3359L64.375 183.586ZM75.6172 188V176.578H77.4844V186.398H82.3203V188H75.6172ZM87.8672 188.156C86.5234 188.156 85.4714 187.766 84.7109 186.984C83.9557 186.198 83.5781 185.117 83.5781 183.742C83.5781 182.331 83.9297 181.221 84.6328 180.414C85.3359 179.607 86.3021 179.203 87.5312 179.203C88.6719 179.203 89.5729 179.549 90.2344 180.242C90.8958 180.935 91.2266 181.888 91.2266 183.102V184.094H85.4688C85.4948 184.932 85.7214 185.578 86.1484 186.031C86.5755 186.479 87.1771 186.703 87.9531 186.703C88.4635 186.703 88.9375 186.656 89.375 186.562C89.8177 186.464 90.2917 186.302 90.7969 186.078V187.57C90.349 187.784 89.8958 187.935 89.4375 188.023C88.9792 188.112 88.4557 188.156 87.8672 188.156ZM87.5312 180.594C86.9479 180.594 86.4792 180.779 86.125 181.148C85.776 181.518 85.5677 182.057 85.5 182.766H89.4219C89.4115 182.052 89.2396 181.513 88.9062 181.148C88.5729 180.779 88.1146 180.594 87.5312 180.594ZM95.2812 188L92 179.359H93.9375L95.6953 184.383C95.9974 185.227 96.1797 185.909 96.2422 186.43H96.3047C96.3516 186.055 96.5339 185.372 96.8516 184.383L98.6094 179.359H100.562L97.2656 188H95.2812ZM105.648 188.156C104.305 188.156 103.253 187.766 102.492 186.984C101.737 186.198 101.359 185.117 101.359 183.742C101.359 182.331 101.711 181.221 102.414 180.414C103.117 179.607 104.083 179.203 105.312 179.203C106.453 179.203 107.354 179.549 108.016 180.242C108.677 180.935 109.008 181.888 109.008 183.102V184.094H103.25C103.276 184.932 103.503 185.578 103.93 186.031C104.357 186.479 104.958 186.703 105.734 186.703C106.245 186.703 106.719 186.656 107.156 186.562C107.599 186.464 108.073 186.302 108.578 186.078V187.57C108.13 187.784 107.677 187.935 107.219 188.023C106.76 188.112 106.237 188.156 105.648 188.156ZM105.312 180.594C104.729 180.594 104.26 180.779 103.906 181.148C103.557 181.518 103.349 182.057 103.281 182.766H107.203C107.193 182.052 107.021 181.513 106.688 181.148C106.354 180.779 105.896 180.594 105.312 180.594ZM115.477 179.203C115.846 179.203 116.151 179.229 116.391 179.281L116.211 180.992C115.951 180.93 115.68 180.898 115.398 180.898C114.664 180.898 114.068 181.138 113.609 181.617C113.156 182.096 112.93 182.719 112.93 183.484V188H111.094V179.359H112.531L112.773 180.883H112.867C113.154 180.367 113.526 179.958 113.984 179.656C114.448 179.354 114.945 179.203 115.477 179.203ZM123.406 188L123.039 186.797H122.977C122.56 187.323 122.141 187.682 121.719 187.875C121.297 188.062 120.755 188.156 120.094 188.156C119.245 188.156 118.581 187.927 118.102 187.469C117.628 187.01 117.391 186.362 117.391 185.523C117.391 184.633 117.721 183.961 118.383 183.508C119.044 183.055 120.052 182.807 121.406 182.766L122.898 182.719V182.258C122.898 181.706 122.768 181.294 122.508 181.023C122.253 180.747 121.854 180.609 121.312 180.609C120.87 180.609 120.445 180.674 120.039 180.805C119.633 180.935 119.242 181.089 118.867 181.266L118.273 179.953C118.742 179.708 119.255 179.523 119.812 179.398C120.37 179.268 120.896 179.203 121.391 179.203C122.49 179.203 123.318 179.443 123.875 179.922C124.438 180.401 124.719 181.154 124.719 182.18V188H123.406ZM120.672 186.75C121.339 186.75 121.872 186.565 122.273 186.195C122.68 185.82 122.883 185.297 122.883 184.625V183.875L121.773 183.922C120.909 183.953 120.279 184.099 119.883 184.359C119.492 184.615 119.297 185.008 119.297 185.539C119.297 185.924 119.411 186.224 119.641 186.438C119.87 186.646 120.214 186.75 120.672 186.75ZM134.578 179.359V180.367L133.102 180.641C133.237 180.823 133.349 181.047 133.438 181.312C133.526 181.578 133.57 181.859 133.57 182.156C133.57 183.047 133.263 183.747 132.648 184.258C132.034 184.768 131.188 185.023 130.109 185.023C129.833 185.023 129.583 185.003 129.359 184.961C128.964 185.206 128.766 185.492 128.766 185.82C128.766 186.018 128.857 186.167 129.039 186.266C129.227 186.365 129.568 186.414 130.062 186.414H131.57C132.523 186.414 133.247 186.617 133.742 187.023C134.237 187.43 134.484 188.016 134.484 188.781C134.484 189.76 134.081 190.516 133.273 191.047C132.466 191.578 131.299 191.844 129.773 191.844C128.596 191.844 127.698 191.635 127.078 191.219C126.458 190.802 126.148 190.208 126.148 189.438C126.148 188.906 126.315 188.458 126.648 188.094C126.987 187.734 127.458 187.484 128.062 187.344C127.818 187.24 127.615 187.073 127.453 186.844C127.297 186.609 127.219 186.365 127.219 186.109C127.219 185.786 127.31 185.513 127.492 185.289C127.674 185.065 127.945 184.844 128.305 184.625C127.857 184.432 127.492 184.12 127.211 183.688C126.935 183.25 126.797 182.74 126.797 182.156C126.797 181.219 127.091 180.492 127.68 179.977C128.273 179.461 129.117 179.203 130.211 179.203C130.456 179.203 130.711 179.221 130.977 179.258C131.247 179.289 131.451 179.323 131.586 179.359H134.578ZM127.789 189.344C127.789 189.74 127.966 190.044 128.32 190.258C128.68 190.471 129.182 190.578 129.828 190.578C130.828 190.578 131.573 190.435 132.062 190.148C132.552 189.862 132.797 189.482 132.797 189.008C132.797 188.633 132.661 188.365 132.391 188.203C132.125 188.047 131.628 187.969 130.898 187.969H129.508C128.982 187.969 128.562 188.091 128.25 188.336C127.943 188.586 127.789 188.922 127.789 189.344ZM128.578 182.156C128.578 182.698 128.716 183.115 128.992 183.406C129.273 183.698 129.674 183.844 130.195 183.844C131.258 183.844 131.789 183.276 131.789 182.141C131.789 181.578 131.656 181.146 131.391 180.844C131.13 180.536 130.732 180.383 130.195 180.383C129.664 180.383 129.26 180.534 128.984 180.836C128.714 181.138 128.578 181.578 128.578 182.156ZM139.961 188.156C138.617 188.156 137.565 187.766 136.805 186.984C136.049 186.198 135.672 185.117 135.672 183.742C135.672 182.331 136.023 181.221 136.727 180.414C137.43 179.607 138.396 179.203 139.625 179.203C140.766 179.203 141.667 179.549 142.328 180.242C142.99 180.935 143.32 181.888 143.32 183.102V184.094H137.562C137.589 184.932 137.815 185.578 138.242 186.031C138.669 186.479 139.271 186.703 140.047 186.703C140.557 186.703 141.031 186.656 141.469 186.562C141.911 186.464 142.385 186.302 142.891 186.078V187.57C142.443 187.784 141.99 187.935 141.531 188.023C141.073 188.112 140.549 188.156 139.961 188.156ZM139.625 180.594C139.042 180.594 138.573 180.779 138.219 181.148C137.87 181.518 137.661 182.057 137.594 182.766H141.516C141.505 182.052 141.333 181.513 141 181.148C140.667 180.779 140.208 180.594 139.625 180.594Z" fill="#C0C0C1"/>
<path d="M61.0703 247.031C61.0703 248.224 60.6797 249.138 59.8984 249.773C59.1172 250.409 58.0052 250.727 56.5625 250.727H55.375V255H53.5078V243.578H56.7969C58.224 243.578 59.2917 243.87 60 244.453C60.7135 245.036 61.0703 245.896 61.0703 247.031ZM55.375 249.156H56.3672C57.3255 249.156 58.0286 248.99 58.4766 248.656C58.9245 248.323 59.1484 247.802 59.1484 247.094C59.1484 246.438 58.9479 245.948 58.5469 245.625C58.1458 245.302 57.5208 245.141 56.6719 245.141H55.375V249.156ZM66.9297 255.156C65.5859 255.156 64.5339 254.766 63.7734 253.984C63.0182 253.198 62.6406 252.117 62.6406 250.742C62.6406 249.331 62.9922 248.221 63.6953 247.414C64.3984 246.607 65.3646 246.203 66.5938 246.203C67.7344 246.203 68.6354 246.549 69.2969 247.242C69.9583 247.935 70.2891 248.888 70.2891 250.102V251.094H64.5312C64.5573 251.932 64.7839 252.578 65.2109 253.031C65.638 253.479 66.2396 253.703 67.0156 253.703C67.526 253.703 68 253.656 68.4375 253.562C68.8802 253.464 69.3542 253.302 69.8594 253.078V254.57C69.4115 254.784 68.9583 254.935 68.5 255.023C68.0417 255.112 67.5182 255.156 66.9297 255.156ZM66.5938 247.594C66.0104 247.594 65.5417 247.779 65.1875 248.148C64.8385 248.518 64.6302 249.057 64.5625 249.766H68.4844C68.474 249.052 68.3021 248.513 67.9688 248.148C67.6354 247.779 67.1771 247.594 66.5938 247.594ZM76.7578 246.203C77.1276 246.203 77.4323 246.229 77.6719 246.281L77.4922 247.992C77.2318 247.93 76.9609 247.898 76.6797 247.898C75.9453 247.898 75.349 248.138 74.8906 248.617C74.4375 249.096 74.2109 249.719 74.2109 250.484V255H72.375V246.359H73.8125L74.0547 247.883H74.1484C74.4349 247.367 74.8073 246.958 75.2656 246.656C75.7292 246.354 76.2266 246.203 76.7578 246.203ZM83.6641 255.156C82.5703 255.156 81.7214 254.763 81.1172 253.977H81.0078C81.0807 254.706 81.1172 255.148 81.1172 255.305V258.844H79.2812V246.359H80.7656C80.8073 246.521 80.8932 246.906 81.0234 247.516H81.1172C81.6901 246.641 82.5495 246.203 83.6953 246.203C84.7734 246.203 85.612 246.594 86.2109 247.375C86.8151 248.156 87.1172 249.253 87.1172 250.664C87.1172 252.076 86.8099 253.177 86.1953 253.969C85.5859 254.76 84.7422 255.156 83.6641 255.156ZM83.2188 247.703C82.4896 247.703 81.9557 247.917 81.6172 248.344C81.2839 248.771 81.1172 249.453 81.1172 250.391V250.664C81.1172 251.716 81.2839 252.479 81.6172 252.953C81.9505 253.422 82.4948 253.656 83.25 253.656C83.8854 253.656 84.375 253.396 84.7188 252.875C85.0625 252.354 85.2344 251.612 85.2344 250.648C85.2344 249.68 85.0625 248.948 84.7188 248.453C84.3802 247.953 83.8802 247.703 83.2188 247.703ZM93.0234 255.156C91.6797 255.156 90.6276 254.766 89.8672 253.984C89.112 253.198 88.7344 252.117 88.7344 250.742C88.7344 249.331 89.0859 248.221 89.7891 247.414C90.4922 246.607 91.4583 246.203 92.6875 246.203C93.8281 246.203 94.7292 246.549 95.3906 247.242C96.0521 247.935 96.3828 248.888 96.3828 250.102V251.094H90.625C90.651 251.932 90.8776 252.578 91.3047 253.031C91.7318 253.479 92.3333 253.703 93.1094 253.703C93.6198 253.703 94.0938 253.656 94.5312 253.562C94.974 253.464 95.4479 253.302 95.9531 253.078V254.57C95.5052 254.784 95.0521 254.935 94.5938 255.023C94.1354 255.112 93.612 255.156 93.0234 255.156ZM92.6875 247.594C92.1042 247.594 91.6354 247.779 91.2812 248.148C90.9323 248.518 90.724 249.057 90.6562 249.766H94.5781C94.5677 249.052 94.3958 248.513 94.0625 248.148C93.7292 247.779 93.2708 247.594 92.6875 247.594ZM101.688 253.672C102.135 253.672 102.583 253.602 103.031 253.461V254.844C102.828 254.932 102.565 255.005 102.242 255.062C101.924 255.125 101.594 255.156 101.25 255.156C99.5104 255.156 98.6406 254.24 98.6406 252.406V247.75H97.4609V246.938L98.7266 246.266L99.3516 244.438H100.484V246.359H102.945V247.75H100.484V252.375C100.484 252.818 100.594 253.146 100.812 253.359C101.036 253.568 101.328 253.672 101.688 253.672ZM110.859 255L110.602 253.867H110.508C110.253 254.268 109.888 254.583 109.414 254.812C108.945 255.042 108.409 255.156 107.805 255.156C106.758 255.156 105.977 254.896 105.461 254.375C104.945 253.854 104.688 253.065 104.688 252.008V246.359H106.539V251.688C106.539 252.349 106.674 252.846 106.945 253.18C107.216 253.508 107.641 253.672 108.219 253.672C108.99 253.672 109.555 253.443 109.914 252.984C110.279 252.521 110.461 251.747 110.461 250.664V246.359H112.305V255H110.859ZM120.328 255L119.961 253.797H119.898C119.482 254.323 119.062 254.682 118.641 254.875C118.219 255.062 117.677 255.156 117.016 255.156C116.167 255.156 115.503 254.927 115.023 254.469C114.549 254.01 114.312 253.362 114.312 252.523C114.312 251.633 114.643 250.961 115.305 250.508C115.966 250.055 116.974 249.807 118.328 249.766L119.82 249.719V249.258C119.82 248.706 119.69 248.294 119.43 248.023C119.174 247.747 118.776 247.609 118.234 247.609C117.792 247.609 117.367 247.674 116.961 247.805C116.555 247.935 116.164 248.089 115.789 248.266L115.195 246.953C115.664 246.708 116.177 246.523 116.734 246.398C117.292 246.268 117.818 246.203 118.312 246.203C119.411 246.203 120.24 246.443 120.797 246.922C121.359 247.401 121.641 248.154 121.641 249.18V255H120.328ZM117.594 253.75C118.26 253.75 118.794 253.565 119.195 253.195C119.602 252.82 119.805 252.297 119.805 251.625V250.875L118.695 250.922C117.831 250.953 117.201 251.099 116.805 251.359C116.414 251.615 116.219 252.008 116.219 252.539C116.219 252.924 116.333 253.224 116.562 253.438C116.792 253.646 117.135 253.75 117.594 253.75ZM126.039 255H124.203V242.844H126.039V255ZM139.609 251.898C139.609 252.914 139.242 253.711 138.508 254.289C137.773 254.867 136.76 255.156 135.469 255.156C134.177 255.156 133.12 254.956 132.297 254.555V252.789C132.818 253.034 133.37 253.227 133.953 253.367C134.542 253.508 135.089 253.578 135.594 253.578C136.333 253.578 136.878 253.438 137.227 253.156C137.581 252.875 137.758 252.497 137.758 252.023C137.758 251.596 137.596 251.234 137.273 250.938C136.951 250.641 136.284 250.289 135.273 249.883C134.232 249.461 133.497 248.979 133.07 248.438C132.643 247.896 132.43 247.245 132.43 246.484C132.43 245.531 132.768 244.781 133.445 244.234C134.122 243.688 135.031 243.414 136.172 243.414C137.266 243.414 138.354 243.654 139.438 244.133L138.844 245.656C137.828 245.229 136.922 245.016 136.125 245.016C135.521 245.016 135.062 245.148 134.75 245.414C134.438 245.674 134.281 246.021 134.281 246.453C134.281 246.75 134.344 247.005 134.469 247.219C134.594 247.427 134.799 247.625 135.086 247.812C135.372 248 135.888 248.247 136.633 248.555C137.471 248.904 138.086 249.229 138.477 249.531C138.867 249.833 139.154 250.174 139.336 250.555C139.518 250.935 139.609 251.383 139.609 251.898ZM148.711 255L147.594 250.969C147.458 250.542 147.214 249.549 146.859 247.992H146.789C146.487 249.398 146.247 250.396 146.07 250.984L144.922 255H142.891L140.469 246.359H142.344L143.445 250.617C143.695 251.669 143.872 252.57 143.977 253.32H144.023C144.076 252.94 144.154 252.505 144.258 252.016C144.367 251.521 144.461 251.151 144.539 250.906L145.852 246.359H147.867L149.141 250.906C149.219 251.161 149.315 251.552 149.43 252.078C149.549 252.604 149.62 253.013 149.641 253.305H149.703C149.781 252.664 149.964 251.768 150.25 250.617L151.367 246.359H153.211L150.773 255H148.711ZM160.109 255L159.742 253.797H159.68C159.263 254.323 158.844 254.682 158.422 254.875C158 255.062 157.458 255.156 156.797 255.156C155.948 255.156 155.284 254.927 154.805 254.469C154.331 254.01 154.094 253.362 154.094 252.523C154.094 251.633 154.424 250.961 155.086 250.508C155.747 250.055 156.755 249.807 158.109 249.766L159.602 249.719V249.258C159.602 248.706 159.471 248.294 159.211 248.023C158.956 247.747 158.557 247.609 158.016 247.609C157.573 247.609 157.148 247.674 156.742 247.805C156.336 247.935 155.945 248.089 155.57 248.266L154.977 246.953C155.445 246.708 155.958 246.523 156.516 246.398C157.073 246.268 157.599 246.203 158.094 246.203C159.193 246.203 160.021 246.443 160.578 246.922C161.141 247.401 161.422 248.154 161.422 249.18V255H160.109ZM157.375 253.75C158.042 253.75 158.576 253.565 158.977 253.195C159.383 252.82 159.586 252.297 159.586 251.625V250.875L158.477 250.922C157.612 250.953 156.982 251.099 156.586 251.359C156.195 251.615 156 252.008 156 252.539C156 252.924 156.115 253.224 156.344 253.438C156.573 253.646 156.917 253.75 157.375 253.75ZM168.367 255.156C167.273 255.156 166.424 254.763 165.82 253.977H165.711C165.784 254.706 165.82 255.148 165.82 255.305V258.844H163.984V246.359H165.469C165.51 246.521 165.596 246.906 165.727 247.516H165.82C166.393 246.641 167.253 246.203 168.398 246.203C169.477 246.203 170.315 246.594 170.914 247.375C171.518 248.156 171.82 249.253 171.82 250.664C171.82 252.076 171.513 253.177 170.898 253.969C170.289 254.76 169.445 255.156 168.367 255.156ZM167.922 247.703C167.193 247.703 166.659 247.917 166.32 248.344C165.987 248.771 165.82 249.453 165.82 250.391V250.664C165.82 251.716 165.987 252.479 166.32 252.953C166.654 253.422 167.198 253.656 167.953 253.656C168.589 253.656 169.078 253.396 169.422 252.875C169.766 252.354 169.938 251.612 169.938 250.648C169.938 249.68 169.766 248.948 169.422 248.453C169.083 247.953 168.583 247.703 167.922 247.703Z" fill="#C0C0C1"/>
<path d="M58.3672 313.016C57.2943 313.016 56.4505 313.396 55.8359 314.156C55.2214 314.917 54.9141 315.966 54.9141 317.305C54.9141 318.706 55.2083 319.766 55.7969 320.484C56.3906 321.203 57.2474 321.562 58.3672 321.562C58.8516 321.562 59.3203 321.516 59.7734 321.422C60.2266 321.323 60.6979 321.198 61.1875 321.047V322.648C60.2917 322.987 59.276 323.156 58.1406 323.156C56.4688 323.156 55.1849 322.651 54.2891 321.641C53.3932 320.625 52.9453 319.174 52.9453 317.289C52.9453 316.102 53.1615 315.062 53.5938 314.172C54.0312 313.281 54.6615 312.599 55.4844 312.125C56.3073 311.651 57.2734 311.414 58.3828 311.414C59.5495 311.414 60.6276 311.659 61.6172 312.148L60.9453 313.703C60.5599 313.521 60.151 313.362 59.7188 313.227C59.2917 313.086 58.8411 313.016 58.3672 313.016ZM68.8594 323L68.4922 321.797H68.4297C68.013 322.323 67.5938 322.682 67.1719 322.875C66.75 323.062 66.2083 323.156 65.5469 323.156C64.6979 323.156 64.0339 322.927 63.5547 322.469C63.0807 322.01 62.8438 321.362 62.8438 320.523C62.8438 319.633 63.1745 318.961 63.8359 318.508C64.4974 318.055 65.5052 317.807 66.8594 317.766L68.3516 317.719V317.258C68.3516 316.706 68.2214 316.294 67.9609 316.023C67.7057 315.747 67.3073 315.609 66.7656 315.609C66.3229 315.609 65.8984 315.674 65.4922 315.805C65.0859 315.935 64.6953 316.089 64.3203 316.266L63.7266 314.953C64.1953 314.708 64.7083 314.523 65.2656 314.398C65.8229 314.268 66.349 314.203 66.8438 314.203C67.9427 314.203 68.7708 314.443 69.3281 314.922C69.8906 315.401 70.1719 316.154 70.1719 317.18V323H68.8594ZM66.125 321.75C66.7917 321.75 67.3255 321.565 67.7266 321.195C68.1328 320.82 68.3359 320.297 68.3359 319.625V318.875L67.2266 318.922C66.362 318.953 65.7318 319.099 65.3359 319.359C64.9453 319.615 64.75 320.008 64.75 320.539C64.75 320.924 64.8646 321.224 65.0938 321.438C65.3229 321.646 65.6667 321.75 66.125 321.75ZM74.5703 323H72.7344V310.844H74.5703V323ZM79.0391 323H77.2031V310.844H79.0391V323ZM96.1641 317.273C96.1641 319.133 95.6979 320.578 94.7656 321.609C93.8385 322.641 92.5234 323.156 90.8203 323.156C89.0964 323.156 87.7708 322.646 86.8438 321.625C85.9219 320.599 85.4609 319.143 85.4609 317.258C85.4609 315.372 85.9245 313.924 86.8516 312.914C87.7839 311.904 89.112 311.398 90.8359 311.398C92.5339 311.398 93.8464 311.911 94.7734 312.938C95.7005 313.964 96.1641 315.409 96.1641 317.273ZM87.4453 317.273C87.4453 318.68 87.7292 319.747 88.2969 320.477C88.8646 321.201 89.7057 321.562 90.8203 321.562C91.9297 321.562 92.7656 321.203 93.3281 320.484C93.8958 319.766 94.1797 318.695 94.1797 317.273C94.1797 315.872 93.8984 314.81 93.3359 314.086C92.7786 313.362 91.9453 313 90.8359 313C89.7161 313 88.8698 313.362 88.2969 314.086C87.7292 314.81 87.4453 315.872 87.4453 317.273ZM102.805 323.156C101.711 323.156 100.862 322.763 100.258 321.977H100.148C100.221 322.706 100.258 323.148 100.258 323.305V326.844H98.4219V314.359H99.9062C99.9479 314.521 100.034 314.906 100.164 315.516H100.258C100.831 314.641 101.69 314.203 102.836 314.203C103.914 314.203 104.753 314.594 105.352 315.375C105.956 316.156 106.258 317.253 106.258 318.664C106.258 320.076 105.951 321.177 105.336 321.969C104.727 322.76 103.883 323.156 102.805 323.156ZM102.359 315.703C101.63 315.703 101.096 315.917 100.758 316.344C100.424 316.771 100.258 317.453 100.258 318.391V318.664C100.258 319.716 100.424 320.479 100.758 320.953C101.091 321.422 101.635 321.656 102.391 321.656C103.026 321.656 103.516 321.396 103.859 320.875C104.203 320.354 104.375 319.612 104.375 318.648C104.375 317.68 104.203 316.948 103.859 316.453C103.521 315.953 103.021 315.703 102.359 315.703ZM111.609 321.672C112.057 321.672 112.505 321.602 112.953 321.461V322.844C112.75 322.932 112.487 323.005 112.164 323.062C111.846 323.125 111.516 323.156 111.172 323.156C109.432 323.156 108.562 322.24 108.562 320.406V315.75H107.383V314.938L108.648 314.266L109.273 312.438H110.406V314.359H112.867V315.75H110.406V320.375C110.406 320.818 110.516 321.146 110.734 321.359C110.958 321.568 111.25 321.672 111.609 321.672ZM116.523 323H114.688V314.359H116.523V323ZM114.578 312.07C114.578 311.742 114.667 311.49 114.844 311.312C115.026 311.135 115.284 311.047 115.617 311.047C115.94 311.047 116.19 311.135 116.367 311.312C116.549 311.49 116.641 311.742 116.641 312.07C116.641 312.383 116.549 312.63 116.367 312.812C116.19 312.99 115.94 313.078 115.617 313.078C115.284 313.078 115.026 312.99 114.844 312.812C114.667 312.63 114.578 312.383 114.578 312.07ZM126.82 318.664C126.82 320.076 126.458 321.177 125.734 321.969C125.01 322.76 124.003 323.156 122.711 323.156C121.904 323.156 121.19 322.974 120.57 322.609C119.951 322.245 119.474 321.721 119.141 321.039C118.807 320.357 118.641 319.565 118.641 318.664C118.641 317.263 119 316.169 119.719 315.383C120.438 314.596 121.451 314.203 122.758 314.203C124.008 314.203 124.997 314.607 125.727 315.414C126.456 316.216 126.82 317.299 126.82 318.664ZM120.531 318.664C120.531 320.659 121.268 321.656 122.742 321.656C124.201 321.656 124.93 320.659 124.93 318.664C124.93 316.69 124.195 315.703 122.727 315.703C121.956 315.703 121.396 315.958 121.047 316.469C120.703 316.979 120.531 317.711 120.531 318.664ZM136.539 323H134.695V317.688C134.695 317.021 134.56 316.523 134.289 316.195C134.023 315.867 133.599 315.703 133.016 315.703C132.24 315.703 131.672 315.932 131.312 316.391C130.953 316.849 130.773 317.617 130.773 318.695V323H128.938V314.359H130.375L130.633 315.492H130.727C130.987 315.081 131.357 314.763 131.836 314.539C132.315 314.315 132.846 314.203 133.43 314.203C135.503 314.203 136.539 315.258 136.539 317.367V323Z" fill="#C0C0C1"/>
<line x1="180.327" y1="88.0537" x2="180.327" y2="344.877" stroke="#C0C0C1" stroke-opacity="0.51"/>
<line x1="350.689" y1="88.0537" x2="350.689" y2="344.877" stroke="#C0C0C1" stroke-opacity="0.51"/>
<line x1="545.142" y1="88.0537" x2="545.142" y2="344.877" stroke="#C0C0C1" stroke-opacity="0.51"/>
<line x1="179.827" y1="146.256" x2="737.375" y2="146.256" stroke="#C0C0C1" stroke-opacity="0.51"/>
<line x1="179.827" y1="212.296" x2="737.375" y2="212.296" stroke="#C0C0C1" stroke-opacity="0.51"/>
<line x1="179.827" y1="278.337" x2="737.375" y2="278.337" stroke="#C0C0C1" stroke-opacity="0.51"/>
<path d="M216.824 124.743C270.34 132.502 290.82 90.8054 290.82 90.8054" stroke="#00FFF9"/>
<line x1="221.987" y1="322.364" x2="269.31" y2="322.364" stroke="#00FFF9"/>
<line y1="-0.5" x2="38.329" y2="-0.5" transform="matrix(0.763237 -0.646119 0.597395 0.801947 269.31 322.864)" stroke="#00FFF9"/>
<line y1="-0.5" x2="52.2881" y2="-0.5" transform="matrix(0.839218 -0.543795 0.49533 0.868705 247.799 185.28)" stroke="#00FFF9"/>
<line y1="-0.5" x2="32.3204" y2="-0.5" transform="matrix(0.840179 -0.542308 0.496693 0.867926 221.987 201.937)" stroke="#00FFF9" stroke-dasharray="2 2"/>
<line y1="-0.5" x2="52.2881" y2="-0.5" transform="matrix(0.839218 -0.543795 0.49533 0.868705 247.799 254.072)" stroke="#00FFF9"/>
<line y1="-0.5" x2="32.3204" y2="-0.5" transform="matrix(0.840179 -0.542308 0.496693 0.867926 221.987 270.729)" stroke="#00FFF9" stroke-dasharray="2 2"/>
</svg>
