<svg width="917" height="447" viewBox="0 0 917 447" fill="none" xmlns="http://www.w3.org/2000/svg">
<rect width="917" height="447" fill="#2B2D2E"/>
<path d="M68.0938 125.898C68.0938 126.914 67.7266 127.711 66.9922 128.289C66.2578 128.867 65.2448 129.156 63.9531 129.156C62.6615 129.156 61.6042 128.956 60.7812 128.555V126.789C61.3021 127.034 61.8542 127.227 62.4375 127.367C63.026 127.508 63.5729 127.578 64.0781 127.578C64.8177 127.578 65.362 127.438 65.7109 127.156C66.0651 126.875 66.2422 126.497 66.2422 126.023C66.2422 125.596 66.0807 125.234 65.7578 124.938C65.4349 124.641 64.7682 124.289 63.7578 123.883C62.7161 123.461 61.9818 122.979 61.5547 122.438C61.1276 121.896 60.9141 121.245 60.9141 120.484C60.9141 119.531 61.2526 118.781 61.9297 118.234C62.6068 117.688 63.5156 117.414 64.6562 117.414C65.75 117.414 66.8385 117.654 67.9219 118.133L67.3281 119.656C66.3125 119.229 65.4062 119.016 64.6094 119.016C64.0052 119.016 63.5469 119.148 63.2344 119.414C62.9219 119.674 62.7656 120.021 62.7656 120.453C62.7656 120.75 62.8281 121.005 62.9531 121.219C63.0781 121.427 63.2839 121.625 63.5703 121.812C63.8568 122 64.3724 122.247 65.1172 122.555C65.9557 122.904 66.5703 123.229 66.9609 123.531C67.3516 123.833 67.638 124.174 67.8203 124.555C68.0026 124.935 68.0938 125.383 68.0938 125.898ZM73.5312 127.688C74.3021 127.688 74.8542 127.466 75.1875 127.023C75.526 126.576 75.6953 125.901 75.6953 125V124.711C75.6953 123.643 75.5208 122.875 75.1719 122.406C74.8281 121.938 74.2708 121.703 73.5 121.703C72.8438 121.703 72.3438 121.964 72 122.484C71.6562 123.005 71.4844 123.753 71.4844 124.727C71.4844 126.701 72.1667 127.688 73.5312 127.688ZM73.0078 129.156C71.9401 129.156 71.1042 128.766 70.5 127.984C69.8958 127.198 69.5938 126.102 69.5938 124.695C69.5938 123.289 69.901 122.19 70.5156 121.398C71.1302 120.602 71.9766 120.203 73.0547 120.203C73.5964 120.203 74.0807 120.305 74.5078 120.508C74.9401 120.706 75.3255 121.034 75.6641 121.492H75.7266L75.9297 120.359H77.4531V132.844H75.6094V129.18C75.6094 128.951 75.6198 128.708 75.6406 128.453C75.6615 128.198 75.6797 128.003 75.6953 127.867H75.5938C75.0521 128.727 74.1901 129.156 73.0078 129.156ZM86.1719 129L85.9141 127.867H85.8203C85.5651 128.268 85.2005 128.583 84.7266 128.812C84.2578 129.042 83.7214 129.156 83.1172 129.156C82.0703 129.156 81.2891 128.896 80.7734 128.375C80.2578 127.854 80 127.065 80 126.008V120.359H81.8516V125.688C81.8516 126.349 81.987 126.846 82.2578 127.18C82.5286 127.508 82.9531 127.672 83.5312 127.672C84.3021 127.672 84.8672 127.443 85.2266 126.984C85.5911 126.521 85.7734 125.747 85.7734 124.664V120.359H87.6172V129H86.1719ZM94.0078 129.156C92.6641 129.156 91.612 128.766 90.8516 127.984C90.0964 127.198 89.7188 126.117 89.7188 124.742C89.7188 123.331 90.0703 122.221 90.7734 121.414C91.4766 120.607 92.4427 120.203 93.6719 120.203C94.8125 120.203 95.7135 120.549 96.375 121.242C97.0365 121.935 97.3672 122.888 97.3672 124.102V125.094H91.6094C91.6354 125.932 91.862 126.578 92.2891 127.031C92.7161 127.479 93.3177 127.703 94.0938 127.703C94.6042 127.703 95.0781 127.656 95.5156 127.562C95.9583 127.464 96.4323 127.302 96.9375 127.078V128.57C96.4896 128.784 96.0365 128.935 95.5781 129.023C95.1198 129.112 94.5964 129.156 94.0078 129.156ZM93.6719 121.594C93.0885 121.594 92.6198 121.779 92.2656 122.148C91.9167 122.518 91.7083 123.057 91.6406 123.766H95.5625C95.5521 123.052 95.3802 122.513 95.0469 122.148C94.7135 121.779 94.2552 121.594 93.6719 121.594ZM103.227 129.156C101.883 129.156 100.831 128.766 100.07 127.984C99.3151 127.198 98.9375 126.117 98.9375 124.742C98.9375 123.331 99.2891 122.221 99.9922 121.414C100.695 120.607 101.661 120.203 102.891 120.203C104.031 120.203 104.932 120.549 105.594 121.242C106.255 121.935 106.586 122.888 106.586 124.102V125.094H100.828C100.854 125.932 101.081 126.578 101.508 127.031C101.935 127.479 102.536 127.703 103.312 127.703C103.823 127.703 104.297 127.656 104.734 127.562C105.177 127.464 105.651 127.302 106.156 127.078V128.57C105.708 128.784 105.255 128.935 104.797 129.023C104.339 129.112 103.815 129.156 103.227 129.156ZM102.891 121.594C102.307 121.594 101.839 121.779 101.484 122.148C101.135 122.518 100.927 123.057 100.859 123.766H104.781C104.771 123.052 104.599 122.513 104.266 122.148C103.932 121.779 103.474 121.594 102.891 121.594ZM111.891 127.672C112.339 127.672 112.786 127.602 113.234 127.461V128.844C113.031 128.932 112.768 129.005 112.445 129.062C112.128 129.125 111.797 129.156 111.453 129.156C109.714 129.156 108.844 128.24 108.844 126.406V121.75H107.664V120.938L108.93 120.266L109.555 118.438H110.688V120.359H113.148V121.75H110.688V126.375C110.688 126.818 110.797 127.146 111.016 127.359C111.24 127.568 111.531 127.672 111.891 127.672ZM122.57 129H120.727V123.688C120.727 123.021 120.591 122.523 120.32 122.195C120.055 121.867 119.63 121.703 119.047 121.703C118.276 121.703 117.708 121.935 117.344 122.398C116.984 122.857 116.805 123.628 116.805 124.711V129H114.969V116.844H116.805V119.93C116.805 120.424 116.773 120.953 116.711 121.516H116.828C117.078 121.099 117.424 120.776 117.867 120.547C118.315 120.318 118.836 120.203 119.43 120.203C121.523 120.203 122.57 121.258 122.57 123.367V129Z" fill="#C0C0C1"/>
<path d="M715.898 129H714.57V117.578H720.938V118.758H715.898V122.938H720.633V124.117H715.898V129ZM723.859 120.438V125.992C723.859 126.69 724.018 127.211 724.336 127.555C724.654 127.898 725.151 128.07 725.828 128.07C726.724 128.07 727.378 127.826 727.789 127.336C728.206 126.846 728.414 126.047 728.414 124.938V120.438H729.711V129H728.641L728.453 127.852H728.383C728.117 128.273 727.747 128.596 727.273 128.82C726.805 129.044 726.268 129.156 725.664 129.156C724.622 129.156 723.841 128.909 723.32 128.414C722.805 127.919 722.547 127.128 722.547 126.039V120.438H723.859ZM738.328 129V123.461C738.328 122.763 738.169 122.242 737.852 121.898C737.534 121.555 737.036 121.383 736.359 121.383C735.464 121.383 734.807 121.625 734.391 122.109C733.974 122.594 733.766 123.393 733.766 124.508V129H732.469V120.438H733.523L733.734 121.609H733.797C734.062 121.188 734.435 120.862 734.914 120.633C735.393 120.398 735.927 120.281 736.516 120.281C737.547 120.281 738.323 120.531 738.844 121.031C739.365 121.526 739.625 122.32 739.625 123.414V129H738.328ZM748.125 127.852H748.055C747.456 128.721 746.56 129.156 745.367 129.156C744.247 129.156 743.375 128.773 742.75 128.008C742.13 127.242 741.82 126.154 741.82 124.742C741.82 123.331 742.133 122.234 742.758 121.453C743.383 120.672 744.253 120.281 745.367 120.281C746.529 120.281 747.419 120.703 748.039 121.547H748.141L748.086 120.93L748.055 120.328V116.844H749.352V129H748.297L748.125 127.852ZM745.531 128.07C746.417 128.07 747.057 127.831 747.453 127.352C747.854 126.867 748.055 126.089 748.055 125.016V124.742C748.055 123.529 747.852 122.664 747.445 122.148C747.044 121.628 746.401 121.367 745.516 121.367C744.755 121.367 744.172 121.664 743.766 122.258C743.365 122.846 743.164 123.68 743.164 124.758C743.164 125.852 743.365 126.677 743.766 127.234C744.167 127.792 744.755 128.07 745.531 128.07ZM753.406 129H752.109V120.438H753.406V129ZM752 118.117C752 117.82 752.073 117.604 752.219 117.469C752.365 117.328 752.547 117.258 752.766 117.258C752.974 117.258 753.154 117.328 753.305 117.469C753.456 117.609 753.531 117.826 753.531 118.117C753.531 118.409 753.456 118.628 753.305 118.773C753.154 118.914 752.974 118.984 752.766 118.984C752.547 118.984 752.365 118.914 752.219 118.773C752.073 118.628 752 118.409 752 118.117ZM762.016 129V123.461C762.016 122.763 761.857 122.242 761.539 121.898C761.221 121.555 760.724 121.383 760.047 121.383C759.151 121.383 758.495 121.625 758.078 122.109C757.661 122.594 757.453 123.393 757.453 124.508V129H756.156V120.438H757.211L757.422 121.609H757.484C757.75 121.188 758.122 120.862 758.602 120.633C759.081 120.398 759.615 120.281 760.203 120.281C761.234 120.281 762.01 120.531 762.531 121.031C763.052 121.526 763.312 122.32 763.312 123.414V129H762.016ZM772.992 120.438V121.258L771.406 121.445C771.552 121.628 771.682 121.867 771.797 122.164C771.911 122.456 771.969 122.786 771.969 123.156C771.969 123.995 771.682 124.664 771.109 125.164C770.536 125.664 769.75 125.914 768.75 125.914C768.495 125.914 768.255 125.893 768.031 125.852C767.479 126.143 767.203 126.51 767.203 126.953C767.203 127.188 767.299 127.362 767.492 127.477C767.685 127.586 768.016 127.641 768.484 127.641H770C770.927 127.641 771.638 127.836 772.133 128.227C772.633 128.617 772.883 129.185 772.883 129.93C772.883 130.878 772.503 131.599 771.742 132.094C770.982 132.594 769.872 132.844 768.414 132.844C767.294 132.844 766.43 132.635 765.82 132.219C765.216 131.802 764.914 131.214 764.914 130.453C764.914 129.932 765.081 129.482 765.414 129.102C765.747 128.721 766.216 128.464 766.82 128.328C766.602 128.229 766.417 128.076 766.266 127.867C766.12 127.659 766.047 127.417 766.047 127.141C766.047 126.828 766.13 126.555 766.297 126.32C766.464 126.086 766.727 125.859 767.086 125.641C766.643 125.458 766.281 125.148 766 124.711C765.724 124.273 765.586 123.773 765.586 123.211C765.586 122.273 765.867 121.552 766.43 121.047C766.992 120.536 767.789 120.281 768.82 120.281C769.268 120.281 769.672 120.333 770.031 120.438H772.992ZM766.164 130.438C766.164 130.901 766.359 131.253 766.75 131.492C767.141 131.732 767.701 131.852 768.43 131.852C769.518 131.852 770.323 131.688 770.844 131.359C771.37 131.036 771.633 130.596 771.633 130.039C771.633 129.576 771.49 129.253 771.203 129.07C770.917 128.893 770.378 128.805 769.586 128.805H768.031C767.443 128.805 766.984 128.945 766.656 129.227C766.328 129.508 766.164 129.911 766.164 130.438ZM766.867 123.18C766.867 123.779 767.036 124.232 767.375 124.539C767.714 124.846 768.185 125 768.789 125C770.055 125 770.688 124.385 770.688 123.156C770.688 121.87 770.047 121.227 768.766 121.227C768.156 121.227 767.688 121.391 767.359 121.719C767.031 122.047 766.867 122.534 766.867 123.18Z" fill="#C0C0C1"/>
<path d="M511.492 129H509.977L503.734 119.414H503.672C503.755 120.539 503.797 121.57 503.797 122.508V129H502.57V117.578H504.07L510.297 127.125H510.359C510.349 126.984 510.326 126.534 510.289 125.773C510.253 125.008 510.24 124.461 510.25 124.133V117.578H511.492V129ZM521.828 124.711C521.828 126.107 521.477 127.198 520.773 127.984C520.07 128.766 519.099 129.156 517.859 129.156C517.094 129.156 516.414 128.977 515.82 128.617C515.227 128.258 514.768 127.742 514.445 127.07C514.122 126.398 513.961 125.612 513.961 124.711C513.961 123.315 514.31 122.229 515.008 121.453C515.706 120.672 516.674 120.281 517.914 120.281C519.112 120.281 520.062 120.68 520.766 121.477C521.474 122.273 521.828 123.352 521.828 124.711ZM515.305 124.711C515.305 125.805 515.523 126.638 515.961 127.211C516.398 127.784 517.042 128.07 517.891 128.07C518.74 128.07 519.383 127.786 519.82 127.219C520.263 126.646 520.484 125.81 520.484 124.711C520.484 123.622 520.263 122.797 519.82 122.234C519.383 121.667 518.734 121.383 517.875 121.383C517.026 121.383 516.385 121.661 515.953 122.219C515.521 122.776 515.305 123.607 515.305 124.711Z" fill="#C0C0C1"/>
<path d="M505.477 197.289L508.523 191.578H509.961L506.148 198.57V203H504.805V198.633L501 191.578H502.453L505.477 197.289ZM514.961 203.156C513.695 203.156 512.695 202.771 511.961 202C511.232 201.229 510.867 200.159 510.867 198.789C510.867 197.409 511.206 196.312 511.883 195.5C512.565 194.688 513.479 194.281 514.625 194.281C515.698 194.281 516.547 194.635 517.172 195.344C517.797 196.047 518.109 196.977 518.109 198.133V198.953H512.211C512.237 199.958 512.49 200.721 512.969 201.242C513.453 201.763 514.133 202.023 515.008 202.023C515.93 202.023 516.841 201.831 517.742 201.445V202.602C517.284 202.799 516.849 202.94 516.438 203.023C516.031 203.112 515.539 203.156 514.961 203.156ZM514.609 195.367C513.922 195.367 513.372 195.591 512.961 196.039C512.555 196.487 512.315 197.107 512.242 197.898H516.719C516.719 197.081 516.536 196.456 516.172 196.023C515.807 195.586 515.286 195.367 514.609 195.367ZM525.852 200.664C525.852 201.461 525.555 202.076 524.961 202.508C524.367 202.94 523.534 203.156 522.461 203.156C521.326 203.156 520.44 202.977 519.805 202.617V201.414C520.216 201.622 520.656 201.786 521.125 201.906C521.599 202.026 522.055 202.086 522.492 202.086C523.169 202.086 523.69 201.979 524.055 201.766C524.419 201.547 524.602 201.216 524.602 200.773C524.602 200.44 524.456 200.156 524.164 199.922C523.878 199.682 523.315 199.401 522.477 199.078C521.68 198.781 521.112 198.523 520.773 198.305C520.44 198.081 520.19 197.828 520.023 197.547C519.862 197.266 519.781 196.93 519.781 196.539C519.781 195.841 520.065 195.292 520.633 194.891C521.201 194.484 521.979 194.281 522.969 194.281C523.891 194.281 524.792 194.469 525.672 194.844L525.211 195.898C524.352 195.544 523.573 195.367 522.875 195.367C522.26 195.367 521.797 195.464 521.484 195.656C521.172 195.849 521.016 196.115 521.016 196.453C521.016 196.682 521.073 196.878 521.188 197.039C521.307 197.201 521.497 197.354 521.758 197.5C522.018 197.646 522.518 197.857 523.258 198.133C524.273 198.503 524.958 198.875 525.312 199.25C525.672 199.625 525.852 200.096 525.852 200.664Z" fill="#C0C0C1"/>
<path d="M505.477 271.289L508.523 265.578H509.961L506.148 272.57V277H504.805V272.633L501 265.578H502.453L505.477 271.289ZM514.961 277.156C513.695 277.156 512.695 276.771 511.961 276C511.232 275.229 510.867 274.159 510.867 272.789C510.867 271.409 511.206 270.312 511.883 269.5C512.565 268.688 513.479 268.281 514.625 268.281C515.698 268.281 516.547 268.635 517.172 269.344C517.797 270.047 518.109 270.977 518.109 272.133V272.953H512.211C512.237 273.958 512.49 274.721 512.969 275.242C513.453 275.763 514.133 276.023 515.008 276.023C515.93 276.023 516.841 275.831 517.742 275.445V276.602C517.284 276.799 516.849 276.94 516.438 277.023C516.031 277.112 515.539 277.156 514.961 277.156ZM514.609 269.367C513.922 269.367 513.372 269.591 512.961 270.039C512.555 270.487 512.315 271.107 512.242 271.898H516.719C516.719 271.081 516.536 270.456 516.172 270.023C515.807 269.586 515.286 269.367 514.609 269.367ZM525.852 274.664C525.852 275.461 525.555 276.076 524.961 276.508C524.367 276.94 523.534 277.156 522.461 277.156C521.326 277.156 520.44 276.977 519.805 276.617V275.414C520.216 275.622 520.656 275.786 521.125 275.906C521.599 276.026 522.055 276.086 522.492 276.086C523.169 276.086 523.69 275.979 524.055 275.766C524.419 275.547 524.602 275.216 524.602 274.773C524.602 274.44 524.456 274.156 524.164 273.922C523.878 273.682 523.315 273.401 522.477 273.078C521.68 272.781 521.112 272.523 520.773 272.305C520.44 272.081 520.19 271.828 520.023 271.547C519.862 271.266 519.781 270.93 519.781 270.539C519.781 269.841 520.065 269.292 520.633 268.891C521.201 268.484 521.979 268.281 522.969 268.281C523.891 268.281 524.792 268.469 525.672 268.844L525.211 269.898C524.352 269.544 523.573 269.367 522.875 269.367C522.26 269.367 521.797 269.464 521.484 269.656C521.172 269.849 521.016 270.115 521.016 270.453C521.016 270.682 521.073 270.878 521.188 271.039C521.307 271.201 521.497 271.354 521.758 271.5C522.018 271.646 522.518 271.857 523.258 272.133C524.273 272.503 524.958 272.875 525.312 273.25C525.672 273.625 525.852 274.096 525.852 274.664Z" fill="#C0C0C1"/>
<path d="M511.492 351H509.977L503.734 341.414H503.672C503.755 342.539 503.797 343.57 503.797 344.508V351H502.57V339.578H504.07L510.297 349.125H510.359C510.349 348.984 510.326 348.534 510.289 347.773C510.253 347.008 510.24 346.461 510.25 346.133V339.578H511.492V351ZM521.828 346.711C521.828 348.107 521.477 349.198 520.773 349.984C520.07 350.766 519.099 351.156 517.859 351.156C517.094 351.156 516.414 350.977 515.82 350.617C515.227 350.258 514.768 349.742 514.445 349.07C514.122 348.398 513.961 347.612 513.961 346.711C513.961 345.315 514.31 344.229 515.008 343.453C515.706 342.672 516.674 342.281 517.914 342.281C519.112 342.281 520.062 342.68 520.766 343.477C521.474 344.273 521.828 345.352 521.828 346.711ZM515.305 346.711C515.305 347.805 515.523 348.638 515.961 349.211C516.398 349.784 517.042 350.07 517.891 350.07C518.74 350.07 519.383 349.786 519.82 349.219C520.263 348.646 520.484 347.81 520.484 346.711C520.484 345.622 520.263 344.797 519.82 344.234C519.383 343.667 518.734 343.383 517.875 343.383C517.026 343.383 516.385 343.661 515.953 344.219C515.521 344.776 515.305 345.607 515.305 346.711Z" fill="#C0C0C1"/>
<path d="M717.57 203V191.578H718.898V203H717.57ZM727.703 203V197.461C727.703 196.763 727.544 196.242 727.227 195.898C726.909 195.555 726.411 195.383 725.734 195.383C724.839 195.383 724.182 195.625 723.766 196.109C723.349 196.594 723.141 197.393 723.141 198.508V203H721.844V194.438H722.898L723.109 195.609H723.172C723.438 195.188 723.81 194.862 724.289 194.633C724.768 194.398 725.302 194.281 725.891 194.281C726.922 194.281 727.698 194.531 728.219 195.031C728.74 195.526 729 196.32 729 197.414V203H727.703ZM734.438 202.086C734.667 202.086 734.888 202.07 735.102 202.039C735.315 202.003 735.484 201.966 735.609 201.93V202.922C735.469 202.99 735.26 203.044 734.984 203.086C734.714 203.133 734.469 203.156 734.25 203.156C732.594 203.156 731.766 202.284 731.766 200.539V195.445H730.539V194.82L731.766 194.281L732.312 192.453H733.062V194.438H735.547V195.445H733.062V200.484C733.062 201 733.185 201.396 733.43 201.672C733.674 201.948 734.01 202.086 734.438 202.086ZM740.945 203.156C739.68 203.156 738.68 202.771 737.945 202C737.216 201.229 736.852 200.159 736.852 198.789C736.852 197.409 737.19 196.312 737.867 195.5C738.549 194.688 739.464 194.281 740.609 194.281C741.682 194.281 742.531 194.635 743.156 195.344C743.781 196.047 744.094 196.977 744.094 198.133V198.953H738.195C738.221 199.958 738.474 200.721 738.953 201.242C739.438 201.763 740.117 202.023 740.992 202.023C741.914 202.023 742.826 201.831 743.727 201.445V202.602C743.268 202.799 742.833 202.94 742.422 203.023C742.016 203.112 741.523 203.156 740.945 203.156ZM740.594 195.367C739.906 195.367 739.357 195.591 738.945 196.039C738.539 196.487 738.299 197.107 738.227 197.898H742.703C742.703 197.081 742.521 196.456 742.156 196.023C741.792 195.586 741.271 195.367 740.594 195.367ZM750.219 194.281C750.599 194.281 750.94 194.312 751.242 194.375L751.062 195.578C750.708 195.5 750.396 195.461 750.125 195.461C749.432 195.461 748.839 195.742 748.344 196.305C747.854 196.867 747.609 197.568 747.609 198.406V203H746.312V194.438H747.383L747.531 196.023H747.594C747.911 195.466 748.294 195.036 748.742 194.734C749.19 194.432 749.682 194.281 750.219 194.281ZM756.461 203.156C755.195 203.156 754.195 202.771 753.461 202C752.732 201.229 752.367 200.159 752.367 198.789C752.367 197.409 752.706 196.312 753.383 195.5C754.065 194.688 754.979 194.281 756.125 194.281C757.198 194.281 758.047 194.635 758.672 195.344C759.297 196.047 759.609 196.977 759.609 198.133V198.953H753.711C753.737 199.958 753.99 200.721 754.469 201.242C754.953 201.763 755.633 202.023 756.508 202.023C757.43 202.023 758.341 201.831 759.242 201.445V202.602C758.784 202.799 758.349 202.94 757.938 203.023C757.531 203.112 757.039 203.156 756.461 203.156ZM756.109 195.367C755.422 195.367 754.872 195.591 754.461 196.039C754.055 196.487 753.815 197.107 753.742 197.898H758.219C758.219 197.081 758.036 196.456 757.672 196.023C757.307 195.586 756.786 195.367 756.109 195.367ZM767.352 200.664C767.352 201.461 767.055 202.076 766.461 202.508C765.867 202.94 765.034 203.156 763.961 203.156C762.826 203.156 761.94 202.977 761.305 202.617V201.414C761.716 201.622 762.156 201.786 762.625 201.906C763.099 202.026 763.555 202.086 763.992 202.086C764.669 202.086 765.19 201.979 765.555 201.766C765.919 201.547 766.102 201.216 766.102 200.773C766.102 200.44 765.956 200.156 765.664 199.922C765.378 199.682 764.815 199.401 763.977 199.078C763.18 198.781 762.612 198.523 762.273 198.305C761.94 198.081 761.69 197.828 761.523 197.547C761.362 197.266 761.281 196.93 761.281 196.539C761.281 195.841 761.565 195.292 762.133 194.891C762.701 194.484 763.479 194.281 764.469 194.281C765.391 194.281 766.292 194.469 767.172 194.844L766.711 195.898C765.852 195.544 765.073 195.367 764.375 195.367C763.76 195.367 763.297 195.464 762.984 195.656C762.672 195.849 762.516 196.115 762.516 196.453C762.516 196.682 762.573 196.878 762.688 197.039C762.807 197.201 762.997 197.354 763.258 197.5C763.518 197.646 764.018 197.857 764.758 198.133C765.773 198.503 766.458 198.875 766.812 199.25C767.172 199.625 767.352 200.096 767.352 200.664ZM772.234 202.086C772.464 202.086 772.685 202.07 772.898 202.039C773.112 202.003 773.281 201.966 773.406 201.93V202.922C773.266 202.99 773.057 203.044 772.781 203.086C772.51 203.133 772.266 203.156 772.047 203.156C770.391 203.156 769.562 202.284 769.562 200.539V195.445H768.336V194.82L769.562 194.281L770.109 192.453H770.859V194.438H773.344V195.445H770.859V200.484C770.859 201 770.982 201.396 771.227 201.672C771.471 201.948 771.807 202.086 772.234 202.086Z" fill="#C0C0C1"/>
<path d="M718.898 277H717.57V265.578H723.938V266.758H718.898V270.938H723.633V272.117H718.898V277ZM726.859 268.438V273.992C726.859 274.69 727.018 275.211 727.336 275.555C727.654 275.898 728.151 276.07 728.828 276.07C729.724 276.07 730.378 275.826 730.789 275.336C731.206 274.846 731.414 274.047 731.414 272.938V268.438H732.711V277H731.641L731.453 275.852H731.383C731.117 276.273 730.747 276.596 730.273 276.82C729.805 277.044 729.268 277.156 728.664 277.156C727.622 277.156 726.841 276.909 726.32 276.414C725.805 275.919 725.547 275.128 725.547 274.039V268.438H726.859ZM741.328 277V271.461C741.328 270.763 741.169 270.242 740.852 269.898C740.534 269.555 740.036 269.383 739.359 269.383C738.464 269.383 737.807 269.625 737.391 270.109C736.974 270.594 736.766 271.393 736.766 272.508V277H735.469V268.438H736.523L736.734 269.609H736.797C737.062 269.188 737.435 268.862 737.914 268.633C738.393 268.398 738.927 268.281 739.516 268.281C740.547 268.281 741.323 268.531 741.844 269.031C742.365 269.526 742.625 270.32 742.625 271.414V277H741.328ZM751.125 275.852H751.055C750.456 276.721 749.56 277.156 748.367 277.156C747.247 277.156 746.375 276.773 745.75 276.008C745.13 275.242 744.82 274.154 744.82 272.742C744.82 271.331 745.133 270.234 745.758 269.453C746.383 268.672 747.253 268.281 748.367 268.281C749.529 268.281 750.419 268.703 751.039 269.547H751.141L751.086 268.93L751.055 268.328V264.844H752.352V277H751.297L751.125 275.852ZM748.531 276.07C749.417 276.07 750.057 275.831 750.453 275.352C750.854 274.867 751.055 274.089 751.055 273.016V272.742C751.055 271.529 750.852 270.664 750.445 270.148C750.044 269.628 749.401 269.367 748.516 269.367C747.755 269.367 747.172 269.664 746.766 270.258C746.365 270.846 746.164 271.68 746.164 272.758C746.164 273.852 746.365 274.677 746.766 275.234C747.167 275.792 747.755 276.07 748.531 276.07ZM756.406 277H755.109V268.438H756.406V277ZM755 266.117C755 265.82 755.073 265.604 755.219 265.469C755.365 265.328 755.547 265.258 755.766 265.258C755.974 265.258 756.154 265.328 756.305 265.469C756.456 265.609 756.531 265.826 756.531 266.117C756.531 266.409 756.456 266.628 756.305 266.773C756.154 266.914 755.974 266.984 755.766 266.984C755.547 266.984 755.365 266.914 755.219 266.773C755.073 266.628 755 266.409 755 266.117ZM765.016 277V271.461C765.016 270.763 764.857 270.242 764.539 269.898C764.221 269.555 763.724 269.383 763.047 269.383C762.151 269.383 761.495 269.625 761.078 270.109C760.661 270.594 760.453 271.393 760.453 272.508V277H759.156V268.438H760.211L760.422 269.609H760.484C760.75 269.188 761.122 268.862 761.602 268.633C762.081 268.398 762.615 268.281 763.203 268.281C764.234 268.281 765.01 268.531 765.531 269.031C766.052 269.526 766.312 270.32 766.312 271.414V277H765.016ZM775.992 268.438V269.258L774.406 269.445C774.552 269.628 774.682 269.867 774.797 270.164C774.911 270.456 774.969 270.786 774.969 271.156C774.969 271.995 774.682 272.664 774.109 273.164C773.536 273.664 772.75 273.914 771.75 273.914C771.495 273.914 771.255 273.893 771.031 273.852C770.479 274.143 770.203 274.51 770.203 274.953C770.203 275.188 770.299 275.362 770.492 275.477C770.685 275.586 771.016 275.641 771.484 275.641H773C773.927 275.641 774.638 275.836 775.133 276.227C775.633 276.617 775.883 277.185 775.883 277.93C775.883 278.878 775.503 279.599 774.742 280.094C773.982 280.594 772.872 280.844 771.414 280.844C770.294 280.844 769.43 280.635 768.82 280.219C768.216 279.802 767.914 279.214 767.914 278.453C767.914 277.932 768.081 277.482 768.414 277.102C768.747 276.721 769.216 276.464 769.82 276.328C769.602 276.229 769.417 276.076 769.266 275.867C769.12 275.659 769.047 275.417 769.047 275.141C769.047 274.828 769.13 274.555 769.297 274.32C769.464 274.086 769.727 273.859 770.086 273.641C769.643 273.458 769.281 273.148 769 272.711C768.724 272.273 768.586 271.773 768.586 271.211C768.586 270.273 768.867 269.552 769.43 269.047C769.992 268.536 770.789 268.281 771.82 268.281C772.268 268.281 772.672 268.333 773.031 268.438H775.992ZM769.164 278.438C769.164 278.901 769.359 279.253 769.75 279.492C770.141 279.732 770.701 279.852 771.43 279.852C772.518 279.852 773.323 279.688 773.844 279.359C774.37 279.036 774.633 278.596 774.633 278.039C774.633 277.576 774.49 277.253 774.203 277.07C773.917 276.893 773.378 276.805 772.586 276.805H771.031C770.443 276.805 769.984 276.945 769.656 277.227C769.328 277.508 769.164 277.911 769.164 278.438ZM769.867 271.18C769.867 271.779 770.036 272.232 770.375 272.539C770.714 272.846 771.185 273 771.789 273C773.055 273 773.688 272.385 773.688 271.156C773.688 269.87 773.047 269.227 771.766 269.227C771.156 269.227 770.688 269.391 770.359 269.719C770.031 270.047 769.867 270.534 769.867 271.18Z" fill="#C0C0C1"/>
<path d="M724.812 342.906C724.812 344.062 724.417 344.953 723.625 345.578C722.839 346.198 721.711 346.508 720.242 346.508H718.898V351H717.57V339.578H720.531C723.385 339.578 724.812 340.688 724.812 342.906ZM718.898 345.367H720.094C721.271 345.367 722.122 345.177 722.648 344.797C723.174 344.417 723.438 343.807 723.438 342.969C723.438 342.214 723.19 341.651 722.695 341.281C722.201 340.911 721.43 340.727 720.383 340.727H718.898V345.367ZM730.922 342.281C731.302 342.281 731.643 342.312 731.945 342.375L731.766 343.578C731.411 343.5 731.099 343.461 730.828 343.461C730.135 343.461 729.542 343.742 729.047 344.305C728.557 344.867 728.312 345.568 728.312 346.406V351H727.016V342.438H728.086L728.234 344.023H728.297C728.615 343.466 728.997 343.036 729.445 342.734C729.893 342.432 730.385 342.281 730.922 342.281ZM737.164 351.156C735.898 351.156 734.898 350.771 734.164 350C733.435 349.229 733.07 348.159 733.07 346.789C733.07 345.409 733.409 344.312 734.086 343.5C734.768 342.688 735.682 342.281 736.828 342.281C737.901 342.281 738.75 342.635 739.375 343.344C740 344.047 740.312 344.977 740.312 346.133V346.953H734.414C734.44 347.958 734.693 348.721 735.172 349.242C735.656 349.763 736.336 350.023 737.211 350.023C738.133 350.023 739.044 349.831 739.945 349.445V350.602C739.487 350.799 739.052 350.94 738.641 351.023C738.234 351.112 737.742 351.156 737.164 351.156ZM736.812 343.367C736.125 343.367 735.576 343.591 735.164 344.039C734.758 344.487 734.518 345.107 734.445 345.898H738.922C738.922 345.081 738.74 344.456 738.375 344.023C738.01 343.586 737.49 343.367 736.812 343.367ZM753.445 351V345.43C753.445 344.747 753.299 344.237 753.008 343.898C752.716 343.555 752.263 343.383 751.648 343.383C750.841 343.383 750.245 343.615 749.859 344.078C749.474 344.542 749.281 345.255 749.281 346.219V351H747.984V345.43C747.984 344.747 747.839 344.237 747.547 343.898C747.255 343.555 746.799 343.383 746.18 343.383C745.367 343.383 744.771 343.628 744.391 344.117C744.016 344.602 743.828 345.398 743.828 346.508V351H742.531V342.438H743.586L743.797 343.609H743.859C744.104 343.193 744.448 342.867 744.891 342.633C745.339 342.398 745.839 342.281 746.391 342.281C747.729 342.281 748.604 342.766 749.016 343.734H749.078C749.333 343.286 749.703 342.932 750.188 342.672C750.672 342.411 751.224 342.281 751.844 342.281C752.812 342.281 753.536 342.531 754.016 343.031C754.5 343.526 754.742 344.32 754.742 345.414V351H753.445ZM758.719 351H757.422V342.438H758.719V351ZM757.312 340.117C757.312 339.82 757.385 339.604 757.531 339.469C757.677 339.328 757.859 339.258 758.078 339.258C758.286 339.258 758.466 339.328 758.617 339.469C758.768 339.609 758.844 339.826 758.844 340.117C758.844 340.409 758.768 340.628 758.617 340.773C758.466 340.914 758.286 340.984 758.078 340.984C757.859 340.984 757.677 340.914 757.531 340.773C757.385 340.628 757.312 340.409 757.312 340.117ZM762.688 342.438V347.992C762.688 348.69 762.846 349.211 763.164 349.555C763.482 349.898 763.979 350.07 764.656 350.07C765.552 350.07 766.206 349.826 766.617 349.336C767.034 348.846 767.242 348.047 767.242 346.938V342.438H768.539V351H767.469L767.281 349.852H767.211C766.945 350.273 766.576 350.596 766.102 350.82C765.633 351.044 765.096 351.156 764.492 351.156C763.451 351.156 762.669 350.909 762.148 350.414C761.633 349.919 761.375 349.128 761.375 348.039V342.438H762.688ZM782.211 351V345.43C782.211 344.747 782.065 344.237 781.773 343.898C781.482 343.555 781.029 343.383 780.414 343.383C779.607 343.383 779.01 343.615 778.625 344.078C778.24 344.542 778.047 345.255 778.047 346.219V351H776.75V345.43C776.75 344.747 776.604 344.237 776.312 343.898C776.021 343.555 775.565 343.383 774.945 343.383C774.133 343.383 773.536 343.628 773.156 344.117C772.781 344.602 772.594 345.398 772.594 346.508V351H771.297V342.438H772.352L772.562 343.609H772.625C772.87 343.193 773.214 342.867 773.656 342.633C774.104 342.398 774.604 342.281 775.156 342.281C776.495 342.281 777.37 342.766 777.781 343.734H777.844C778.099 343.286 778.469 342.932 778.953 342.672C779.438 342.411 779.99 342.281 780.609 342.281C781.578 342.281 782.302 342.531 782.781 343.031C783.266 343.526 783.508 344.32 783.508 345.414V351H782.211Z" fill="#C0C0C1"/>
<path d="M259.508 68V56.5781H261.375V66.3984H266.211V68H259.508ZM275.648 63.6641C275.648 65.0755 275.286 66.1771 274.562 66.9688C273.839 67.7604 272.831 68.1562 271.539 68.1562C270.732 68.1562 270.018 67.974 269.398 67.6094C268.779 67.2448 268.302 66.7214 267.969 66.0391C267.635 65.3568 267.469 64.5651 267.469 63.6641C267.469 62.263 267.828 61.1693 268.547 60.3828C269.266 59.5964 270.279 59.2031 271.586 59.2031C272.836 59.2031 273.826 59.6068 274.555 60.4141C275.284 61.2161 275.648 62.2995 275.648 63.6641ZM269.359 63.6641C269.359 65.6589 270.096 66.6562 271.57 66.6562C273.029 66.6562 273.758 65.6589 273.758 63.6641C273.758 61.6901 273.023 60.7031 271.555 60.7031C270.784 60.7031 270.224 60.9583 269.875 61.4688C269.531 61.9792 269.359 62.7109 269.359 63.6641ZM285.367 68H283.523V62.6875C283.523 62.0208 283.388 61.5234 283.117 61.1953C282.852 60.8672 282.427 60.7031 281.844 60.7031C281.068 60.7031 280.5 60.9323 280.141 61.3906C279.781 61.849 279.602 62.6172 279.602 63.6953V68H277.766V59.3594H279.203L279.461 60.4922H279.555C279.815 60.0807 280.185 59.763 280.664 59.5391C281.143 59.3151 281.674 59.2031 282.258 59.2031C284.331 59.2031 285.367 60.2578 285.367 62.3672V68ZM295.219 59.3594V60.3672L293.742 60.6406C293.878 60.8229 293.99 61.0469 294.078 61.3125C294.167 61.5781 294.211 61.8594 294.211 62.1562C294.211 63.0469 293.904 63.7474 293.289 64.2578C292.674 64.7682 291.828 65.0234 290.75 65.0234C290.474 65.0234 290.224 65.0026 290 64.9609C289.604 65.2057 289.406 65.4922 289.406 65.8203C289.406 66.0182 289.497 66.1667 289.68 66.2656C289.867 66.3646 290.208 66.4141 290.703 66.4141H292.211C293.164 66.4141 293.888 66.6172 294.383 67.0234C294.878 67.4297 295.125 68.0156 295.125 68.7812C295.125 69.7604 294.721 70.5156 293.914 71.0469C293.107 71.5781 291.94 71.8438 290.414 71.8438C289.237 71.8438 288.339 71.6354 287.719 71.2188C287.099 70.8021 286.789 70.2083 286.789 69.4375C286.789 68.9062 286.956 68.4583 287.289 68.0938C287.628 67.7344 288.099 67.4844 288.703 67.3438C288.458 67.2396 288.255 67.0729 288.094 66.8438C287.938 66.6094 287.859 66.3646 287.859 66.1094C287.859 65.7865 287.951 65.513 288.133 65.2891C288.315 65.0651 288.586 64.8438 288.945 64.625C288.497 64.4323 288.133 64.1198 287.852 63.6875C287.576 63.25 287.438 62.7396 287.438 62.1562C287.438 61.2188 287.732 60.4922 288.32 59.9766C288.914 59.4609 289.758 59.2031 290.852 59.2031C291.096 59.2031 291.352 59.2214 291.617 59.2578C291.888 59.2891 292.091 59.3229 292.227 59.3594H295.219ZM288.43 69.3438C288.43 69.7396 288.607 70.0443 288.961 70.2578C289.32 70.4714 289.823 70.5781 290.469 70.5781C291.469 70.5781 292.214 70.4349 292.703 70.1484C293.193 69.862 293.438 69.4818 293.438 69.0078C293.438 68.6328 293.302 68.3646 293.031 68.2031C292.766 68.0469 292.268 67.9688 291.539 67.9688H290.148C289.622 67.9688 289.203 68.0911 288.891 68.3359C288.583 68.5859 288.43 68.9219 288.43 69.3438ZM289.219 62.1562C289.219 62.6979 289.357 63.1146 289.633 63.4062C289.914 63.6979 290.315 63.8438 290.836 63.8438C291.898 63.8438 292.43 63.276 292.43 62.1406C292.43 61.5781 292.297 61.1458 292.031 60.8438C291.771 60.5365 291.372 60.3828 290.836 60.3828C290.305 60.3828 289.901 60.5339 289.625 60.8359C289.354 61.138 289.219 61.5781 289.219 62.1562ZM308.742 60.0312C308.742 61.224 308.352 62.138 307.57 62.7734C306.789 63.4089 305.677 63.7266 304.234 63.7266H303.047V68H301.18V56.5781H304.469C305.896 56.5781 306.964 56.8698 307.672 57.4531C308.385 58.0365 308.742 58.8958 308.742 60.0312ZM303.047 62.1562H304.039C304.997 62.1562 305.701 61.9896 306.148 61.6562C306.596 61.3229 306.82 60.8021 306.82 60.0938C306.82 59.4375 306.62 58.9479 306.219 58.625C305.818 58.3021 305.193 58.1406 304.344 58.1406H303.047V62.1562ZM316.234 68L315.867 66.7969H315.805C315.388 67.3229 314.969 67.6823 314.547 67.875C314.125 68.0625 313.583 68.1562 312.922 68.1562C312.073 68.1562 311.409 67.9271 310.93 67.4688C310.456 67.0104 310.219 66.362 310.219 65.5234C310.219 64.6328 310.549 63.9609 311.211 63.5078C311.872 63.0547 312.88 62.8073 314.234 62.7656L315.727 62.7188V62.2578C315.727 61.7057 315.596 61.2943 315.336 61.0234C315.081 60.7474 314.682 60.6094 314.141 60.6094C313.698 60.6094 313.273 60.6745 312.867 60.8047C312.461 60.9349 312.07 61.0885 311.695 61.2656L311.102 59.9531C311.57 59.7083 312.083 59.5234 312.641 59.3984C313.198 59.2682 313.724 59.2031 314.219 59.2031C315.318 59.2031 316.146 59.4427 316.703 59.9219C317.266 60.401 317.547 61.1536 317.547 62.1797V68H316.234ZM313.5 66.75C314.167 66.75 314.701 66.5651 315.102 66.1953C315.508 65.8203 315.711 65.2969 315.711 64.625V63.875L314.602 63.9219C313.737 63.9531 313.107 64.099 312.711 64.3594C312.32 64.6146 312.125 65.0078 312.125 65.5391C312.125 65.9245 312.24 66.224 312.469 66.4375C312.698 66.6458 313.042 66.75 313.5 66.75ZM318.797 59.3594H320.797L322.555 64.2578C322.82 64.9557 322.997 65.612 323.086 66.2266H323.148C323.195 65.9401 323.281 65.5938 323.406 65.1875C323.531 64.776 324.193 62.8333 325.391 59.3594H327.375L323.68 69.1484C323.008 70.9453 321.888 71.8438 320.32 71.8438C319.914 71.8438 319.518 71.7995 319.133 71.7109V70.2578C319.409 70.3203 319.724 70.3516 320.078 70.3516C320.964 70.3516 321.586 69.8385 321.945 68.8125L322.266 68L318.797 59.3594ZM336.352 63.6641C336.352 65.0755 335.99 66.1771 335.266 66.9688C334.542 67.7604 333.534 68.1562 332.242 68.1562C331.435 68.1562 330.721 67.974 330.102 67.6094C329.482 67.2448 329.005 66.7214 328.672 66.0391C328.339 65.3568 328.172 64.5651 328.172 63.6641C328.172 62.263 328.531 61.1693 329.25 60.3828C329.969 59.5964 330.982 59.2031 332.289 59.2031C333.539 59.2031 334.529 59.6068 335.258 60.4141C335.987 61.2161 336.352 62.2995 336.352 63.6641ZM330.062 63.6641C330.062 65.6589 330.799 66.6562 332.273 66.6562C333.732 66.6562 334.461 65.6589 334.461 63.6641C334.461 61.6901 333.727 60.7031 332.258 60.7031C331.487 60.7031 330.927 60.9583 330.578 61.4688C330.234 61.9792 330.062 62.7109 330.062 63.6641ZM342.805 60.75H340.695V68H338.852V60.75H337.43V59.8906L338.852 59.3281V58.7656C338.852 57.7448 339.091 56.9896 339.57 56.5C340.049 56.0052 340.781 55.7578 341.766 55.7578C342.411 55.7578 343.047 55.8646 343.672 56.0781L343.188 57.4688C342.734 57.3229 342.302 57.25 341.891 57.25C341.474 57.25 341.169 57.3802 340.977 57.6406C340.789 57.8958 340.695 58.2812 340.695 58.7969V59.3594H342.805V60.75ZM348.609 60.75H346.5V68H344.656V60.75H343.234V59.8906L344.656 59.3281V58.7656C344.656 57.7448 344.896 56.9896 345.375 56.5C345.854 56.0052 346.586 55.7578 347.57 55.7578C348.216 55.7578 348.852 55.8646 349.477 56.0781L348.992 57.4688C348.539 57.3229 348.107 57.25 347.695 57.25C347.279 57.25 346.974 57.3802 346.781 57.6406C346.594 57.8958 346.5 58.2812 346.5 58.7969V59.3594H348.609V60.75Z" fill="#C0C0C1"/>
<path d="M465.508 68V56.5781H467.375V66.3984H472.211V68H465.508ZM475.82 68H473.984V59.3594H475.82V68ZM473.875 57.0703C473.875 56.7422 473.964 56.4896 474.141 56.3125C474.323 56.1354 474.581 56.0469 474.914 56.0469C475.237 56.0469 475.487 56.1354 475.664 56.3125C475.846 56.4896 475.938 56.7422 475.938 57.0703C475.938 57.3828 475.846 57.6302 475.664 57.8125C475.487 57.9896 475.237 58.0781 474.914 58.0781C474.581 58.0781 474.323 57.9896 474.141 57.8125C473.964 57.6302 473.875 57.3828 473.875 57.0703ZM481.875 66.6875C482.646 66.6875 483.198 66.4661 483.531 66.0234C483.87 65.5755 484.039 64.901 484.039 64V63.7109C484.039 62.6432 483.865 61.875 483.516 61.4062C483.172 60.9375 482.615 60.7031 481.844 60.7031C481.188 60.7031 480.688 60.9635 480.344 61.4844C480 62.0052 479.828 62.7526 479.828 63.7266C479.828 65.7005 480.51 66.6875 481.875 66.6875ZM481.352 68.1562C480.284 68.1562 479.448 67.7656 478.844 66.9844C478.24 66.1979 477.938 65.1016 477.938 63.6953C477.938 62.2891 478.245 61.1901 478.859 60.3984C479.474 59.6016 480.32 59.2031 481.398 59.2031C481.94 59.2031 482.424 59.3047 482.852 59.5078C483.284 59.7057 483.669 60.0339 484.008 60.4922H484.07L484.273 59.3594H485.797V71.8438H483.953V68.1797C483.953 67.9505 483.964 67.7083 483.984 67.4531C484.005 67.1979 484.023 67.0026 484.039 66.8672H483.938C483.396 67.7266 482.534 68.1562 481.352 68.1562ZM494.516 68L494.258 66.8672H494.164C493.909 67.2682 493.544 67.5833 493.07 67.8125C492.602 68.0417 492.065 68.1562 491.461 68.1562C490.414 68.1562 489.633 67.8958 489.117 67.375C488.602 66.8542 488.344 66.0651 488.344 65.0078V59.3594H490.195V64.6875C490.195 65.349 490.331 65.8464 490.602 66.1797C490.872 66.5078 491.297 66.6719 491.875 66.6719C492.646 66.6719 493.211 66.4427 493.57 65.9844C493.935 65.5208 494.117 64.7474 494.117 63.6641V59.3594H495.961V68H494.516ZM500.414 68H498.578V59.3594H500.414V68ZM498.469 57.0703C498.469 56.7422 498.557 56.4896 498.734 56.3125C498.917 56.1354 499.174 56.0469 499.508 56.0469C499.831 56.0469 500.081 56.1354 500.258 56.3125C500.44 56.4896 500.531 56.7422 500.531 57.0703C500.531 57.3828 500.44 57.6302 500.258 57.8125C500.081 57.9896 499.831 58.0781 499.508 58.0781C499.174 58.0781 498.917 57.9896 498.734 57.8125C498.557 57.6302 498.469 57.3828 498.469 57.0703ZM505.961 68.1562C504.883 68.1562 504.042 67.7656 503.438 66.9844C502.833 66.2031 502.531 65.1068 502.531 63.6953C502.531 62.2786 502.836 61.1771 503.445 60.3906C504.06 59.599 504.909 59.2031 505.992 59.2031C507.128 59.2031 507.992 59.6224 508.586 60.4609H508.68C508.591 59.8411 508.547 59.3516 508.547 58.9922V55.8438H510.391V68H508.953L508.633 66.8672H508.547C507.958 67.7266 507.096 68.1562 505.961 68.1562ZM506.453 66.6719C507.208 66.6719 507.758 66.4609 508.102 66.0391C508.445 65.612 508.622 64.9219 508.633 63.9688V63.7109C508.633 62.6224 508.456 61.849 508.102 61.3906C507.747 60.9323 507.193 60.7031 506.438 60.7031C505.792 60.7031 505.294 60.9661 504.945 61.4922C504.596 62.013 504.422 62.7578 504.422 63.7266C504.422 64.6849 504.591 65.4167 504.93 65.9219C505.268 66.4219 505.776 66.6719 506.453 66.6719ZM518.422 68L518.055 66.7969H517.992C517.576 67.3229 517.156 67.6823 516.734 67.875C516.312 68.0625 515.771 68.1562 515.109 68.1562C514.26 68.1562 513.596 67.9271 513.117 67.4688C512.643 67.0104 512.406 66.362 512.406 65.5234C512.406 64.6328 512.737 63.9609 513.398 63.5078C514.06 63.0547 515.068 62.8073 516.422 62.7656L517.914 62.7188V62.2578C517.914 61.7057 517.784 61.2943 517.523 61.0234C517.268 60.7474 516.87 60.6094 516.328 60.6094C515.885 60.6094 515.461 60.6745 515.055 60.8047C514.648 60.9349 514.258 61.0885 513.883 61.2656L513.289 59.9531C513.758 59.7083 514.271 59.5234 514.828 59.3984C515.385 59.2682 515.911 59.2031 516.406 59.2031C517.505 59.2031 518.333 59.4427 518.891 59.9219C519.453 60.401 519.734 61.1536 519.734 62.1797V68H518.422ZM515.688 66.75C516.354 66.75 516.888 66.5651 517.289 66.1953C517.695 65.8203 517.898 65.2969 517.898 64.625V63.875L516.789 63.9219C515.924 63.9531 515.294 64.099 514.898 64.3594C514.508 64.6146 514.312 65.0078 514.312 65.5391C514.312 65.9245 514.427 66.224 514.656 66.4375C514.885 66.6458 515.229 66.75 515.688 66.75ZM525.516 66.6719C525.964 66.6719 526.411 66.6016 526.859 66.4609V67.8438C526.656 67.9323 526.393 68.0052 526.07 68.0625C525.753 68.125 525.422 68.1562 525.078 68.1562C523.339 68.1562 522.469 67.2396 522.469 65.4062V60.75H521.289V59.9375L522.555 59.2656L523.18 57.4375H524.312V59.3594H526.773V60.75H524.312V65.375C524.312 65.8177 524.422 66.1458 524.641 66.3594C524.865 66.5677 525.156 66.6719 525.516 66.6719ZM530.43 68H528.594V59.3594H530.43V68ZM528.484 57.0703C528.484 56.7422 528.573 56.4896 528.75 56.3125C528.932 56.1354 529.19 56.0469 529.523 56.0469C529.846 56.0469 530.096 56.1354 530.273 56.3125C530.456 56.4896 530.547 56.7422 530.547 57.0703C530.547 57.3828 530.456 57.6302 530.273 57.8125C530.096 57.9896 529.846 58.0781 529.523 58.0781C529.19 58.0781 528.932 57.9896 528.75 57.8125C528.573 57.6302 528.484 57.3828 528.484 57.0703ZM540.727 63.6641C540.727 65.0755 540.365 66.1771 539.641 66.9688C538.917 67.7604 537.909 68.1562 536.617 68.1562C535.81 68.1562 535.096 67.974 534.477 67.6094C533.857 67.2448 533.38 66.7214 533.047 66.0391C532.714 65.3568 532.547 64.5651 532.547 63.6641C532.547 62.263 532.906 61.1693 533.625 60.3828C534.344 59.5964 535.357 59.2031 536.664 59.2031C537.914 59.2031 538.904 59.6068 539.633 60.4141C540.362 61.2161 540.727 62.2995 540.727 63.6641ZM534.438 63.6641C534.438 65.6589 535.174 66.6562 536.648 66.6562C538.107 66.6562 538.836 65.6589 538.836 63.6641C538.836 61.6901 538.102 60.7031 536.633 60.7031C535.862 60.7031 535.302 60.9583 534.953 61.4688C534.609 61.9792 534.438 62.7109 534.438 63.6641ZM550.445 68H548.602V62.6875C548.602 62.0208 548.466 61.5234 548.195 61.1953C547.93 60.8672 547.505 60.7031 546.922 60.7031C546.146 60.7031 545.578 60.9323 545.219 61.3906C544.859 61.849 544.68 62.6172 544.68 63.6953V68H542.844V59.3594H544.281L544.539 60.4922H544.633C544.893 60.0807 545.263 59.763 545.742 59.5391C546.221 59.3151 546.753 59.2031 547.336 59.2031C549.409 59.2031 550.445 60.2578 550.445 62.3672V68ZM558.805 65.5391C558.805 66.3828 558.497 67.0312 557.883 67.4844C557.268 67.9323 556.388 68.1562 555.242 68.1562C554.091 68.1562 553.167 67.9818 552.469 67.6328V66.0469C553.484 66.5156 554.43 66.75 555.305 66.75C556.435 66.75 557 66.4089 557 65.7266C557 65.5078 556.938 65.3255 556.812 65.1797C556.688 65.0339 556.482 64.8828 556.195 64.7266C555.909 64.5703 555.51 64.3932 555 64.1953C554.005 63.8099 553.331 63.4245 552.977 63.0391C552.628 62.6536 552.453 62.1536 552.453 61.5391C552.453 60.7995 552.75 60.2266 553.344 59.8203C553.943 59.4089 554.755 59.2031 555.781 59.2031C556.797 59.2031 557.758 59.4089 558.664 59.8203L558.07 61.2031C557.138 60.8177 556.354 60.625 555.719 60.625C554.75 60.625 554.266 60.901 554.266 61.4531C554.266 61.724 554.391 61.9531 554.641 62.1406C554.896 62.3281 555.448 62.5859 556.297 62.9141C557.01 63.1901 557.529 63.4427 557.852 63.6719C558.174 63.901 558.414 64.1667 558.57 64.4688C558.727 64.7656 558.805 65.1224 558.805 65.5391Z" fill="#C0C0C1"/>
<path d="M725.07 60.0312C725.07 61.224 724.68 62.138 723.898 62.7734C723.117 63.4089 722.005 63.7266 720.562 63.7266H719.375V68H717.508V56.5781H720.797C722.224 56.5781 723.292 56.8698 724 57.4531C724.714 58.0365 725.07 58.8958 725.07 60.0312ZM719.375 62.1562H720.367C721.326 62.1562 722.029 61.9896 722.477 61.6562C722.924 61.3229 723.148 60.8021 723.148 60.0938C723.148 59.4375 722.948 58.9479 722.547 58.625C722.146 58.3021 721.521 58.1406 720.672 58.1406H719.375V62.1562ZM732.562 68L732.195 66.7969H732.133C731.716 67.3229 731.297 67.6823 730.875 67.875C730.453 68.0625 729.911 68.1562 729.25 68.1562C728.401 68.1562 727.737 67.9271 727.258 67.4688C726.784 67.0104 726.547 66.362 726.547 65.5234C726.547 64.6328 726.878 63.9609 727.539 63.5078C728.201 63.0547 729.208 62.8073 730.562 62.7656L732.055 62.7188V62.2578C732.055 61.7057 731.924 61.2943 731.664 61.0234C731.409 60.7474 731.01 60.6094 730.469 60.6094C730.026 60.6094 729.602 60.6745 729.195 60.8047C728.789 60.9349 728.398 61.0885 728.023 61.2656L727.43 59.9531C727.898 59.7083 728.411 59.5234 728.969 59.3984C729.526 59.2682 730.052 59.2031 730.547 59.2031C731.646 59.2031 732.474 59.4427 733.031 59.9219C733.594 60.401 733.875 61.1536 733.875 62.1797V68H732.562ZM729.828 66.75C730.495 66.75 731.029 66.5651 731.43 66.1953C731.836 65.8203 732.039 65.2969 732.039 64.625V63.875L730.93 63.9219C730.065 63.9531 729.435 64.099 729.039 64.3594C728.648 64.6146 728.453 65.0078 728.453 65.5391C728.453 65.9245 728.568 66.224 728.797 66.4375C729.026 66.6458 729.37 66.75 729.828 66.75ZM735.125 59.3594H737.125L738.883 64.2578C739.148 64.9557 739.326 65.612 739.414 66.2266H739.477C739.523 65.9401 739.609 65.5938 739.734 65.1875C739.859 64.776 740.521 62.8333 741.719 59.3594H743.703L740.008 69.1484C739.336 70.9453 738.216 71.8438 736.648 71.8438C736.242 71.8438 735.846 71.7995 735.461 71.7109V70.2578C735.737 70.3203 736.052 70.3516 736.406 70.3516C737.292 70.3516 737.914 69.8385 738.273 68.8125L738.594 68L735.125 59.3594ZM752.297 68H750.453V62.6719C750.453 62.0104 750.328 61.5182 750.078 61.1953C749.828 60.8672 749.438 60.7031 748.906 60.7031C748.198 60.7031 747.677 60.9349 747.344 61.3984C747.016 61.8568 746.852 62.6224 746.852 63.6953V68H745.016V59.3594H746.453L746.711 60.4922H746.805C747.044 60.0807 747.391 59.763 747.844 59.5391C748.302 59.3151 748.805 59.2031 749.352 59.2031C750.68 59.2031 751.56 59.6562 751.992 60.5625H752.117C752.372 60.1354 752.732 59.8021 753.195 59.5625C753.659 59.3229 754.19 59.2031 754.789 59.2031C755.82 59.2031 756.57 59.4635 757.039 59.9844C757.513 60.5052 757.75 61.2995 757.75 62.3672V68H755.914V62.6719C755.914 62.0104 755.786 61.5182 755.531 61.1953C755.281 60.8672 754.891 60.7031 754.359 60.7031C753.646 60.7031 753.122 60.9271 752.789 61.375C752.461 61.8177 752.297 62.5 752.297 63.4219V68ZM764.086 68.1562C762.742 68.1562 761.69 67.7656 760.93 66.9844C760.174 66.1979 759.797 65.1172 759.797 63.7422C759.797 62.3307 760.148 61.2214 760.852 60.4141C761.555 59.6068 762.521 59.2031 763.75 59.2031C764.891 59.2031 765.792 59.5495 766.453 60.2422C767.115 60.9349 767.445 61.888 767.445 63.1016V64.0938H761.688C761.714 64.9323 761.94 65.5781 762.367 66.0312C762.794 66.4792 763.396 66.7031 764.172 66.7031C764.682 66.7031 765.156 66.6562 765.594 66.5625C766.036 66.4635 766.51 66.3021 767.016 66.0781V67.5703C766.568 67.7839 766.115 67.9349 765.656 68.0234C765.198 68.112 764.674 68.1562 764.086 68.1562ZM763.75 60.5938C763.167 60.5938 762.698 60.7786 762.344 61.1484C761.995 61.5182 761.786 62.0573 761.719 62.7656H765.641C765.63 62.0521 765.458 61.513 765.125 61.1484C764.792 60.7786 764.333 60.5938 763.75 60.5938ZM777.133 68H775.289V62.6875C775.289 62.0208 775.154 61.5234 774.883 61.1953C774.617 60.8672 774.193 60.7031 773.609 60.7031C772.833 60.7031 772.266 60.9323 771.906 61.3906C771.547 61.849 771.367 62.6172 771.367 63.6953V68H769.531V59.3594H770.969L771.227 60.4922H771.32C771.581 60.0807 771.951 59.763 772.43 59.5391C772.909 59.3151 773.44 59.2031 774.023 59.2031C776.096 59.2031 777.133 60.2578 777.133 62.3672V68ZM782.906 66.6719C783.354 66.6719 783.802 66.6016 784.25 66.4609V67.8438C784.047 67.9323 783.784 68.0052 783.461 68.0625C783.143 68.125 782.812 68.1562 782.469 68.1562C780.729 68.1562 779.859 67.2396 779.859 65.4062V60.75H778.68V59.9375L779.945 59.2656L780.57 57.4375H781.703V59.3594H784.164V60.75H781.703V65.375C781.703 65.8177 781.812 66.1458 782.031 66.3594C782.255 66.5677 782.547 66.6719 782.906 66.6719Z" fill="#C0C0C1"/>
<path d="M68.4453 203H60.7031V201.609L63.6484 198.648C64.5182 197.758 65.0938 197.128 65.375 196.758C65.6615 196.383 65.8698 196.031 66 195.703C66.1302 195.375 66.1953 195.023 66.1953 194.648C66.1953 194.133 66.0391 193.727 65.7266 193.43C65.4193 193.133 64.9922 192.984 64.4453 192.984C64.0078 192.984 63.5833 193.065 63.1719 193.227C62.7656 193.388 62.2943 193.68 61.7578 194.102L60.7656 192.891C61.401 192.354 62.0182 191.974 62.6172 191.75C63.2161 191.526 63.8542 191.414 64.5312 191.414C65.5938 191.414 66.4453 191.693 67.0859 192.25C67.7266 192.802 68.0469 193.547 68.0469 194.484C68.0469 195 67.9531 195.49 67.7656 195.953C67.5833 196.417 67.2995 196.896 66.9141 197.391C66.5339 197.88 65.8984 198.544 65.0078 199.383L63.0234 201.305V201.383H68.4453V203ZM72.375 198.586L69.4766 194.359H71.5703L73.5391 197.383L75.5234 194.359H77.6016L74.6953 198.586L77.75 203H75.6719L73.5391 199.766L71.4141 203H69.3359L72.375 198.586ZM83.6172 203V191.578H85.4844V201.398H90.3203V203H83.6172ZM95.8672 203.156C94.5234 203.156 93.4714 202.766 92.7109 201.984C91.9557 201.198 91.5781 200.117 91.5781 198.742C91.5781 197.331 91.9297 196.221 92.6328 195.414C93.3359 194.607 94.3021 194.203 95.5312 194.203C96.6719 194.203 97.5729 194.549 98.2344 195.242C98.8958 195.935 99.2266 196.888 99.2266 198.102V199.094H93.4688C93.4948 199.932 93.7214 200.578 94.1484 201.031C94.5755 201.479 95.1771 201.703 95.9531 201.703C96.4635 201.703 96.9375 201.656 97.375 201.562C97.8177 201.464 98.2917 201.302 98.7969 201.078V202.57C98.349 202.784 97.8958 202.935 97.4375 203.023C96.9792 203.112 96.4557 203.156 95.8672 203.156ZM95.5312 195.594C94.9479 195.594 94.4792 195.779 94.125 196.148C93.776 196.518 93.5677 197.057 93.5 197.766H97.4219C97.4115 197.052 97.2396 196.513 96.9062 196.148C96.5729 195.779 96.1146 195.594 95.5312 195.594ZM103.281 203L100 194.359H101.938L103.695 199.383C103.997 200.227 104.18 200.909 104.242 201.43H104.305C104.352 201.055 104.534 200.372 104.852 199.383L106.609 194.359H108.562L105.266 203H103.281ZM113.648 203.156C112.305 203.156 111.253 202.766 110.492 201.984C109.737 201.198 109.359 200.117 109.359 198.742C109.359 197.331 109.711 196.221 110.414 195.414C111.117 194.607 112.083 194.203 113.312 194.203C114.453 194.203 115.354 194.549 116.016 195.242C116.677 195.935 117.008 196.888 117.008 198.102V199.094H111.25C111.276 199.932 111.503 200.578 111.93 201.031C112.357 201.479 112.958 201.703 113.734 201.703C114.245 201.703 114.719 201.656 115.156 201.562C115.599 201.464 116.073 201.302 116.578 201.078V202.57C116.13 202.784 115.677 202.935 115.219 203.023C114.76 203.112 114.237 203.156 113.648 203.156ZM113.312 195.594C112.729 195.594 112.26 195.779 111.906 196.148C111.557 196.518 111.349 197.057 111.281 197.766H115.203C115.193 197.052 115.021 196.513 114.688 196.148C114.354 195.779 113.896 195.594 113.312 195.594ZM123.477 194.203C123.846 194.203 124.151 194.229 124.391 194.281L124.211 195.992C123.951 195.93 123.68 195.898 123.398 195.898C122.664 195.898 122.068 196.138 121.609 196.617C121.156 197.096 120.93 197.719 120.93 198.484V203H119.094V194.359H120.531L120.773 195.883H120.867C121.154 195.367 121.526 194.958 121.984 194.656C122.448 194.354 122.945 194.203 123.477 194.203ZM131.406 203L131.039 201.797H130.977C130.56 202.323 130.141 202.682 129.719 202.875C129.297 203.062 128.755 203.156 128.094 203.156C127.245 203.156 126.581 202.927 126.102 202.469C125.628 202.01 125.391 201.362 125.391 200.523C125.391 199.633 125.721 198.961 126.383 198.508C127.044 198.055 128.052 197.807 129.406 197.766L130.898 197.719V197.258C130.898 196.706 130.768 196.294 130.508 196.023C130.253 195.747 129.854 195.609 129.312 195.609C128.87 195.609 128.445 195.674 128.039 195.805C127.633 195.935 127.242 196.089 126.867 196.266L126.273 194.953C126.742 194.708 127.255 194.523 127.812 194.398C128.37 194.268 128.896 194.203 129.391 194.203C130.49 194.203 131.318 194.443 131.875 194.922C132.438 195.401 132.719 196.154 132.719 197.18V203H131.406ZM128.672 201.75C129.339 201.75 129.872 201.565 130.273 201.195C130.68 200.82 130.883 200.297 130.883 199.625V198.875L129.773 198.922C128.909 198.953 128.279 199.099 127.883 199.359C127.492 199.615 127.297 200.008 127.297 200.539C127.297 200.924 127.411 201.224 127.641 201.438C127.87 201.646 128.214 201.75 128.672 201.75ZM142.578 194.359V195.367L141.102 195.641C141.237 195.823 141.349 196.047 141.438 196.312C141.526 196.578 141.57 196.859 141.57 197.156C141.57 198.047 141.263 198.747 140.648 199.258C140.034 199.768 139.188 200.023 138.109 200.023C137.833 200.023 137.583 200.003 137.359 199.961C136.964 200.206 136.766 200.492 136.766 200.82C136.766 201.018 136.857 201.167 137.039 201.266C137.227 201.365 137.568 201.414 138.062 201.414H139.57C140.523 201.414 141.247 201.617 141.742 202.023C142.237 202.43 142.484 203.016 142.484 203.781C142.484 204.76 142.081 205.516 141.273 206.047C140.466 206.578 139.299 206.844 137.773 206.844C136.596 206.844 135.698 206.635 135.078 206.219C134.458 205.802 134.148 205.208 134.148 204.438C134.148 203.906 134.315 203.458 134.648 203.094C134.987 202.734 135.458 202.484 136.062 202.344C135.818 202.24 135.615 202.073 135.453 201.844C135.297 201.609 135.219 201.365 135.219 201.109C135.219 200.786 135.31 200.513 135.492 200.289C135.674 200.065 135.945 199.844 136.305 199.625C135.857 199.432 135.492 199.12 135.211 198.688C134.935 198.25 134.797 197.74 134.797 197.156C134.797 196.219 135.091 195.492 135.68 194.977C136.273 194.461 137.117 194.203 138.211 194.203C138.456 194.203 138.711 194.221 138.977 194.258C139.247 194.289 139.451 194.323 139.586 194.359H142.578ZM135.789 204.344C135.789 204.74 135.966 205.044 136.32 205.258C136.68 205.471 137.182 205.578 137.828 205.578C138.828 205.578 139.573 205.435 140.062 205.148C140.552 204.862 140.797 204.482 140.797 204.008C140.797 203.633 140.661 203.365 140.391 203.203C140.125 203.047 139.628 202.969 138.898 202.969H137.508C136.982 202.969 136.562 203.091 136.25 203.336C135.943 203.586 135.789 203.922 135.789 204.344ZM136.578 197.156C136.578 197.698 136.716 198.115 136.992 198.406C137.273 198.698 137.674 198.844 138.195 198.844C139.258 198.844 139.789 198.276 139.789 197.141C139.789 196.578 139.656 196.146 139.391 195.844C139.13 195.536 138.732 195.383 138.195 195.383C137.664 195.383 137.26 195.534 136.984 195.836C136.714 196.138 136.578 196.578 136.578 197.156ZM147.961 203.156C146.617 203.156 145.565 202.766 144.805 201.984C144.049 201.198 143.672 200.117 143.672 198.742C143.672 197.331 144.023 196.221 144.727 195.414C145.43 194.607 146.396 194.203 147.625 194.203C148.766 194.203 149.667 194.549 150.328 195.242C150.99 195.935 151.32 196.888 151.32 198.102V199.094H145.562C145.589 199.932 145.815 200.578 146.242 201.031C146.669 201.479 147.271 201.703 148.047 201.703C148.557 201.703 149.031 201.656 149.469 201.562C149.911 201.464 150.385 201.302 150.891 201.078V202.57C150.443 202.784 149.99 202.935 149.531 203.023C149.073 203.112 148.549 203.156 147.961 203.156ZM147.625 195.594C147.042 195.594 146.573 195.779 146.219 196.148C145.87 196.518 145.661 197.057 145.594 197.766H149.516C149.505 197.052 149.333 196.513 149 196.148C148.667 195.779 148.208 195.594 147.625 195.594Z" fill="#C0C0C1"/>
<path d="M69.0703 269.031C69.0703 270.224 68.6797 271.138 67.8984 271.773C67.1172 272.409 66.0052 272.727 64.5625 272.727H63.375V277H61.5078V265.578H64.7969C66.224 265.578 67.2917 265.87 68 266.453C68.7135 267.036 69.0703 267.896 69.0703 269.031ZM63.375 271.156H64.3672C65.3255 271.156 66.0286 270.99 66.4766 270.656C66.9245 270.323 67.1484 269.802 67.1484 269.094C67.1484 268.438 66.9479 267.948 66.5469 267.625C66.1458 267.302 65.5208 267.141 64.6719 267.141H63.375V271.156ZM74.9297 277.156C73.5859 277.156 72.5339 276.766 71.7734 275.984C71.0182 275.198 70.6406 274.117 70.6406 272.742C70.6406 271.331 70.9922 270.221 71.6953 269.414C72.3984 268.607 73.3646 268.203 74.5938 268.203C75.7344 268.203 76.6354 268.549 77.2969 269.242C77.9583 269.935 78.2891 270.888 78.2891 272.102V273.094H72.5312C72.5573 273.932 72.7839 274.578 73.2109 275.031C73.638 275.479 74.2396 275.703 75.0156 275.703C75.526 275.703 76 275.656 76.4375 275.562C76.8802 275.464 77.3542 275.302 77.8594 275.078V276.57C77.4115 276.784 76.9583 276.935 76.5 277.023C76.0417 277.112 75.5182 277.156 74.9297 277.156ZM74.5938 269.594C74.0104 269.594 73.5417 269.779 73.1875 270.148C72.8385 270.518 72.6302 271.057 72.5625 271.766H76.4844C76.474 271.052 76.3021 270.513 75.9688 270.148C75.6354 269.779 75.1771 269.594 74.5938 269.594ZM84.7578 268.203C85.1276 268.203 85.4323 268.229 85.6719 268.281L85.4922 269.992C85.2318 269.93 84.9609 269.898 84.6797 269.898C83.9453 269.898 83.349 270.138 82.8906 270.617C82.4375 271.096 82.2109 271.719 82.2109 272.484V277H80.375V268.359H81.8125L82.0547 269.883H82.1484C82.4349 269.367 82.8073 268.958 83.2656 268.656C83.7292 268.354 84.2266 268.203 84.7578 268.203ZM91.6641 277.156C90.5703 277.156 89.7214 276.763 89.1172 275.977H89.0078C89.0807 276.706 89.1172 277.148 89.1172 277.305V280.844H87.2812V268.359H88.7656C88.8073 268.521 88.8932 268.906 89.0234 269.516H89.1172C89.6901 268.641 90.5495 268.203 91.6953 268.203C92.7734 268.203 93.612 268.594 94.2109 269.375C94.8151 270.156 95.1172 271.253 95.1172 272.664C95.1172 274.076 94.8099 275.177 94.1953 275.969C93.5859 276.76 92.7422 277.156 91.6641 277.156ZM91.2188 269.703C90.4896 269.703 89.9557 269.917 89.6172 270.344C89.2839 270.771 89.1172 271.453 89.1172 272.391V272.664C89.1172 273.716 89.2839 274.479 89.6172 274.953C89.9505 275.422 90.4948 275.656 91.25 275.656C91.8854 275.656 92.375 275.396 92.7188 274.875C93.0625 274.354 93.2344 273.612 93.2344 272.648C93.2344 271.68 93.0625 270.948 92.7188 270.453C92.3802 269.953 91.8802 269.703 91.2188 269.703ZM101.023 277.156C99.6797 277.156 98.6276 276.766 97.8672 275.984C97.112 275.198 96.7344 274.117 96.7344 272.742C96.7344 271.331 97.0859 270.221 97.7891 269.414C98.4922 268.607 99.4583 268.203 100.688 268.203C101.828 268.203 102.729 268.549 103.391 269.242C104.052 269.935 104.383 270.888 104.383 272.102V273.094H98.625C98.651 273.932 98.8776 274.578 99.3047 275.031C99.7318 275.479 100.333 275.703 101.109 275.703C101.62 275.703 102.094 275.656 102.531 275.562C102.974 275.464 103.448 275.302 103.953 275.078V276.57C103.505 276.784 103.052 276.935 102.594 277.023C102.135 277.112 101.612 277.156 101.023 277.156ZM100.688 269.594C100.104 269.594 99.6354 269.779 99.2812 270.148C98.9323 270.518 98.724 271.057 98.6562 271.766H102.578C102.568 271.052 102.396 270.513 102.062 270.148C101.729 269.779 101.271 269.594 100.688 269.594ZM109.688 275.672C110.135 275.672 110.583 275.602 111.031 275.461V276.844C110.828 276.932 110.565 277.005 110.242 277.062C109.924 277.125 109.594 277.156 109.25 277.156C107.51 277.156 106.641 276.24 106.641 274.406V269.75H105.461V268.938L106.727 268.266L107.352 266.438H108.484V268.359H110.945V269.75H108.484V274.375C108.484 274.818 108.594 275.146 108.812 275.359C109.036 275.568 109.328 275.672 109.688 275.672ZM118.859 277L118.602 275.867H118.508C118.253 276.268 117.888 276.583 117.414 276.812C116.945 277.042 116.409 277.156 115.805 277.156C114.758 277.156 113.977 276.896 113.461 276.375C112.945 275.854 112.688 275.065 112.688 274.008V268.359H114.539V273.688C114.539 274.349 114.674 274.846 114.945 275.18C115.216 275.508 115.641 275.672 116.219 275.672C116.99 275.672 117.555 275.443 117.914 274.984C118.279 274.521 118.461 273.747 118.461 272.664V268.359H120.305V277H118.859ZM128.328 277L127.961 275.797H127.898C127.482 276.323 127.062 276.682 126.641 276.875C126.219 277.062 125.677 277.156 125.016 277.156C124.167 277.156 123.503 276.927 123.023 276.469C122.549 276.01 122.312 275.362 122.312 274.523C122.312 273.633 122.643 272.961 123.305 272.508C123.966 272.055 124.974 271.807 126.328 271.766L127.82 271.719V271.258C127.82 270.706 127.69 270.294 127.43 270.023C127.174 269.747 126.776 269.609 126.234 269.609C125.792 269.609 125.367 269.674 124.961 269.805C124.555 269.935 124.164 270.089 123.789 270.266L123.195 268.953C123.664 268.708 124.177 268.523 124.734 268.398C125.292 268.268 125.818 268.203 126.312 268.203C127.411 268.203 128.24 268.443 128.797 268.922C129.359 269.401 129.641 270.154 129.641 271.18V277H128.328ZM125.594 275.75C126.26 275.75 126.794 275.565 127.195 275.195C127.602 274.82 127.805 274.297 127.805 273.625V272.875L126.695 272.922C125.831 272.953 125.201 273.099 124.805 273.359C124.414 273.615 124.219 274.008 124.219 274.539C124.219 274.924 124.333 275.224 124.562 275.438C124.792 275.646 125.135 275.75 125.594 275.75ZM134.039 277H132.203V264.844H134.039V277ZM147.609 273.898C147.609 274.914 147.242 275.711 146.508 276.289C145.773 276.867 144.76 277.156 143.469 277.156C142.177 277.156 141.12 276.956 140.297 276.555V274.789C140.818 275.034 141.37 275.227 141.953 275.367C142.542 275.508 143.089 275.578 143.594 275.578C144.333 275.578 144.878 275.438 145.227 275.156C145.581 274.875 145.758 274.497 145.758 274.023C145.758 273.596 145.596 273.234 145.273 272.938C144.951 272.641 144.284 272.289 143.273 271.883C142.232 271.461 141.497 270.979 141.07 270.438C140.643 269.896 140.43 269.245 140.43 268.484C140.43 267.531 140.768 266.781 141.445 266.234C142.122 265.688 143.031 265.414 144.172 265.414C145.266 265.414 146.354 265.654 147.438 266.133L146.844 267.656C145.828 267.229 144.922 267.016 144.125 267.016C143.521 267.016 143.062 267.148 142.75 267.414C142.438 267.674 142.281 268.021 142.281 268.453C142.281 268.75 142.344 269.005 142.469 269.219C142.594 269.427 142.799 269.625 143.086 269.812C143.372 270 143.888 270.247 144.633 270.555C145.471 270.904 146.086 271.229 146.477 271.531C146.867 271.833 147.154 272.174 147.336 272.555C147.518 272.935 147.609 273.383 147.609 273.898ZM156.711 277L155.594 272.969C155.458 272.542 155.214 271.549 154.859 269.992H154.789C154.487 271.398 154.247 272.396 154.07 272.984L152.922 277H150.891L148.469 268.359H150.344L151.445 272.617C151.695 273.669 151.872 274.57 151.977 275.32H152.023C152.076 274.94 152.154 274.505 152.258 274.016C152.367 273.521 152.461 273.151 152.539 272.906L153.852 268.359H155.867L157.141 272.906C157.219 273.161 157.315 273.552 157.43 274.078C157.549 274.604 157.62 275.013 157.641 275.305H157.703C157.781 274.664 157.964 273.768 158.25 272.617L159.367 268.359H161.211L158.773 277H156.711ZM168.109 277L167.742 275.797H167.68C167.263 276.323 166.844 276.682 166.422 276.875C166 277.062 165.458 277.156 164.797 277.156C163.948 277.156 163.284 276.927 162.805 276.469C162.331 276.01 162.094 275.362 162.094 274.523C162.094 273.633 162.424 272.961 163.086 272.508C163.747 272.055 164.755 271.807 166.109 271.766L167.602 271.719V271.258C167.602 270.706 167.471 270.294 167.211 270.023C166.956 269.747 166.557 269.609 166.016 269.609C165.573 269.609 165.148 269.674 164.742 269.805C164.336 269.935 163.945 270.089 163.57 270.266L162.977 268.953C163.445 268.708 163.958 268.523 164.516 268.398C165.073 268.268 165.599 268.203 166.094 268.203C167.193 268.203 168.021 268.443 168.578 268.922C169.141 269.401 169.422 270.154 169.422 271.18V277H168.109ZM165.375 275.75C166.042 275.75 166.576 275.565 166.977 275.195C167.383 274.82 167.586 274.297 167.586 273.625V272.875L166.477 272.922C165.612 272.953 164.982 273.099 164.586 273.359C164.195 273.615 164 274.008 164 274.539C164 274.924 164.115 275.224 164.344 275.438C164.573 275.646 164.917 275.75 165.375 275.75ZM176.367 277.156C175.273 277.156 174.424 276.763 173.82 275.977H173.711C173.784 276.706 173.82 277.148 173.82 277.305V280.844H171.984V268.359H173.469C173.51 268.521 173.596 268.906 173.727 269.516H173.82C174.393 268.641 175.253 268.203 176.398 268.203C177.477 268.203 178.315 268.594 178.914 269.375C179.518 270.156 179.82 271.253 179.82 272.664C179.82 274.076 179.513 275.177 178.898 275.969C178.289 276.76 177.445 277.156 176.367 277.156ZM175.922 269.703C175.193 269.703 174.659 269.917 174.32 270.344C173.987 270.771 173.82 271.453 173.82 272.391V272.664C173.82 273.716 173.987 274.479 174.32 274.953C174.654 275.422 175.198 275.656 175.953 275.656C176.589 275.656 177.078 275.396 177.422 274.875C177.766 274.354 177.938 273.612 177.938 272.648C177.938 271.68 177.766 270.948 177.422 270.453C177.083 269.953 176.583 269.703 175.922 269.703Z" fill="#C0C0C1"/>
<path d="M66.3672 341.016C65.2943 341.016 64.4505 341.396 63.8359 342.156C63.2214 342.917 62.9141 343.966 62.9141 345.305C62.9141 346.706 63.2083 347.766 63.7969 348.484C64.3906 349.203 65.2474 349.562 66.3672 349.562C66.8516 349.562 67.3203 349.516 67.7734 349.422C68.2266 349.323 68.6979 349.198 69.1875 349.047V350.648C68.2917 350.987 67.276 351.156 66.1406 351.156C64.4688 351.156 63.1849 350.651 62.2891 349.641C61.3932 348.625 60.9453 347.174 60.9453 345.289C60.9453 344.102 61.1615 343.062 61.5938 342.172C62.0312 341.281 62.6615 340.599 63.4844 340.125C64.3073 339.651 65.2734 339.414 66.3828 339.414C67.5495 339.414 68.6276 339.659 69.6172 340.148L68.9453 341.703C68.5599 341.521 68.151 341.362 67.7188 341.227C67.2917 341.086 66.8411 341.016 66.3672 341.016ZM76.8594 351L76.4922 349.797H76.4297C76.013 350.323 75.5938 350.682 75.1719 350.875C74.75 351.062 74.2083 351.156 73.5469 351.156C72.6979 351.156 72.0339 350.927 71.5547 350.469C71.0807 350.01 70.8438 349.362 70.8438 348.523C70.8438 347.633 71.1745 346.961 71.8359 346.508C72.4974 346.055 73.5052 345.807 74.8594 345.766L76.3516 345.719V345.258C76.3516 344.706 76.2214 344.294 75.9609 344.023C75.7057 343.747 75.3073 343.609 74.7656 343.609C74.3229 343.609 73.8984 343.674 73.4922 343.805C73.0859 343.935 72.6953 344.089 72.3203 344.266L71.7266 342.953C72.1953 342.708 72.7083 342.523 73.2656 342.398C73.8229 342.268 74.349 342.203 74.8438 342.203C75.9427 342.203 76.7708 342.443 77.3281 342.922C77.8906 343.401 78.1719 344.154 78.1719 345.18V351H76.8594ZM74.125 349.75C74.7917 349.75 75.3255 349.565 75.7266 349.195C76.1328 348.82 76.3359 348.297 76.3359 347.625V346.875L75.2266 346.922C74.362 346.953 73.7318 347.099 73.3359 347.359C72.9453 347.615 72.75 348.008 72.75 348.539C72.75 348.924 72.8646 349.224 73.0938 349.438C73.3229 349.646 73.6667 349.75 74.125 349.75ZM82.5703 351H80.7344V338.844H82.5703V351ZM87.0391 351H85.2031V338.844H87.0391V351ZM104.164 345.273C104.164 347.133 103.698 348.578 102.766 349.609C101.839 350.641 100.523 351.156 98.8203 351.156C97.0964 351.156 95.7708 350.646 94.8438 349.625C93.9219 348.599 93.4609 347.143 93.4609 345.258C93.4609 343.372 93.9245 341.924 94.8516 340.914C95.7839 339.904 97.112 339.398 98.8359 339.398C100.534 339.398 101.846 339.911 102.773 340.938C103.701 341.964 104.164 343.409 104.164 345.273ZM95.4453 345.273C95.4453 346.68 95.7292 347.747 96.2969 348.477C96.8646 349.201 97.7057 349.562 98.8203 349.562C99.9297 349.562 100.766 349.203 101.328 348.484C101.896 347.766 102.18 346.695 102.18 345.273C102.18 343.872 101.898 342.81 101.336 342.086C100.779 341.362 99.9453 341 98.8359 341C97.7161 341 96.8698 341.362 96.2969 342.086C95.7292 342.81 95.4453 343.872 95.4453 345.273ZM110.805 351.156C109.711 351.156 108.862 350.763 108.258 349.977H108.148C108.221 350.706 108.258 351.148 108.258 351.305V354.844H106.422V342.359H107.906C107.948 342.521 108.034 342.906 108.164 343.516H108.258C108.831 342.641 109.69 342.203 110.836 342.203C111.914 342.203 112.753 342.594 113.352 343.375C113.956 344.156 114.258 345.253 114.258 346.664C114.258 348.076 113.951 349.177 113.336 349.969C112.727 350.76 111.883 351.156 110.805 351.156ZM110.359 343.703C109.63 343.703 109.096 343.917 108.758 344.344C108.424 344.771 108.258 345.453 108.258 346.391V346.664C108.258 347.716 108.424 348.479 108.758 348.953C109.091 349.422 109.635 349.656 110.391 349.656C111.026 349.656 111.516 349.396 111.859 348.875C112.203 348.354 112.375 347.612 112.375 346.648C112.375 345.68 112.203 344.948 111.859 344.453C111.521 343.953 111.021 343.703 110.359 343.703ZM119.609 349.672C120.057 349.672 120.505 349.602 120.953 349.461V350.844C120.75 350.932 120.487 351.005 120.164 351.062C119.846 351.125 119.516 351.156 119.172 351.156C117.432 351.156 116.562 350.24 116.562 348.406V343.75H115.383V342.938L116.648 342.266L117.273 340.438H118.406V342.359H120.867V343.75H118.406V348.375C118.406 348.818 118.516 349.146 118.734 349.359C118.958 349.568 119.25 349.672 119.609 349.672ZM124.523 351H122.688V342.359H124.523V351ZM122.578 340.07C122.578 339.742 122.667 339.49 122.844 339.312C123.026 339.135 123.284 339.047 123.617 339.047C123.94 339.047 124.19 339.135 124.367 339.312C124.549 339.49 124.641 339.742 124.641 340.07C124.641 340.383 124.549 340.63 124.367 340.812C124.19 340.99 123.94 341.078 123.617 341.078C123.284 341.078 123.026 340.99 122.844 340.812C122.667 340.63 122.578 340.383 122.578 340.07ZM134.82 346.664C134.82 348.076 134.458 349.177 133.734 349.969C133.01 350.76 132.003 351.156 130.711 351.156C129.904 351.156 129.19 350.974 128.57 350.609C127.951 350.245 127.474 349.721 127.141 349.039C126.807 348.357 126.641 347.565 126.641 346.664C126.641 345.263 127 344.169 127.719 343.383C128.438 342.596 129.451 342.203 130.758 342.203C132.008 342.203 132.997 342.607 133.727 343.414C134.456 344.216 134.82 345.299 134.82 346.664ZM128.531 346.664C128.531 348.659 129.268 349.656 130.742 349.656C132.201 349.656 132.93 348.659 132.93 346.664C132.93 344.69 132.195 343.703 130.727 343.703C129.956 343.703 129.396 343.958 129.047 344.469C128.703 344.979 128.531 345.711 128.531 346.664ZM144.539 351H142.695V345.688C142.695 345.021 142.56 344.523 142.289 344.195C142.023 343.867 141.599 343.703 141.016 343.703C140.24 343.703 139.672 343.932 139.312 344.391C138.953 344.849 138.773 345.617 138.773 346.695V351H136.938V342.359H138.375L138.633 343.492H138.727C138.987 343.081 139.357 342.763 139.836 342.539C140.315 342.315 140.846 342.203 141.43 342.203C143.503 342.203 144.539 343.258 144.539 345.367V351Z" fill="#C0C0C1"/>
<line x1="209.5" y1="96" x2="209.5" y2="376" stroke="#C0C0C1" stroke-opacity="0.51"/>
<line x1="407.5" y1="96" x2="407.5" y2="376" stroke="#C0C0C1" stroke-opacity="0.51"/>
<line x1="633.5" y1="96" x2="633.5" y2="376" stroke="#C0C0C1" stroke-opacity="0.51"/>
<line x1="209" y1="159.5" x2="857" y2="159.5" stroke="#C0C0C1" stroke-opacity="0.51"/>
<line x1="209" y1="231.5" x2="857" y2="231.5" stroke="#C0C0C1" stroke-opacity="0.51"/>
<line x1="209" y1="303.5" x2="857" y2="303.5" stroke="#C0C0C1" stroke-opacity="0.51"/>
<path d="M252 136C314.198 144.459 338 99 338 99" stroke="#00FFF9"/>
<line x1="258" y1="351.5" x2="313" y2="351.5" stroke="#00FFF9"/>
<line x1="312.689" y1="351.608" x2="346.689" y2="324.608" stroke="#00FFF9"/>
<line x1="287.74" y1="201.573" x2="338.74" y2="170.573" stroke="#00FFF9"/>
<line x1="257.74" y1="219.733" x2="289.266" y2="200.573" stroke="#00FFF9" stroke-dasharray="2 2"/>
<line x1="287.74" y1="276.573" x2="338.74" y2="245.573" stroke="#00FFF9"/>
<line x1="257.74" y1="294.733" x2="289.266" y2="275.573" stroke="#00FFF9" stroke-dasharray="2 2"/>
</svg>
