<svg viewBox="0 0 1512 225" fill="none" xmlns="http://www.w3.org/2000/svg">
<path d="M-429.778 -88.6564C-699.33 -105.897 -1016.69 83.2119 -963.006 172.777C-915.838 251.462 -612.222 203.347 -513.981 300.568C-399.456 413.898 -749.136 541.501 -715.69 758.073C-689.007 930.902 -426.378 1108.29 -196.499 1107.29C74.0049 1106.12 113.583 858.736 403.372 830.257C864.9 784.897 1324.83 1357.31 1545.24 1306.3C1752.14 1258.41 1376.3 747.218 1836.41 501.523C1980.18 424.753 2158.24 399.17 2148.63 339.591C2134.64 252.915 1752.04 271.481 1510.16 103.523C1330.75 -21.0511 1360.55 -156.736 1259.33 -162.787C1166.8 -168.321 1170.74 -17.9193 1008.5 23.5305C731.186 94.3771 283.504 -222.395 112.212 -157.916C1.26736 -116.15 111.755 45.8609 17.4947 68.398C-77.946 91.2149 -196.109 -73.7087 -429.778 -88.6564Z" stroke="url(#paint0_radial_836_35704)" stroke-opacity="0.4" stroke-width="2"/>
<path d="M-946.569 171.36C-923.675 212.031 -826.663 219.973 -730.299 231.449C-651.524 240.759 -574.91 252.186 -526.056 287.749C-520.552 291.756 -515.419 296.056 -510.677 300.647C-456.023 353.84 -500.22 408.711 -563.13 476.912C-636.077 555.987 -713.081 637.05 -695.454 751.195C-688.445 796.604 -663.342 842.925 -631.535 885.712C-542.96 1004.87 -370.801 1099.66 -203.556 1098.93C64.3103 1097.77 116.945 854.941 403.914 826.736C860.938 781.82 1316.38 1348.64 1534.64 1298.13C1651.67 1271.04 1573.8 1098.7 1579.21 908.42C1583.33 763.479 1632.56 607.155 1827.77 501.961C1967.94 426.511 2141.89 400.361 2132.51 340.85C2118.87 254.472 1745.21 270.448 1507.23 105.19C1330.53 -17.4997 1357.61 -146.787 1257.25 -150.296C1195.74 -152.534 1176.73 -86.4915 1122.95 -31.2251C1096.43 -4.14526 1061.3 20.0095 1008.51 32.4396C880.356 62.8276 715.711 8.94768 559.008 -46.562C379.383 -110.196 211.033 -182.715 119.583 -148.289C10.5048 -107.229 116.221 52.3435 22.1134 75.3002C-50.1195 92.9967 -134.875 5.87664 -270.494 -45.6741C-314.424 -62.3733 -363.678 -75.4601 -419.664 -79.863C-538.665 -89.3071 -667.075 -57.9461 -769.344 -9.80691C-894.649 49.09 -973.738 123.099 -946.569 171.36Z" stroke="url(#paint1_radial_836_35704)" stroke-opacity="0.4" stroke-width="2"/>
<path d="M-930.142 169.937C-909.067 210.049 -810.217 219.523 -716.605 231.704C-640.058 241.537 -570.501 252.703 -522.771 287.84C-517.314 291.86 -512.172 296.147 -507.382 300.714C-452.252 353.214 -490.526 406.047 -552.188 474.188C-627.021 556.869 -692.911 629.765 -675.227 744.305C-668.246 789.513 -641.524 836.205 -612.86 878.944C-533.275 997.577 -375.886 1091.27 -210.632 1090.55C54.5968 1089.4 120.287 851.14 404.429 823.215C856.958 778.737 1307.91 1339.98 1524.01 1289.96C1641.22 1262.84 1554.48 1093.03 1564.66 903.749C1572.32 761.32 1628.92 605.853 1819.12 502.399C1955.7 428.274 2125.52 401.553 2116.38 342.115C2103.08 256.035 1738.36 269.42 1504.26 106.862C1330.29 -13.9482 1354.64 -136.704 1255.14 -137.805C1194.2 -138.48 1175.09 -72.8999 1121.85 -19.1416C1095.68 7.28749 1060.64 30.0375 1008.48 41.3425C881.794 68.7994 719.568 12.8944 564.722 -40.353C385.849 -101.859 218.661 -173.216 126.925 -138.681C19.7136 -98.3256 120.668 58.8079 26.7036 82.1842C-45.7959 100.373 -130.409 15.6918 -264.037 -35.9259C-307.034 -52.5338 -355.069 -65.9612 -409.56 -71.0877C-525.409 -82.1617 -650.257 -53.9994 -751.973 -6.20072C-878.536 53.1219 -955.121 122.406 -930.142 169.937Z" stroke="url(#paint2_radial_836_35704)" stroke-opacity="0.4" stroke-width="2"/>
<path d="M-913.714 168.52C-894.458 208.078 -793.761 219.073 -702.901 231.972C-628.582 242.328 -566.073 253.232 -519.486 287.943C-514.076 291.975 -508.934 296.263 -504.077 300.799C-448.586 352.648 -480.755 403.426 -541.236 471.482C-617.936 557.787 -672.732 622.503 -654.98 737.439C-648.029 782.453 -619.707 829.479 -594.166 872.194C-523.59 990.213 -380.962 1082.91 -217.688 1082.2C44.8927 1081.06 123.649 847.352 404.962 819.706C852.987 775.672 1299.45 1331.33 1513.41 1281.81C1630.79 1254.64 1535.14 1087.42 1550.13 899.085C1561.26 759.192 1625.3 604.564 1810.48 502.849C1943.46 430.05 2109.18 402.751 2100.27 343.386C2087.31 257.598 1731.53 268.398 1501.33 108.54C1330.07 -10.3846 1351.71 -126.683 1253.05 -125.308C1192.7 -124.469 1173.34 -59.3448 1120.79 -7.05211C1094.9 18.6959 1060.04 40.1141 1008.48 50.2515C883.318 74.8624 723.425 16.8533 570.474 -34.138C392.296 -93.5093 226.299 -163.693 134.277 -129.054C28.9414 -89.3984 125.039 65.1688 31.3032 89.0864C-41.5296 107.665 -125.933 25.5313 -257.581 -26.1594C-299.644 -42.6761 -346.45 -56.444 -399.466 -62.3003C-512.153 -75.004 -633.439 -50.0466 -734.622 -2.5763C-862.413 57.1599 -936.503 121.718 -913.714 168.52Z" stroke="url(#paint3_radial_836_35704)" stroke-opacity="0.4" stroke-width="2"/>
<path d="M-897.282 167.106C-897.283 167.105 -897.285 167.106 -897.285 167.108C-879.841 206.109 -777.368 218.77 -689.207 232.239C-617.164 243.246 -561.673 253.767 -516.21 288.047C-510.848 292.091 -505.706 296.372 -500.792 300.884C-444.939 352.082 -470.965 400.83 -530.304 468.776C-608.851 558.717 -652.571 615.237 -634.763 730.567C-627.84 775.386 -597.927 822.705 -575.491 865.444C-513.905 982.763 -386.048 1074.54 -224.754 1073.84C35.1887 1072.72 127.001 843.569 405.486 816.198C849.006 772.607 1290.97 1322.67 1502.78 1273.65C1620.34 1246.45 1515.74 1081.86 1535.58 894.427C1550.11 757.088 1621.67 603.281 1801.81 503.299C1931.2 431.826 2092.8 403.955 2084.13 344.657C2071.51 259.167 1724.68 267.377 1498.36 110.225C1329.81 -6.81494 1348.75 -116.661 1250.93 -112.805C1191.17 -110.452 1171.56 -45.7836 1119.67 5.0496C1094.08 30.1165 1059.4 50.2029 1008.43 59.1728C884.803 80.9376 727.205 20.8304 576.169 -27.9047C398.724 -85.1658 233.936 -154.176 141.629 -119.428C38.1598 -80.4772 129.477 71.615 35.9029 95.9887C-37.2156 115.029 -121.448 35.3768 -251.114 -16.3929C-292.245 -32.8123 -337.851 -46.8478 -389.362 -53.5068C-498.944 -67.6761 -616.621 -46.0877 -717.262 1.04813C-846.295 61.1955 -917.87 121.039 -897.28 167.104C-897.279 167.105 -897.281 167.107 -897.282 167.106V167.106Z" stroke="url(#paint4_radial_836_35704)" stroke-opacity="0.4" stroke-width="2"/>
<path d="M-864.413 164.269C-864.418 164.269 -864.421 164.273 -864.419 164.278C-850.597 202.206 -744.501 217.943 -661.809 232.768C-594.261 244.876 -552.864 254.849 -509.639 288.247C-504.372 292.316 -499.239 296.591 -494.192 301.042C-437.634 350.945 -451.224 395.673 -508.41 463.345C-590.595 560.596 -612.222 600.69 -594.299 716.812C-587.443 761.235 -554.331 809.034 -538.132 851.925C-494.44 967.566 -396.218 1057.79 -238.887 1057.11C15.7805 1056.01 133.705 835.98 406.533 809.168C841.045 766.465 1274.04 1305.36 1481.54 1257.33C1599.46 1230.04 1476.8 1070.87 1506.48 885.092C1527.6 752.922 1614.41 600.696 1784.51 504.187C1906.71 435.365 2060.07 406.345 2051.87 347.193C2039.94 262.299 1710.99 265.327 1492.45 113.576C1329.33 0.306222 1342.89 -96.6411 1246.72 -87.8111C1188.16 -82.4353 1168.03 -18.6673 1117.5 29.2287C1092.48 52.9455 1058.18 70.3562 1008.39 76.9969C887.87 93.0757 734.738 28.803 587.625 -15.4686C411.466 -68.4789 249.211 -135.148 156.351 -100.193C56.6157 -62.6469 138.353 84.5012 45.1213 109.775C-28.5686 129.746 -112.467 55.0618 -238.173 3.12792C-277.436 -13.0908 -320.605 -27.7953 -369.135 -35.9441C-472.46 -53.294 -582.967 -38.1881 -682.521 8.27875C-814.036 69.2513 -880.622 119.693 -864.407 164.26C-864.405 164.264 -864.408 164.269 -864.413 164.269V164.269Z" stroke="url(#paint5_radial_836_35704)" stroke-opacity="0.4" stroke-width="2"/>
<path d="M-848.005 162.852C-847.999 162.852 -847.994 162.856 -847.992 162.861C-835.988 200.261 -728.074 217.53 -648.114 233.036C-582.814 245.697 -548.483 255.397 -506.363 288.351C-501.144 292.431 -496.011 296.707 -490.907 301.128C-434.006 350.386 -441.31 393.125 -497.478 460.639C-581.443 561.569 -592.071 593.429 -574.072 709.94C-567.244 754.169 -532.532 802.15 -519.457 845.169C-484.612 959.825 -401.304 1049.43 -245.962 1048.75C6.06696 1047.66 137.058 832.191 407.048 805.659C837.055 763.394 1265.57 1296.71 1470.91 1249.18C1589.01 1221.84 1457.23 1065.44 1491.93 880.434C1516.23 750.879 1610.46 599.182 1775.84 504.637C1894.22 436.971 2043.7 407.543 2035.73 348.464C2024.14 263.868 1704.13 264.306 1489.48 115.254C1329.07 3.86374 1339.95 -86.6375 1244.6 -75.3142C1186.64 -68.4302 1166.24 -5.11218 1116.39 41.3243C1091.66 64.3601 1057.55 80.4328 1008.35 85.912C889.394 99.1448 738.443 32.8105 593.32 -9.24743C417.751 -60.1232 256.82 -125.63 163.675 -90.566C65.815 -53.7257 142.752 90.9595 49.6924 116.671C-24.2832 137.11 -108.011 64.9135 -231.744 12.8883C-270.075 -3.22699 -312.034 -18.2659 -359.069 -27.1567C-459.271 -46.0998 -566.177 -34.2353 -665.199 11.8971C-797.961 73.283 -862.042 119.036 -848.017 162.843C-848.015 162.848 -848.01 162.852 -848.005 162.852V162.852Z" stroke="url(#paint6_radial_836_35704)" stroke-opacity="0.4" stroke-width="2"/>
<path d="M-831.573 161.432C-831.569 161.434 -831.567 161.437 -831.566 161.441C-821.396 198.326 -711.658 217.116 -634.42 233.297C-571.368 246.512 -544.103 255.95 -503.087 288.448C-497.916 292.541 -492.783 296.81 -487.612 301.201C-430.378 349.814 -431.349 390.577 -486.536 457.921C-572.263 562.536 -571.901 586.15 -553.845 703.056C-547.045 747.084 -510.705 795.205 -500.782 838.406C-474.689 951.986 -406.398 1041.05 -253.029 1040.38C-3.64661 1039.3 140.409 828.397 407.581 802.138C833.083 760.317 1257.11 1288.04 1460.3 1241.02C1578.57 1213.64 1437.63 1060.05 1477.4 875.77C1504.79 748.848 1606.79 597.862 1767.21 505.081C1881.95 438.716 2027.35 408.741 2019.62 349.735C2008.37 265.431 1697.31 263.284 1486.54 116.932C1328.84 7.42736 1337.05 -76.6338 1242.5 -62.8172C1185.15 -54.4311 1164.47 8.44294 1115.31 53.4138C1090.86 75.7746 1056.97 90.5155 1008.34 94.8211C890.965 105.22 742.147 36.8241 599.053 -3.02632C424.046 -51.7736 264.467 -116.113 171.036 -80.9454C75.0428 -44.8106 147.2 97.4117 54.3016 123.567C-19.9597 144.474 -103.516 74.7712 -225.269 22.6487C-262.666 6.63679 -303.416 -8.73661 -348.955 -18.3754C-446.034 -38.9179 -549.35 -30.2825 -647.829 15.5093C-781.842 77.3105 -843.428 118.382 -831.579 161.424C-831.578 161.427 -831.576 161.43 -831.573 161.432V161.432Z" stroke="url(#paint7_radial_836_35704)" stroke-opacity="0.4" stroke-width="2"/>
<path d="M-815.136 160.012C-815.138 160.012 -815.14 160.014 -815.139 160.017C-806.789 196.398 -695.241 216.69 -620.716 233.559C-559.921 247.321 -539.722 256.503 -499.792 288.545C-494.678 292.656 -489.535 296.919 -484.307 301.28C-426.74 349.249 -421.359 388.047 -475.584 455.208C-563.044 563.522 -551.721 578.883 -533.608 696.184C-526.837 740.018 -488.84 788.242 -482.088 831.65C-464.623 944.062 -411.465 1032.68 -260.085 1032.02C-13.3412 1030.95 143.771 824.608 408.114 798.623C829.112 757.246 1248.64 1279.38 1449.7 1232.85C1568.14 1205.44 1417.95 1054.7 1462.87 871.099C1493.26 746.823 1603.12 596.537 1758.57 505.525C1869.68 440.467 2011 409.933 2003.5 351C1992.6 266.994 1690.48 262.256 1483.61 118.605C1328.62 10.9849 1334.16 -66.6484 1240.42 -50.3202C1183.67 -40.4382 1162.72 22.0041 1114.24 65.5033C1090.08 87.1891 1056.4 100.592 1008.34 103.73C892.555 111.295 745.832 40.856 604.804 3.18872C430.322 -43.418 272.133 -106.602 178.416 -71.3249C84.2897 -35.8955 151.666 103.87 58.9298 130.463C-15.6172 151.845 -99.0017 84.641 -218.783 32.4092C-255.247 16.5067 -294.787 0.786638 -338.832 -9.58798C-432.787 -31.7298 -532.361 -26.1959 -630.449 19.1338C-765.501 81.5373 -824.811 117.751 -815.132 160.007C-815.131 160.01 -815.133 160.012 -815.136 160.012V160.012Z" stroke="url(#paint8_radial_836_35704)" stroke-opacity="0.4" stroke-width="2"/>
<path d="M-782.281 157.166C-782.278 157.174 -782.276 157.182 -782.274 157.191C-777.572 192.577 -662.391 215.852 -593.318 234.088C-537.037 248.944 -530.98 257.628 -493.23 288.746C-488.212 292.881 -483.079 297.138 -477.717 301.438C-419.502 348.13 -401.294 383.018 -453.7 449.778C-544.55 565.528 -511.381 564.336 -493.145 682.422C-486.44 725.861 -444.986 774.194 -444.729 818.125C-444.072 927.971 -421.635 1015.92 -274.218 1015.29C-32.7493 1014.24 150.476 817.012 409.162 791.587C821.151 751.098 1231.71 1262.06 1428.46 1216.53C1547.26 1189.03 1378.35 1044.1 1433.78 861.764C1469.94 742.821 1595.78 593.891 1741.27 506.412C1845.12 443.964 1978.28 412.323 1971.25 353.53C1961.03 270.119 1676.79 260.201 1477.69 121.95C1328.13 18.0939 1328.33 -46.6958 1236.2 -25.3384C1180.68 -12.4705 1159.14 49.1083 1112.05 89.6763C1088.45 110.012 1055.21 120.752 1008.28 121.542C895.708 123.452 753.051 48.9684 616.232 15.6127C442.683 -26.6945 287.389 -87.5922 193.111 -52.102C102.727 -18.0774 160.522 116.768 68.1196 144.237C-6.98924 166.568 -90.05 104.375 -205.87 51.9178C-240.477 36.2464 -277.589 19.821 -318.633 7.96251C-406.37 -17.3842 -498.706 -18.2903 -595.737 26.3461C-733.236 89.6026 -787.645 116.477 -782.287 157.141C-782.286 157.149 -782.284 157.158 -782.281 157.166V157.166Z" stroke="url(#paint9_radial_836_35704)" stroke-opacity="0.4" stroke-width="2"/>
<path d="M-765.849 155.761C-763.02 190.674 -645.991 215.431 -579.624 234.355C-525.599 249.759 -526.628 258.2 -489.954 288.85C-484.983 293.003 -479.86 297.254 -474.422 301.523C-415.893 347.576 -391.228 380.524 -442.758 447.072C-535.265 566.55 -491.211 557.069 -472.917 675.556C-466.242 718.8 -422.997 767.14 -426.054 811.381C-433.549 919.859 -426.721 1007.57 -281.284 1006.94C-42.4534 1005.9 153.828 813.236 409.685 788.084C817.17 748.033 1223.25 1253.42 1417.84 1208.38C1536.82 1180.84 1358.43 1038.86 1419.23 857.106C1458.13 740.845 1592.1 592.578 1732.61 506.862C1832.84 445.715 1961.91 413.527 1955.12 354.807C1945.24 271.694 1669.95 259.191 1474.74 123.64C1327.9 21.6696 1325.43 -36.7043 1234.09 -12.8293C1179.18 1.52855 1157.36 62.6756 1110.97 101.778C1087.65 121.439 1054.64 130.846 1008.26 130.469C897.317 129.563 756.622 53.0732 621.965 21.8521C448.825 -18.2903 295.037 -78.0568 200.472 -42.4572C111.955 -9.13797 164.97 123.251 72.7288 151.158C-2.66577 173.962 -85.555 114.287 -199.394 61.7025C-233.078 46.1467 -268.98 29.3685 -308.52 16.7743C-393.142 -10.1779 -481.869 -14.307 -578.367 29.9888C-717.109 93.6839 -769.077 115.899 -765.849 155.761Z" stroke="url(#paint10_radial_836_35704)" stroke-opacity="0.4" stroke-width="2"/>
<path d="M-749.44 154.347C-749.43 154.346 -749.421 154.353 -749.421 154.364C-748.406 188.798 -629.571 215.009 -565.93 234.623C-514.172 250.574 -522.285 258.778 -486.669 288.953C-481.755 293.119 -476.622 297.363 -471.127 301.608C-412.284 347.029 -381.143 378.037 -431.816 444.365C-525.942 567.59 -471.051 549.808 -452.69 668.685C-446.043 711.734 -400.942 760.068 -407.379 804.625C-422.845 911.685 -431.816 999.195 -288.359 998.574C-52.1669 997.553 157.17 809.441 410.2 784.575C813.18 744.968 1214.77 1244.76 1407.21 1200.22C1526.37 1172.64 1338.4 1033.65 1404.68 852.448C1446.23 738.874 1588.41 591.27 1723.94 507.313C1820.55 447.473 1945.53 414.725 1938.97 356.078C1929.44 273.257 1663.09 258.17 1471.77 125.319C1327.64 25.2333 1322.51 -26.7371 1231.97 -0.326243C1177.67 15.5154 1155.54 76.2428 1109.85 113.88C1086.81 132.871 1054.04 140.947 1008.21 139.391C898.898 135.675 760.136 57.1903 627.66 28.0793C454.892 -9.88596 302.646 -68.5336 207.795 -32.8305C121.144 -0.210688 169.389 129.727 77.2999 158.06C1.6292 181.345 -81.0982 124.187 -192.966 71.469C-225.726 56.0348 -260.409 38.8918 -298.454 25.5617C-379.972 -3.00199 -465.08 -10.3421 -561.044 33.6132C-701.001 97.7232 -750.538 115.297 -749.46 154.331C-749.46 154.341 -749.45 154.349 -749.44 154.347V154.347Z" stroke="url(#paint11_radial_836_35704)" stroke-opacity="0.4" stroke-width="2"/>
<path d="M-732.994 152.927C-733.889 186.909 -613.184 214.579 -552.236 234.884C-502.744 251.377 -517.943 259.355 -483.393 289.05C-478.527 293.234 -473.403 297.473 -467.832 301.687C-408.694 346.475 -371.039 375.55 -420.864 441.653C-516.591 568.63 -450.872 542.535 -432.454 661.807C-425.835 704.655 -378.801 752.971 -388.686 797.869C-411.941 903.482 -436.882 990.827 -295.407 990.213C-61.8615 989.203 160.542 805.653 410.743 781.06C809.218 741.897 1206.31 1236.11 1396.61 1192.06C1515.95 1164.44 1318.3 1028.45 1390.16 847.784C1434.26 736.898 1584.75 589.957 1715.31 507.763C1808.29 449.23 1929.19 415.93 1922.87 357.349C1913.67 274.826 1656.27 257.148 1468.84 126.997C1327.42 28.7969 1319.62 -16.776 1229.89 12.1707C1176.2 29.4902 1153.76 89.804 1108.8 125.969C1086.02 144.286 1053.5 151.042 1008.22 148.3C900.545 141.78 763.679 61.3194 633.412 34.2943C460.967 -1.48167 310.302 -59.0225 215.176 -23.2161C130.401 8.69835 173.855 136.186 81.9281 164.95C5.98126 188.716 -76.5938 134.082 -186.472 81.2234C-218.307 65.9108 -251.781 48.4028 -288.321 34.343C-366.735 4.16173 -448.234 -6.38925 -543.655 37.2255C-684.864 101.772 -731.994 114.707 -732.994 152.927Z" stroke="url(#paint12_radial_836_35704)" stroke-opacity="0.4" stroke-width="2"/>
<path d="M-716.548 151.51C-716.553 151.51 -716.557 151.515 -716.558 151.52C-719.314 185.042 -596.77 214.149 -538.522 235.152C-491.297 252.18 -513.591 259.939 -480.098 289.154C-475.279 293.356 -470.156 297.588 -464.528 301.766C-405.084 345.922 -360.897 373.069 -409.913 438.941C-507.201 569.682 -430.692 535.268 -412.217 654.935C-405.627 697.589 -356.602 745.874 -370.001 791.112C-400.856 895.272 -441.967 982.453 -302.473 981.851C-71.5656 980.847 163.894 801.864 411.276 777.551C805.247 738.832 1197.86 1227.45 1386.01 1183.91C1505.52 1156.25 1298.09 1023.28 1375.63 843.119C1422.19 734.928 1581.1 588.643 1706.68 508.206C1796.02 450.982 1912.84 417.127 1906.76 358.62C1897.9 276.395 1649.44 256.126 1465.9 128.675C1327.2 32.3605 1316.72 -6.81494 1227.81 24.6677C1174.73 43.4649 1151.98 103.365 1107.73 138.059C1085.23 155.7 1052.94 161.137 1008.22 157.209C902.193 147.898 767.174 65.4729 639.155 40.5094C467.005 6.94087 317.959 -49.5114 222.556 -13.5955C139.648 17.6135 178.331 142.656 86.5564 171.846C10.3333 196.092 -72.0894 143.994 -179.986 90.9899C-210.898 75.805 -243.163 57.9261 -278.189 43.1304C-353.498 11.3315 -431.378 -2.43035 -526.266 40.8438C-668.701 105.81 -713.435 114.128 -716.537 151.501C-716.538 151.506 -716.542 151.51 -716.548 151.51V151.51Z" stroke="url(#paint13_radial_836_35704)" stroke-opacity="0.4" stroke-width="2"/>
<path d="M-683.697 148.667C-683.701 148.669 -683.703 148.673 -683.703 148.676C-690.278 181.312 -563.975 213.273 -511.134 235.675C-468.451 253.773 -504.953 261.119 -473.537 289.348C-468.823 293.581 -463.699 297.801 -457.938 301.924C-397.913 344.827 -340.594 368.125 -388.028 433.51C-488.354 571.804 -390.352 520.716 -371.753 641.173C-365.23 683.432 -311.996 731.674 -332.642 777.588C-378.182 878.865 -452.129 965.699 -316.605 965.115C-90.9737 964.136 170.607 794.269 412.323 770.509C797.295 732.672 1180.92 1210.13 1364.77 1167.58C1484.64 1139.84 1257.31 1012.94 1346.54 833.785C1397.75 730.975 1573.74 586.016 1689.37 509.094C1771.45 454.491 1880.11 419.517 1874.5 361.15C1866.33 279.521 1635.76 254.071 1460 132.02C1326.71 39.4695 1310.89 13.0708 1223.6 49.6556C1171.73 71.3961 1148.36 130.475 1105.55 162.238C1083.58 178.542 1051.81 181.339 1008.18 175.027C905.45 160.17 774.04 73.859 650.601 52.9455C478.918 23.8589 333.234 -30.4832 237.26 5.63947C158.085 35.4437 187.216 155.591 95.7557 185.632C18.9803 210.851 -63.1471 163.837 -167.063 110.505C-196.147 95.5812 -225.964 76.9422 -257.99 60.6931C-327.09 25.6346 -397.742 5.46921 -491.554 48.0745C-636.469 113.888 -676.479 112.98 -683.692 148.659C-683.692 148.662 -683.694 148.666 -683.697 148.667V148.667Z" stroke="url(#paint14_radial_836_35704)" stroke-opacity="0.4" stroke-width="2"/>
<path d="M-667.284 147.254C-667.28 147.254 -667.276 147.258 -667.277 147.263C-675.783 179.466 -547.583 212.83 -497.44 235.943C-457.033 254.569 -500.649 261.715 -470.261 289.452C-465.604 293.702 -460.48 297.917 -454.652 302.003C-394.352 344.28 -330.433 365.662 -377.096 430.798C-478.889 572.887 -370.192 513.448 -351.536 634.301C-345.041 676.365 -289.597 724.596 -313.977 770.838C-366.63 870.71 -457.233 957.337 -323.681 956.76C-100.687 955.793 173.95 790.486 412.837 767.006C793.305 729.613 1172.44 1201.48 1354.13 1159.43C1474.17 1131.64 1236.71 1007.8 1331.97 829.126C1385.36 729.005 1570.04 584.709 1680.7 509.544C1759.15 456.254 1863.73 420.715 1858.35 362.427C1850.52 281.09 1628.89 253.055 1457.02 133.705C1326.45 43.0392 1307.93 23.0197 1221.46 62.1586C1170.19 85.3647 1146.51 144.043 1104.44 174.333C1082.72 189.962 1051.22 191.458 1008.13 183.948C907.059 166.33 777.402 78.1037 656.296 59.1728C484.785 32.3605 340.843 -20.966 244.583 15.2722C167.284 44.371 191.634 162.08 100.327 192.541C23.2752 218.246 -58.7094 173.786 -160.626 120.277C-188.795 105.488 -217.384 86.4593 -247.915 69.4866C-313.91 32.7923 -380.953 9.43418 -474.222 51.6989C-620.37 117.93 -658.059 112.421 -667.291 147.244C-667.293 147.249 -667.289 147.254 -667.284 147.254V147.254Z" stroke="url(#paint15_radial_836_35704)" stroke-opacity="0.4" stroke-width="2"/>
<path d="M-650.843 145.84C-650.841 145.839 -650.839 145.84 -650.84 145.842C-661.308 177.615 -531.177 212.385 -483.736 236.21C-445.596 255.36 -496.335 262.323 -466.966 289.555C-462.366 293.824 -457.242 298.032 -451.338 302.088C-390.752 343.745 -320.224 363.205 -366.135 428.092C-469.365 573.981 -350.012 506.181 -331.29 627.429C-324.823 669.299 -267.104 717.541 -295.273 764.081C-354.898 862.591 -462.29 948.97 -330.728 948.398C-110.382 947.443 177.321 786.691 413.38 763.491C789.344 726.542 1163.99 1192.82 1343.53 1151.27C1463.75 1123.45 1216.03 1002.63 1317.45 824.462C1372.92 727.016 1566.38 583.407 1672.06 509.994C1746.88 458.018 1847.38 421.92 1842.24 363.698C1834.75 282.659 1622.06 252.034 1454.08 135.383C1326.22 46.6028 1305.01 32.9564 1219.37 74.6556C1168.69 99.3272 1144.68 157.604 1103.35 186.423C1081.89 201.383 1050.66 201.571 1008.11 192.857C908.697 172.491 780.773 82.3727 662.029 65.3878C490.661 40.8803 348.49 -11.4549 251.944 24.8866C176.512 53.28 196.091 168.55 104.936 199.431C27.6083 225.623 -54.2431 183.729 -154.16 130.038C-181.415 115.388 -208.784 95.9643 -237.801 78.2739C-300.692 39.9377 -364.116 13.387 -456.842 55.3233C-604.233 121.976 -639.625 111.868 -650.846 145.837C-650.846 145.839 -650.844 145.841 -650.843 145.84V145.84Z" stroke="url(#paint16_radial_836_35704)" stroke-opacity="0.4" stroke-width="2"/>
<path d="M-634.406 144.429C-634.408 144.425 -634.413 144.426 -634.415 144.43C-646.858 175.77 -514.786 211.93 -470.042 236.472C-434.177 256.145 -492.04 262.925 -463.69 289.652C-459.138 293.94 -454.024 298.142 -448.053 302.167C-387.2 343.21 -310.034 360.748 -355.202 425.38C-459.833 575.082 -329.852 498.914 -311.063 620.552C-304.625 662.22 -244.582 710.505 -276.598 757.325C-343.079 854.522 -467.385 940.596 -337.794 940.036C-120.086 939.094 180.673 782.903 413.904 759.982C785.363 723.477 1155.53 1184.17 1332.91 1143.11C1453.31 1115.25 1195.19 997.461 1302.91 819.804C1360.37 725.021 1562.71 582.106 1663.41 510.444C1734.61 459.781 1831.02 423.118 1826.12 364.969C1818.97 284.228 1615.23 251.012 1451.13 137.068C1325.99 50.1725 1302.09 42.8993 1217.27 87.1587C1167.18 113.296 1142.85 171.165 1102.27 198.525C1081.08 212.816 1050.11 211.703 1008.1 201.778C910.335 178.675 784.125 86.6843 667.762 71.6211C496.498 49.4488 356.137 -1.92561 259.315 34.5254C185.749 62.2194 200.558 175.051 109.555 206.345C31.9603 233.03 -49.7767 193.708 -147.674 139.816C-174.025 125.312 -200.156 105.488 -227.678 87.0735C-287.445 47.0893 -347.279 17.358 -439.463 58.9538C-588.094 126.023 -621.214 111.322 -634.397 144.428C-634.399 144.432 -634.404 144.432 -634.406 144.429V144.429Z" stroke="url(#paint17_radial_836_35704)" stroke-opacity="0.4" stroke-width="2"/>
<path d="M-617.988 143.003C-617.986 143.003 -617.984 143.005 -617.985 143.007C-632.455 173.917 -498.399 211.473 -456.347 236.739C-422.759 256.923 -487.764 263.539 -460.414 289.756C-455.919 294.061 -450.805 298.251 -444.758 302.246C-383.638 342.669 -299.816 358.291 -344.26 422.668C-450.253 576.189 -309.682 491.641 -290.835 613.68C-284.426 655.154 -221.993 703.506 -257.924 750.569C-331.166 846.507 -472.47 932.228 -344.87 931.675C-129.799 930.744 184.016 779.114 414.418 756.468C781.373 720.4 1147.05 1175.51 1322.29 1134.95C1442.86 1107.05 1174.2 992.268 1288.36 815.133C1347.73 723.002 1559.03 580.798 1654.76 510.882C1722.33 461.533 1814.65 424.309 1809.98 366.233C1803.18 285.791 1608.38 249.984 1448.17 138.74C1325.74 53.7239 1299.14 52.83 1215.16 99.6496C1165.66 127.252 1140.99 184.72 1101.18 210.608C1080.23 224.23 1049.52 221.816 1008.07 210.681C911.944 184.854 787.429 91.0081 673.476 77.83C502.288 58.0356 363.765 7.5794 266.658 44.1338C194.958 71.1224 205.005 181.521 114.145 213.229C36.2743 240.406 -45.3484 203.663 -141.227 149.565C-166.673 135.207 -191.566 114.974 -217.593 95.8427C-274.246 54.2104 -330.48 21.2926 -422.121 62.5539C-571.999 130.041 -602.877 110.744 -617.991 142.998C-617.992 143 -617.99 143.003 -617.988 143.003V143.003Z" stroke="url(#paint18_radial_836_35704)" stroke-opacity="0.4" stroke-width="2"/>
<path d="M-601.556 141.58C-618.078 172.059 -482.003 210.997 -442.644 237.001C-411.322 257.695 -483.479 264.147 -457.128 289.853C-452.69 294.183 -447.576 298.361 -441.463 302.326C-380.077 342.14 -289.588 355.841 -333.318 419.949C-440.644 577.302 -289.512 484.368 -270.608 606.796C-264.237 648.075 -199.356 696.518 -239.249 743.806C-319.176 838.546 -477.555 923.848 -351.936 923.307C-139.504 922.388 187.368 775.313 414.952 752.946C777.402 717.322 1138.59 1166.85 1311.68 1126.79C1432.43 1098.84 1153.09 987.038 1273.82 810.463C1335.02 720.959 1555.36 579.491 1646.12 511.326C1710.07 463.296 1798.31 425.501 1793.87 367.498C1787.41 287.354 1601.55 248.957 1445.23 140.412C1325.51 57.2815 1296.19 62.7546 1213.07 112.147C1164.15 141.209 1139.15 198.275 1100.09 222.698C1079.39 235.651 1048.95 231.947 1008.05 219.59C913.563 191.051 790.734 95.3684 679.209 84.0451C508.059 66.6649 371.412 17.0905 274.019 53.7483C204.195 80.0314 209.471 187.998 118.754 220.119C40.6169 247.789 -40.9107 213.643 -134.752 159.319C-159.293 145.113 -182.939 124.467 -207.48 104.624C-261 61.3377 -313.653 25.2394 -404.751 66.1723C-555.883 134.076 -584.538 110.182 -601.556 141.58Z" stroke="url(#paint19_radial_836_35704)" stroke-opacity="0.4" stroke-width="2"/>
<path d="M-585.138 140.16C-585.133 140.161 -585.131 140.168 -585.134 140.172C-603.68 170.212 -465.591 210.532 -428.949 237.262C-399.894 258.461 -479.203 264.768 -453.843 289.95C-449.462 294.298 -444.348 298.47 -438.168 302.405C-376.524 341.604 -279.351 353.39 -322.376 417.237C-430.987 578.427 -269.342 477.095 -250.381 599.918C-244.039 641.003 -176.682 689.574 -220.574 737.044C-307.12 830.647 -482.65 915.474 -359.011 914.939C-149.217 914.033 190.711 771.519 415.466 749.431C773.411 714.251 1130.11 1158.19 1301.05 1118.62C1421.97 1090.64 1131.8 981.784 1259.27 805.799C1322.21 718.91 1551.68 578.196 1637.45 511.77C1697.77 465.06 1781.93 426.699 1777.73 368.763C1771.62 288.91 1594.69 247.929 1442.27 142.085C1325.27 60.839 1293.23 72.6792 1210.95 124.637C1162.62 155.159 1137.26 211.824 1099 234.787C1078.53 247.065 1048.37 242.079 1008.02 228.499C915.163 197.248 794 99.7712 684.923 90.2601C513.792 75.3428 379.031 26.6016 281.361 63.3688C213.404 88.9526 213.909 194.481 123.344 227.015C44.9403 255.178 -36.5015 223.634 -128.304 169.079C-151.95 155.025 -174.339 133.966 -197.395 113.405C-247.781 68.4588 -296.854 29.1861 -387.409 69.7845C-539.774 138.095 -566.239 109.61 -585.142 140.148C-585.145 140.152 -585.143 140.158 -585.138 140.16V140.16Z" stroke="url(#paint20_radial_836_35704)" stroke-opacity="0.4" stroke-width="2"/>
<path d="M-568.687 138.746C-568.69 138.746 -568.693 138.748 -568.694 138.75C-589.353 168.347 -449.175 210.056 -415.246 237.53C-388.447 259.234 -474.936 265.388 -450.557 290.054C-446.234 294.42 -441.12 298.592 -434.863 302.484C-372.963 341.075 -269.094 350.939 -311.424 414.525C-421.293 579.564 -249.172 469.828 -230.145 593.046C-223.831 633.93 -153.96 682.671 -201.88 730.294C-294.997 822.82 -487.716 907.106 -366.059 906.583C-158.902 905.683 194.082 767.736 416.009 745.923C769.45 711.187 1121.66 1149.54 1290.45 1110.47C1411.56 1082.44 1110.38 976.481 1244.75 801.134C1309.34 716.836 1548.03 576.9 1628.83 512.22C1685.52 466.83 1765.59 427.897 1761.63 370.034C1755.85 290.479 1587.88 246.907 1439.33 143.763C1325.05 64.4026 1290.29 82.6038 1208.87 137.134C1161.12 169.116 1135.39 225.373 1097.93 246.877C1077.7 258.486 1047.81 252.21 1008.02 237.414C916.773 203.463 797.286 104.217 690.665 96.4873C519.534 84.0755 386.687 36.1248 288.742 72.9954C222.651 97.8738 218.394 200.975 127.972 233.911C49.3018 262.572 -32.0637 233.644 -121.81 178.846C-144.56 164.95 -165.692 143.471 -187.252 122.199C-234.497 75.5921 -280.008 33.1389 -370.011 73.409C-523.631 142.136 -547.929 109.042 -568.679 138.742C-568.681 138.744 -568.684 138.746 -568.687 138.746V138.746Z" stroke="url(#paint21_radial_836_35704)" stroke-opacity="0.4" stroke-width="2"/>
<path d="M-552.269 137.329C-552.267 137.329 -552.266 137.332 -552.267 137.333C-575.04 166.474 -432.757 209.569 -401.551 237.797C-377.001 259.994 -470.689 266.02 -447.281 290.157C-443.024 294.548 -437.901 298.707 -431.578 302.569C-369.43 340.558 -258.847 348.501 -300.492 411.819C-411.579 580.713 -229.011 462.56 -209.918 586.174C-203.632 626.864 -131.218 675.8 -183.205 723.538C-282.865 815.054 -492.811 898.738 -373.134 898.222C-168.625 897.334 197.425 763.941 416.523 742.408C765.46 708.115 1113.19 1140.88 1279.82 1102.31C1401.11 1074.24 1088.76 971.13 1230.19 796.476C1296.37 714.744 1544.35 575.617 1620.16 512.67C1673.23 468.605 1749.21 429.101 1745.48 371.311C1740.06 292.054 1581.02 245.898 1436.36 145.447C1324.79 67.9723 1287.3 92.5406 1206.74 149.637C1159.56 183.078 1133.48 238.928 1096.82 258.972C1076.81 269.912 1047.19 262.353 1007.98 246.329C918.325 209.69 800.514 108.698 696.369 102.708C525.21 92.8629 394.306 45.642 296.075 82.616C231.86 106.789 222.842 207.458 132.553 240.808C53.6159 269.967 -27.6926 243.66 -115.372 188.606C-137.237 174.875 -157.093 152.964 -177.177 130.98C-221.269 82.7133 -263.218 37.0856 -352.679 77.0273C-507.546 146.168 -529.702 108.459 -552.271 137.325C-552.272 137.327 -552.271 137.329 -552.269 137.329V137.329Z" stroke="url(#paint22_radial_836_35704)" stroke-opacity="0.4" stroke-width="2"/>
<path d="M-535.837 135.921C-535.837 135.918 -535.841 135.917 -535.843 135.92C-560.734 164.593 -416.329 209.084 -387.857 238.059C-365.554 260.748 -466.451 266.647 -443.996 290.254C-439.796 294.669 -434.673 298.817 -428.273 302.648C-365.878 340.035 -248.572 346.056 -289.54 409.106C-401.799 581.869 -208.832 455.293 -189.681 579.302C-183.424 619.797 -108.449 668.964 -164.521 716.787C-270.713 807.355 -497.887 890.371 -380.191 889.866C-178.32 888.99 200.786 760.159 417.056 738.905C761.489 705.051 1104.73 1132.23 1269.21 1094.17C1390.67 1066.05 1067.01 965.717 1215.66 791.824C1283.36 712.628 1540.69 574.34 1611.51 513.126C1660.97 470.393 1732.86 430.306 1729.36 372.588C1724.28 293.629 1574.18 244.882 1433.42 147.132C1324.55 71.536 1284.34 102.471 1204.65 162.147C1158.04 197.047 1131.58 252.484 1095.74 271.08C1075.95 281.345 1046.61 272.515 1007.97 255.257C919.906 215.929 803.771 113.229 702.102 108.942C530.905 101.723 401.953 55.1652 303.436 92.2548C241.088 115.722 227.308 213.971 137.162 247.722C57.968 277.38 -23.3215 253.712 -108.896 198.385C-129.876 184.818 -148.455 162.475 -167.063 139.786C-207.994 89.8588 -246.391 41.0567 -335.308 80.6639C-491.427 150.209 -511.454 107.879 -535.83 135.923C-535.833 135.925 -535.837 135.924 -535.837 135.921V135.921Z" stroke="url(#paint23_radial_836_35704)" stroke-opacity="0.4" stroke-width="2"/>
<path d="M-519.419 134.495C-519.415 134.495 -519.414 134.5 -519.417 134.503C-546.467 162.696 -399.892 208.592 -374.163 238.326C-354.098 261.508 -462.214 267.285 -440.72 290.358C-436.587 294.791 -431.454 298.932 -424.988 302.733C-362.345 339.525 -238.306 343.623 -278.608 406.4C-392.009 583.036 -188.671 448.026 -169.463 572.431C-163.245 612.725 -85.6788 662.159 -145.855 710.031C-258.571 799.705 -502.992 882.003 -387.276 881.504C-188.043 880.641 204.119 756.37 417.561 735.39C757.489 701.979 1096.24 1123.57 1258.58 1086C1380.22 1057.85 1045.05 960.22 1201.09 787.153C1270.24 710.463 1537 573.057 1602.85 513.57C1648.68 472.163 1716.48 431.504 1713.22 373.853C1708.48 295.192 1567.33 243.854 1430.45 148.804C1324.3 75.0935 1281.34 112.396 1202.53 174.638C1156.5 210.997 1129.64 266.014 1094.65 283.164C1075.08 292.754 1046 282.653 1007.94 264.16C921.458 222.144 806.999 117.772 707.816 115.151C536.581 110.626 409.58 64.6702 310.778 101.863C250.297 124.631 231.755 220.448 141.752 254.606C62.2913 284.763 -18.9789 263.752 -102.449 208.133C-122.552 194.736 -139.846 171.962 -156.978 148.555C-194.738 96.9617 -229.602 44.9852 -317.967 84.264C-475.342 154.217 -493.256 107.253 -519.421 134.488C-519.424 134.491 -519.422 134.495 -519.419 134.495V134.495Z" stroke="url(#paint24_radial_836_35704)" stroke-opacity="0.4" stroke-width="2"/>
<path d="M-486.536 131.655C-486.542 131.655 -486.548 131.658 -486.553 131.662C-517.975 158.847 -366.971 207.6 -346.755 238.849C-331.137 263.004 -453.766 268.55 -434.139 290.546C-430.14 295.028 -424.988 299.151 -418.379 302.879C-355.259 338.479 -217.707 338.728 -256.705 400.957C-372.249 585.371 -148.312 433.468 -128.981 558.663C-122.819 598.568 -40.0726 648.617 -108.468 696.5C-234.249 784.557 -513.124 865.243 -401.38 864.756C-207.422 863.917 210.862 748.763 418.647 728.342C749.566 695.819 1079.34 1106.24 1237.38 1069.66C1359.37 1041.43 1000.7 948.927 1172.05 777.807C1243.93 706.024 1529.73 570.491 1585.58 514.446C1624.19 475.714 1683.78 433.881 1681 376.377C1676.95 298.306 1553.68 241.793 1424.58 152.149C1323.86 82.2086 1275.4 132.239 1198.36 199.619C1153.45 238.898 1125.77 293.058 1092.5 307.336C1073.32 315.571 1044.82 302.934 1007.93 281.972C924.553 234.599 813.523 126.985 719.301 127.581C547.99 128.657 424.894 83.6924 325.53 121.098C268.791 142.456 240.736 233.425 150.999 268.392C71.0242 299.559 -10.3033 283.887 -89.4786 227.654C-107.849 214.604 -122.524 190.954 -136.723 166.124C-168.12 111.21 -195.928 52.8726 -283.198 91.5007C-443.077 162.268 -456.821 105.996 -486.518 131.649C-486.523 131.653 -486.529 131.655 -486.536 131.655V131.655Z" stroke="url(#paint25_radial_836_35704)" stroke-opacity="0.4" stroke-width="2"/>
<path d="M-470.103 130.232C-470.113 130.236 -470.123 130.242 -470.131 130.249C-503.741 156.906 -350.495 207.103 -333.061 239.117C-319.643 263.758 -449.557 269.201 -430.863 290.65C-426.94 295.156 -421.778 299.267 -415.084 302.964C-351.726 337.98 -207.413 336.295 -245.753 398.251C-362.306 586.569 -128.142 426.207 -108.744 551.791C-102.611 591.495 -17.2742 641.903 -89.7832 689.75C-222.117 777.071 -518.209 856.881 -408.436 856.401C-217.126 855.574 214.223 744.98 419.18 724.833C745.594 692.754 1070.89 1097.59 1226.77 1061.51C1348.94 1033.23 978.254 943.144 1157.52 773.142C1230.68 703.755 1526.09 569.226 1576.94 514.89C1611.94 477.502 1667.44 435.079 1664.89 377.642C1661.18 299.869 1546.85 240.765 1421.64 153.821C1323.63 85.7661 1272.42 142.158 1196.27 212.116C1151.92 252.855 1123.8 306.57 1091.43 319.426C1072.43 326.973 1044.21 313.077 1007.92 290.881C926.077 240.826 816.789 131.655 725.034 133.796C553.704 137.791 432.541 93.2034 332.891 130.713C278.019 151.371 245.212 239.914 155.609 275.282C75.3762 306.953 -6.0274 293.976 -83.0028 237.408C-100.516 224.54 -113.877 200.44 -126.609 174.899C-154.817 118.325 -179.11 56.8071 -265.828 95.1069C-426.956 166.272 -438.631 105.334 -470.076 130.216C-470.084 130.222 -470.094 130.228 -470.103 130.232V130.232Z" stroke="url(#paint26_radial_836_35704)" stroke-opacity="0.4" stroke-width="2"/>
<path d="M-453.69 128.818C-453.69 128.82 -453.691 128.822 -453.693 128.823C-489.556 154.931 -334.003 206.607 -319.367 239.385C-308.148 264.512 -445.367 269.846 -427.587 290.753C-423.731 295.283 -418.559 299.382 -411.798 303.043C-348.212 337.469 -197.118 333.857 -234.82 395.539C-352.345 587.767 -107.982 418.934 -88.5262 544.913C-82.4219 584.423 5.50508 635.201 -71.118 682.988C-210.032 769.615 -523.304 848.501 -415.522 848.033C-226.85 847.218 217.556 741.179 419.685 721.318C741.604 689.677 1062.4 1088.93 1216.13 1053.35C1338.48 1025.03 955.608 937.227 1142.95 768.478C1217.36 701.45 1522.42 567.967 1568.27 515.334C1599.67 479.29 1651.05 436.271 1648.74 378.913C1645.37 301.438 1539.98 239.743 1418.67 155.5C1323.37 89.3236 1269.4 152.088 1194.14 224.613C1150.35 266.811 1121.78 320.065 1090.31 331.516C1071.49 338.363 1043.56 323.221 1007.87 299.796C927.553 247.065 820.037 136.368 730.729 140.017C559.417 147.023 440.15 102.721 340.214 140.339C287.209 160.292 249.649 246.421 160.18 282.184C79.6903 314.36 -1.81818 304.089 -76.5652 247.175C-93.2211 234.489 -105.258 209.945 -116.534 183.692C-141.541 125.458 -162.33 60.76 -248.496 98.7313C-410.908 170.306 -420.483 104.658 -453.688 128.813C-453.689 128.815 -453.69 128.816 -453.69 128.818V128.818Z" stroke="url(#paint27_radial_836_35704)" stroke-opacity="0.4" stroke-width="2"/>
<path d="M-437.272 127.404C-437.27 127.404 -437.269 127.409 -437.272 127.41C-475.341 152.954 -317.499 206.123 -305.672 239.646C-296.635 265.266 -441.186 270.49 -424.311 290.85C-420.531 295.411 -415.341 299.498 -408.513 303.122C-344.698 336.97 -186.814 331.418 -223.888 392.827C-342.336 588.972 -87.8215 411.667 -68.3086 538.041C-62.2424 577.356 28.2844 628.536 -52.4526 676.238C-197.975 762.22 -528.409 840.139 -422.597 839.677C-236.563 838.868 220.899 737.397 420.199 717.809C737.614 686.612 1053.91 1080.28 1205.49 1045.19C1328.02 1016.84 932.8 931.188 1128.39 763.82C1204.01 699.103 1518.78 566.72 1559.59 515.79C1587.4 481.102 1634.66 437.481 1632.59 380.19C1629.56 303.013 1533.12 238.728 1415.69 157.184C1323.11 92.8933 1266.38 162.019 1192.01 237.116C1148.77 280.774 1119.73 333.553 1089.2 343.617C1070.54 349.765 1042.91 333.383 1007.82 308.717C929.01 253.305 823.313 141.118 736.433 146.244C565.188 156.351 447.759 112.244 347.547 149.966C296.408 169.213 254.106 252.921 164.76 289.087C84.0232 321.767 2.35296 314.227 -70.1275 256.941C-85.9454 244.444 -96.6399 219.45 -106.449 192.48C-128.247 132.592 -145.541 64.7067 -231.154 102.356C-394.815 174.322 -402.331 103.985 -437.274 127.399C-437.276 127.4 -437.275 127.404 -437.272 127.404V127.404Z" stroke="url(#paint28_radial_836_35704)" stroke-opacity="0.4" stroke-width="2"/>
<path d="M-420.836 125.981C-420.831 125.984 -420.832 125.991 -420.837 125.994C-461.119 150.955 -300.967 205.637 -291.969 239.914C-285.112 266.027 -436.996 271.147 -421.016 290.954C-417.312 295.539 -412.112 299.613 -405.199 303.207C-341.165 336.478 -176.472 328.992 -212.927 390.115C-332.251 590.188 -67.6325 404.393 -48.0625 531.163C-42.0248 570.278 51.0828 621.883 -33.7587 669.475C-185.919 754.844 -533.475 831.759 -429.654 831.309C-246.258 830.513 224.261 733.602 420.732 714.288C733.643 683.535 1045.46 1071.62 1194.89 1037.03C1317.59 1008.63 909.849 924.997 1113.85 759.149C1190.67 696.707 1515.17 565.467 1550.96 516.228C1575.18 482.896 1618.31 438.667 1616.47 381.449C1613.79 304.563 1526.29 237.694 1412.75 158.851C1322.88 96.4447 1263.39 171.937 1189.91 249.601C1147.23 294.724 1117.71 347.005 1088.12 355.695C1069.62 361.131 1042.28 343.514 1007.81 317.614C930.505 259.52 826.655 145.885 742.166 152.453C571.036 165.753 455.406 121.743 354.908 159.574C305.645 178.122 258.582 259.41 169.369 295.971C88.3752 329.162 6.51456 324.358 -63.6518 266.696C-78.6317 254.387 -87.9739 228.949 -96.3352 201.255C-114.924 139.713 -128.828 68.5318 -213.784 105.962C-378.928 178.121 -384.142 103.276 -420.835 125.969C-420.839 125.972 -420.84 125.979 -420.836 125.981V125.981Z" stroke="url(#paint29_radial_836_35704)" stroke-opacity="0.4" stroke-width="2"/>
<path d="M-404.403 124.571C-404.402 124.571 -404.402 124.573 -404.403 124.573C-446.936 148.93 -284.445 205.148 -278.274 240.181C-273.589 266.793 -432.835 271.804 -417.74 291.057C-414.122 295.673 -408.894 299.735 -401.913 303.286C-337.651 335.979 -166.159 326.553 -201.994 387.402C-322.157 591.41 -47.472 397.126 -27.8354 524.285C-21.8263 563.205 73.843 615.249 -15.0744 662.719C-173.91 747.51 -538.551 823.392 -436.711 822.948C-255.952 822.163 227.622 729.807 421.265 710.779C729.672 680.47 1037 1062.96 1184.28 1028.88C1307.15 1000.44 886.746 918.661 1099.32 754.491C1177.3 694.268 1511.59 564.239 1542.32 516.678C1562.97 484.708 1601.97 439.871 1600.36 382.726C1598.02 306.139 1519.46 236.678 1409.81 160.535C1322.66 100.014 1260.4 181.874 1187.83 262.11C1145.7 308.693 1115.68 360.462 1087.05 367.796C1068.69 372.503 1041.66 353.67 1007.8 326.535C931.981 265.759 830.026 150.708 747.899 158.68C576.949 175.276 463.053 131.266 362.279 169.207C314.883 187.049 263.077 265.923 173.988 302.879C92.7465 336.581 10.6381 334.526 -57.1761 276.468C-71.3274 264.348 -79.3078 238.46 -86.2216 210.055C-101.592 146.864 -112.001 72.5028 -196.414 109.592C-362.814 182.175 -365.954 102.562 -404.404 124.568C-404.405 124.569 -404.405 124.571 -404.403 124.571V124.571Z" stroke="url(#paint30_radial_836_35704)" stroke-opacity="0.4" stroke-width="2"/>
<path d="M-355.107 120.314C-404.294 142.778 -234.811 203.736 -237.173 240.972C-238.963 269.104 -420.397 273.762 -407.884 291.355C-404.541 296.062 -399.218 300.088 -392.009 303.524C-327.09 334.508 -135.123 319.244 -169.149 379.266C-291.521 595.132 13.0474 375.313 32.865 503.658C38.7884 541.988 142.095 595.442 40.9692 642.444C-138.075 725.666 -553.807 798.27 -457.909 797.856C-285.074 797.109 237.679 718.435 422.846 700.234C717.739 671.251 1011.6 1036.99 1152.43 1004.39C1275.84 975.83 816.561 898.611 1055.7 740.492C1137.13 686.649 1500.99 560.554 1516.37 518.016C1526.44 490.151 1552.88 443.459 1551.98 386.527C1550.67 310.833 1498.94 233.601 1400.96 165.564C1321.93 110.693 1251.11 211.587 1181.52 299.595C1140.89 350.519 1109.52 400.617 1083.78 404.065C1065.84 406.467 1039.72 384.088 1007.74 353.268C936.324 284.422 840.407 165.309 765.069 177.338C595.253 204.442 485.966 159.811 384.335 198.069C342.547 213.801 276.514 285.426 187.787 323.567C105.812 358.808 22.5896 365.108 -37.787 305.755C-49.5195 294.225 -53.3573 266.981 -55.9095 236.411C-61.6138 168.295 -61.5377 84.3613 -144.322 120.447C-314.462 194.274 -311.348 100.331 -355.107 120.314Z" stroke="url(#paint31_radial_836_35704)" stroke-opacity="0.4" stroke-width="2"/>
<path d="M-338.68 118.903C-338.68 118.9 -338.683 118.898 -338.686 118.899C-390.043 140.709 -218.26 203.282 -223.478 241.233C-227.421 269.882 -416.274 274.413 -404.608 291.452C-401.361 296.19 -396.009 300.197 -388.724 303.603C-323.595 334.027 -124.79 316.805 -158.216 376.553C-281.227 596.391 33.2078 368.046 53.0921 496.786C58.9774 534.921 164.817 588.868 59.644 635.694C-126.209 718.441 -558.892 789.908 -464.975 789.501C-294.778 788.765 241.031 714.647 423.37 696.725C713.759 668.186 1003.14 1028.34 1141.81 996.239C1265.4 967.633 792.924 891.569 1041.15 735.834C1123.76 684.015 1497.54 559.332 1507.71 518.466C1514.31 491.976 1536.52 444.663 1535.85 387.804C1534.88 312.402 1492.09 232.592 1398 167.249C1321.69 114.263 1248.14 221.554 1179.4 312.104C1139.36 364.506 1107.49 413.959 1082.68 416.173C1064.89 417.76 1039.05 394.244 1007.71 362.195C937.752 290.65 843.978 170.241 770.793 183.571C601.595 214.385 493.603 169.341 391.696 207.701C351.775 222.728 281.095 292.03 192.396 330.476C110.259 366.313 26.4369 375.349 -31.3208 315.528C-42.2629 304.193 -44.6913 276.498 -45.8055 245.204C-48.2815 175.452 -44.7198 88.3202 -126.961 124.078C-298.342 198.315 -293.131 99.5851 -338.674 118.906C-338.676 118.908 -338.68 118.906 -338.68 118.903V118.903Z" stroke="url(#paint32_radial_836_35704)" stroke-opacity="0.4" stroke-width="2"/>
<path d="M-322.247 117.483C-322.25 117.481 -322.255 117.481 -322.258 117.482C-375.798 138.623 -201.709 202.832 -209.784 241.501C-215.879 270.673 -412.17 275.075 -401.323 291.556C-398.19 296.329 -392.79 300.319 -385.419 303.688C-320.071 333.553 -114.42 314.373 -147.265 373.841C-270.865 597.656 53.3873 360.772 73.3287 489.908C79.1855 527.843 187.53 582.3 78.3379 628.931C-114.353 711.223 -563.959 781.534 -472.032 781.133C-304.473 780.409 244.402 710.852 423.903 693.21C709.788 665.115 994.681 1019.68 1131.2 988.078C1254.97 959.435 769.193 884.32 1026.62 731.169C1110.41 681.321 1494.16 558.097 1499.07 518.909C1502.23 493.782 1520.17 445.855 1519.74 389.069C1519.11 313.965 1485.26 231.564 1395.05 168.921C1321.46 117.82 1245.2 231.503 1177.31 324.595C1137.84 378.475 1105.5 427.247 1081.61 428.256C1063.98 428.998 1038.41 404.375 1007.7 371.098C939.19 296.852 847.635 175.16 776.525 189.78C608.1 224.4 501.25 178.846 399.058 217.316C361.003 231.637 285.551 298.5 197.006 337.366C114.602 373.689 30.208 385.578 -24.8451 325.282C-35.0158 314.141 -35.9586 286.003 -35.692 253.986C-34.7968 182.598 -27.8925 92.273 -109.591 127.69C-282.22 202.341 -274.885 98.8002 -322.237 117.484C-322.24 117.485 -322.244 117.485 -322.247 117.483V117.483Z" stroke="url(#paint33_radial_836_35704)" stroke-opacity="0.4" stroke-width="2"/>
<path d="M-305.83 116.057C-305.827 116.06 -305.829 116.065 -305.833 116.066C-361.537 136.533 -185.053 202.4 -196.09 241.768C-204.261 271.475 -408.075 275.732 -398.047 291.659C-395.028 296.463 -389.581 300.453 -382.134 303.767C-316.643 333.139 -104.078 311.934 -136.332 371.129C-260.466 598.933 73.5478 353.505 93.5463 483.03C99.3745 520.77 210.205 575.739 97.0032 622.175C-102.563 704.029 -569.063 773.161 -479.107 772.771C-314.186 772.054 247.745 707.063 424.418 689.695C705.797 662.038 986.206 1011.02 1120.58 979.917C1244.52 951.232 745.376 876.876 1012.07 726.499C1097.07 678.573 1490.81 556.832 1490.42 519.353C1490.17 495.57 1503.8 447.053 1503.61 390.333C1503.32 315.528 1478.42 230.536 1392.1 170.593C1321.22 121.378 1242.23 241.452 1175.2 337.086C1136.32 392.438 1103.56 440.516 1080.51 440.34C1063.09 440.212 1037.69 414.525 1007.67 380.001C940.485 303.098 851.358 180.092 782.239 195.989C614.747 234.514 508.878 188.351 406.4 226.924C370.222 240.546 289.999 304.971 201.596 344.25C118.926 381.066 33.8649 395.819 -18.398 335.031C-27.8068 324.09 -27.3592 295.502 -25.607 262.755C-21.5597 189.737 -11.0938 96.2076 -92.2498 131.29C-266.123 206.36 -256.658 98.0067 -305.827 116.048C-305.83 116.049 -305.832 116.054 -305.83 116.057V116.057Z" stroke="url(#paint34_radial_836_35704)" stroke-opacity="0.4" stroke-width="2"/>
<path d="M-74.8797 134.921C-250 210.407 -238.392 97.2171 -289.397 114.64C-347.288 134.416 -168.606 201.942 -182.386 242.024C-192.785 272.254 -403.98 276.371 -394.761 291.75C-366.468 338.953 -90.088 302.757 -125.381 368.411C-250 600.21 93.7272 346.226 113.783 476.152C119.583 513.698 232.898 569.189 115.688 615.413C-90.7737 696.841 -574.139 764.787 -486.174 764.404C-323.9 763.698 251.097 703.263 424.941 686.18C701.817 658.967 977.73 1002.36 1109.96 971.762C1234.07 943.034 721.501 869.238 997.529 721.841C1083.78 675.781 1487.53 555.549 1481.77 519.803C1473.38 467.803 1534.25 273.032 1389.15 172.278C1281.52 97.5454 1140.16 456.072 1079.43 452.441C1023.92 449.121 885.299 177.356 787.972 202.222C621.603 244.73 516.516 197.874 413.761 236.557C347.204 261.612 89.9751 471.293 -11.9223 344.803C-39.8917 310.085 41.8929 84.5924 -74.8797 134.921Z" stroke="url(#paint35_radial_836_35704)" stroke-opacity="0.4" stroke-width="2"/>
<defs>
<radialGradient id="paint0_radial_836_35704" cx="0" cy="0" r="1" gradientUnits="userSpaceOnUse" gradientTransform="translate(-835.915 -674.59) rotate(39.4763) scale(3512.35 4401.61)">
<stop stop-color="#18F5D7" stop-opacity="0.1"/>
<stop offset="0.466672" stop-color="#CDAEFB" stop-opacity="0.3"/>
<stop offset="0.989583" stop-color="#70E3F6" stop-opacity="0.1"/>
</radialGradient>
<radialGradient id="paint1_radial_836_35704" cx="0" cy="0" r="1" gradientUnits="userSpaceOnUse" gradientTransform="translate(-835.915 -674.59) rotate(39.4763) scale(3512.35 4401.61)">
<stop stop-color="#18F5D7" stop-opacity="0.1"/>
<stop offset="0.466672" stop-color="#CDAEFB" stop-opacity="0.3"/>
<stop offset="0.989583" stop-color="#70E3F6" stop-opacity="0.1"/>
</radialGradient>
<radialGradient id="paint2_radial_836_35704" cx="0" cy="0" r="1" gradientUnits="userSpaceOnUse" gradientTransform="translate(-835.915 -674.59) rotate(39.4763) scale(3512.35 4401.61)">
<stop stop-color="#18F5D7" stop-opacity="0.1"/>
<stop offset="0.466672" stop-color="#CDAEFB" stop-opacity="0.3"/>
<stop offset="0.989583" stop-color="#70E3F6" stop-opacity="0.1"/>
</radialGradient>
<radialGradient id="paint3_radial_836_35704" cx="0" cy="0" r="1" gradientUnits="userSpaceOnUse" gradientTransform="translate(-835.915 -674.59) rotate(39.4763) scale(3512.35 4401.61)">
<stop stop-color="#18F5D7" stop-opacity="0.1"/>
<stop offset="0.466672" stop-color="#CDAEFB" stop-opacity="0.3"/>
<stop offset="0.989583" stop-color="#70E3F6" stop-opacity="0.1"/>
</radialGradient>
<radialGradient id="paint4_radial_836_35704" cx="0" cy="0" r="1" gradientUnits="userSpaceOnUse" gradientTransform="translate(-835.915 -674.59) rotate(39.4763) scale(3512.35 4401.61)">
<stop stop-color="#18F5D7" stop-opacity="0.1"/>
<stop offset="0.466672" stop-color="#CDAEFB" stop-opacity="0.3"/>
<stop offset="0.989583" stop-color="#70E3F6" stop-opacity="0.1"/>
</radialGradient>
<radialGradient id="paint5_radial_836_35704" cx="0" cy="0" r="1" gradientUnits="userSpaceOnUse" gradientTransform="translate(-835.915 -674.59) rotate(39.4763) scale(3512.35 4401.61)">
<stop stop-color="#18F5D7" stop-opacity="0.1"/>
<stop offset="0.466672" stop-color="#CDAEFB" stop-opacity="0.3"/>
<stop offset="0.989583" stop-color="#70E3F6" stop-opacity="0.1"/>
</radialGradient>
<radialGradient id="paint6_radial_836_35704" cx="0" cy="0" r="1" gradientUnits="userSpaceOnUse" gradientTransform="translate(-835.915 -674.59) rotate(39.4763) scale(3512.35 4401.61)">
<stop stop-color="#18F5D7" stop-opacity="0.1"/>
<stop offset="0.466672" stop-color="#CDAEFB" stop-opacity="0.3"/>
<stop offset="0.989583" stop-color="#70E3F6" stop-opacity="0.1"/>
</radialGradient>
<radialGradient id="paint7_radial_836_35704" cx="0" cy="0" r="1" gradientUnits="userSpaceOnUse" gradientTransform="translate(-835.915 -674.59) rotate(39.4763) scale(3512.35 4401.61)">
<stop stop-color="#18F5D7" stop-opacity="0.1"/>
<stop offset="0.466672" stop-color="#CDAEFB" stop-opacity="0.3"/>
<stop offset="0.989583" stop-color="#70E3F6" stop-opacity="0.1"/>
</radialGradient>
<radialGradient id="paint8_radial_836_35704" cx="0" cy="0" r="1" gradientUnits="userSpaceOnUse" gradientTransform="translate(-835.915 -674.59) rotate(39.4763) scale(3512.35 4401.61)">
<stop stop-color="#18F5D7" stop-opacity="0.1"/>
<stop offset="0.466672" stop-color="#CDAEFB" stop-opacity="0.3"/>
<stop offset="0.989583" stop-color="#70E3F6" stop-opacity="0.1"/>
</radialGradient>
<radialGradient id="paint9_radial_836_35704" cx="0" cy="0" r="1" gradientUnits="userSpaceOnUse" gradientTransform="translate(-835.915 -674.59) rotate(39.4763) scale(3512.35 4401.61)">
<stop stop-color="#18F5D7" stop-opacity="0.1"/>
<stop offset="0.466672" stop-color="#CDAEFB" stop-opacity="0.3"/>
<stop offset="0.989583" stop-color="#70E3F6" stop-opacity="0.1"/>
</radialGradient>
<radialGradient id="paint10_radial_836_35704" cx="0" cy="0" r="1" gradientUnits="userSpaceOnUse" gradientTransform="translate(-835.915 -674.59) rotate(39.4763) scale(3512.35 4401.61)">
<stop stop-color="#18F5D7" stop-opacity="0.1"/>
<stop offset="0.466672" stop-color="#CDAEFB" stop-opacity="0.3"/>
<stop offset="0.989583" stop-color="#70E3F6" stop-opacity="0.1"/>
</radialGradient>
<radialGradient id="paint11_radial_836_35704" cx="0" cy="0" r="1" gradientUnits="userSpaceOnUse" gradientTransform="translate(-835.915 -674.59) rotate(39.4763) scale(3512.35 4401.61)">
<stop stop-color="#18F5D7" stop-opacity="0.1"/>
<stop offset="0.466672" stop-color="#CDAEFB" stop-opacity="0.3"/>
<stop offset="0.989583" stop-color="#70E3F6" stop-opacity="0.1"/>
</radialGradient>
<radialGradient id="paint12_radial_836_35704" cx="0" cy="0" r="1" gradientUnits="userSpaceOnUse" gradientTransform="translate(-835.915 -674.59) rotate(39.4763) scale(3512.35 4401.61)">
<stop stop-color="#18F5D7" stop-opacity="0.1"/>
<stop offset="0.466672" stop-color="#CDAEFB" stop-opacity="0.3"/>
<stop offset="0.989583" stop-color="#70E3F6" stop-opacity="0.1"/>
</radialGradient>
<radialGradient id="paint13_radial_836_35704" cx="0" cy="0" r="1" gradientUnits="userSpaceOnUse" gradientTransform="translate(-835.915 -674.59) rotate(39.4763) scale(3512.35 4401.61)">
<stop stop-color="#18F5D7" stop-opacity="0.1"/>
<stop offset="0.466672" stop-color="#CDAEFB" stop-opacity="0.3"/>
<stop offset="0.989583" stop-color="#70E3F6" stop-opacity="0.1"/>
</radialGradient>
<radialGradient id="paint14_radial_836_35704" cx="0" cy="0" r="1" gradientUnits="userSpaceOnUse" gradientTransform="translate(-835.915 -674.59) rotate(39.4763) scale(3512.35 4401.61)">
<stop stop-color="#18F5D7" stop-opacity="0.1"/>
<stop offset="0.466672" stop-color="#CDAEFB" stop-opacity="0.3"/>
<stop offset="0.989583" stop-color="#70E3F6" stop-opacity="0.1"/>
</radialGradient>
<radialGradient id="paint15_radial_836_35704" cx="0" cy="0" r="1" gradientUnits="userSpaceOnUse" gradientTransform="translate(-835.915 -674.59) rotate(39.4763) scale(3512.35 4401.61)">
<stop stop-color="#18F5D7" stop-opacity="0.1"/>
<stop offset="0.466672" stop-color="#CDAEFB" stop-opacity="0.3"/>
<stop offset="0.989583" stop-color="#70E3F6" stop-opacity="0.1"/>
</radialGradient>
<radialGradient id="paint16_radial_836_35704" cx="0" cy="0" r="1" gradientUnits="userSpaceOnUse" gradientTransform="translate(-835.915 -674.59) rotate(39.4763) scale(3512.35 4401.61)">
<stop stop-color="#18F5D7" stop-opacity="0.1"/>
<stop offset="0.466672" stop-color="#CDAEFB" stop-opacity="0.3"/>
<stop offset="0.989583" stop-color="#70E3F6" stop-opacity="0.1"/>
</radialGradient>
<radialGradient id="paint17_radial_836_35704" cx="0" cy="0" r="1" gradientUnits="userSpaceOnUse" gradientTransform="translate(-835.915 -674.59) rotate(39.4763) scale(3512.35 4401.61)">
<stop stop-color="#18F5D7" stop-opacity="0.1"/>
<stop offset="0.466672" stop-color="#CDAEFB" stop-opacity="0.3"/>
<stop offset="0.989583" stop-color="#70E3F6" stop-opacity="0.1"/>
</radialGradient>
<radialGradient id="paint18_radial_836_35704" cx="0" cy="0" r="1" gradientUnits="userSpaceOnUse" gradientTransform="translate(-835.915 -674.59) rotate(39.4763) scale(3512.35 4401.61)">
<stop stop-color="#18F5D7" stop-opacity="0.1"/>
<stop offset="0.466672" stop-color="#CDAEFB" stop-opacity="0.3"/>
<stop offset="0.989583" stop-color="#70E3F6" stop-opacity="0.1"/>
</radialGradient>
<radialGradient id="paint19_radial_836_35704" cx="0" cy="0" r="1" gradientUnits="userSpaceOnUse" gradientTransform="translate(-835.915 -674.59) rotate(39.4763) scale(3512.35 4401.61)">
<stop stop-color="#18F5D7" stop-opacity="0.1"/>
<stop offset="0.466672" stop-color="#CDAEFB" stop-opacity="0.3"/>
<stop offset="0.989583" stop-color="#70E3F6" stop-opacity="0.1"/>
</radialGradient>
<radialGradient id="paint20_radial_836_35704" cx="0" cy="0" r="1" gradientUnits="userSpaceOnUse" gradientTransform="translate(-835.915 -674.59) rotate(39.4763) scale(3512.35 4401.61)">
<stop stop-color="#18F5D7" stop-opacity="0.1"/>
<stop offset="0.466672" stop-color="#CDAEFB" stop-opacity="0.3"/>
<stop offset="0.989583" stop-color="#70E3F6" stop-opacity="0.1"/>
</radialGradient>
<radialGradient id="paint21_radial_836_35704" cx="0" cy="0" r="1" gradientUnits="userSpaceOnUse" gradientTransform="translate(-835.915 -674.59) rotate(39.4763) scale(3512.35 4401.61)">
<stop stop-color="#18F5D7" stop-opacity="0.1"/>
<stop offset="0.466672" stop-color="#CDAEFB" stop-opacity="0.3"/>
<stop offset="0.989583" stop-color="#70E3F6" stop-opacity="0.1"/>
</radialGradient>
<radialGradient id="paint22_radial_836_35704" cx="0" cy="0" r="1" gradientUnits="userSpaceOnUse" gradientTransform="translate(-835.915 -674.59) rotate(39.4763) scale(3512.35 4401.61)">
<stop stop-color="#18F5D7" stop-opacity="0.1"/>
<stop offset="0.466672" stop-color="#CDAEFB" stop-opacity="0.3"/>
<stop offset="0.989583" stop-color="#70E3F6" stop-opacity="0.1"/>
</radialGradient>
<radialGradient id="paint23_radial_836_35704" cx="0" cy="0" r="1" gradientUnits="userSpaceOnUse" gradientTransform="translate(-835.915 -674.59) rotate(39.4763) scale(3512.35 4401.61)">
<stop stop-color="#18F5D7" stop-opacity="0.1"/>
<stop offset="0.466672" stop-color="#CDAEFB" stop-opacity="0.3"/>
<stop offset="0.989583" stop-color="#70E3F6" stop-opacity="0.1"/>
</radialGradient>
<radialGradient id="paint24_radial_836_35704" cx="0" cy="0" r="1" gradientUnits="userSpaceOnUse" gradientTransform="translate(-835.915 -674.59) rotate(39.4763) scale(3512.35 4401.61)">
<stop stop-color="#18F5D7" stop-opacity="0.1"/>
<stop offset="0.466672" stop-color="#CDAEFB" stop-opacity="0.3"/>
<stop offset="0.989583" stop-color="#70E3F6" stop-opacity="0.1"/>
</radialGradient>
<radialGradient id="paint25_radial_836_35704" cx="0" cy="0" r="1" gradientUnits="userSpaceOnUse" gradientTransform="translate(-835.915 -674.59) rotate(39.4763) scale(3512.35 4401.61)">
<stop stop-color="#18F5D7" stop-opacity="0.1"/>
<stop offset="0.466672" stop-color="#CDAEFB" stop-opacity="0.3"/>
<stop offset="0.989583" stop-color="#70E3F6" stop-opacity="0.1"/>
</radialGradient>
<radialGradient id="paint26_radial_836_35704" cx="0" cy="0" r="1" gradientUnits="userSpaceOnUse" gradientTransform="translate(-835.915 -674.59) rotate(39.4763) scale(3512.35 4401.61)">
<stop stop-color="#18F5D7" stop-opacity="0.1"/>
<stop offset="0.466672" stop-color="#CDAEFB" stop-opacity="0.3"/>
<stop offset="0.989583" stop-color="#70E3F6" stop-opacity="0.1"/>
</radialGradient>
<radialGradient id="paint27_radial_836_35704" cx="0" cy="0" r="1" gradientUnits="userSpaceOnUse" gradientTransform="translate(-835.915 -674.59) rotate(39.4763) scale(3512.35 4401.61)">
<stop stop-color="#18F5D7" stop-opacity="0.1"/>
<stop offset="0.466672" stop-color="#CDAEFB" stop-opacity="0.3"/>
<stop offset="0.989583" stop-color="#70E3F6" stop-opacity="0.1"/>
</radialGradient>
<radialGradient id="paint28_radial_836_35704" cx="0" cy="0" r="1" gradientUnits="userSpaceOnUse" gradientTransform="translate(-835.915 -674.59) rotate(39.4763) scale(3512.35 4401.61)">
<stop stop-color="#18F5D7" stop-opacity="0.1"/>
<stop offset="0.466672" stop-color="#CDAEFB" stop-opacity="0.3"/>
<stop offset="0.989583" stop-color="#70E3F6" stop-opacity="0.1"/>
</radialGradient>
<radialGradient id="paint29_radial_836_35704" cx="0" cy="0" r="1" gradientUnits="userSpaceOnUse" gradientTransform="translate(-835.915 -674.59) rotate(39.4763) scale(3512.35 4401.61)">
<stop stop-color="#18F5D7" stop-opacity="0.1"/>
<stop offset="0.466672" stop-color="#CDAEFB" stop-opacity="0.3"/>
<stop offset="0.989583" stop-color="#70E3F6" stop-opacity="0.1"/>
</radialGradient>
<radialGradient id="paint30_radial_836_35704" cx="0" cy="0" r="1" gradientUnits="userSpaceOnUse" gradientTransform="translate(-835.915 -674.59) rotate(39.4763) scale(3512.35 4401.61)">
<stop stop-color="#18F5D7" stop-opacity="0.1"/>
<stop offset="0.466672" stop-color="#CDAEFB" stop-opacity="0.3"/>
<stop offset="0.989583" stop-color="#70E3F6" stop-opacity="0.1"/>
</radialGradient>
<radialGradient id="paint31_radial_836_35704" cx="0" cy="0" r="1" gradientUnits="userSpaceOnUse" gradientTransform="translate(-835.915 -674.59) rotate(39.4763) scale(3512.35 4401.61)">
<stop stop-color="#18F5D7" stop-opacity="0.1"/>
<stop offset="0.466672" stop-color="#CDAEFB" stop-opacity="0.3"/>
<stop offset="0.989583" stop-color="#70E3F6" stop-opacity="0.1"/>
</radialGradient>
<radialGradient id="paint32_radial_836_35704" cx="0" cy="0" r="1" gradientUnits="userSpaceOnUse" gradientTransform="translate(-835.915 -674.59) rotate(39.4763) scale(3512.35 4401.61)">
<stop stop-color="#18F5D7" stop-opacity="0.1"/>
<stop offset="0.466672" stop-color="#CDAEFB" stop-opacity="0.3"/>
<stop offset="0.989583" stop-color="#70E3F6" stop-opacity="0.1"/>
</radialGradient>
<radialGradient id="paint33_radial_836_35704" cx="0" cy="0" r="1" gradientUnits="userSpaceOnUse" gradientTransform="translate(-835.915 -674.59) rotate(39.4763) scale(3512.35 4401.61)">
<stop stop-color="#18F5D7" stop-opacity="0.1"/>
<stop offset="0.466672" stop-color="#CDAEFB" stop-opacity="0.3"/>
<stop offset="0.989583" stop-color="#70E3F6" stop-opacity="0.1"/>
</radialGradient>
<radialGradient id="paint34_radial_836_35704" cx="0" cy="0" r="1" gradientUnits="userSpaceOnUse" gradientTransform="translate(-835.915 -674.59) rotate(39.4763) scale(3512.35 4401.61)">
<stop stop-color="#18F5D7" stop-opacity="0.1"/>
<stop offset="0.466672" stop-color="#CDAEFB" stop-opacity="0.3"/>
<stop offset="0.989583" stop-color="#70E3F6" stop-opacity="0.1"/>
</radialGradient>
<radialGradient id="paint35_radial_836_35704" cx="0" cy="0" r="1" gradientUnits="userSpaceOnUse" gradientTransform="translate(-835.915 -674.59) rotate(39.4763) scale(3512.35 4401.61)">
<stop stop-color="#18F5D7" stop-opacity="0.1"/>
<stop offset="0.466672" stop-color="#CDAEFB" stop-opacity="0.3"/>
<stop offset="0.989583" stop-color="#70E3F6" stop-opacity="0.1"/>
</radialGradient>
</defs>
</svg>
