<svg width="22" height="20" viewBox="0 0 22 20" fill="none" xmlns="http://www.w3.org/2000/svg">
<path d="M10.799 9.94708C10.7941 9.94708 10.7885 9.94687 10.7834 9.94667C10.778 9.94687 10.7724 9.94708 10.7675 9.94708C9.43557 9.94708 8.26192 9.63292 7.56834 10.2262C7.15268 10.5823 6.9776 11.0112 6.9776 11.4731C6.9776 13.4025 8.63667 13.6394 10.7673 13.6394H10.799C12.9297 13.6394 14.5887 13.4023 14.5887 11.4731C14.5887 11.011 14.4137 10.5823 13.998 10.2262C13.3044 9.63292 12.131 9.94708 10.799 9.94708ZM8.98749 12.5835C8.58211 12.5835 8.25343 12.1594 8.25343 11.6362C8.25343 11.1131 8.58211 10.6892 8.98749 10.6892C9.39286 10.6892 9.72199 11.1131 9.72199 11.6362C9.72199 12.1594 9.39286 12.5835 8.98749 12.5835ZM12.5791 12.5835C12.1735 12.5835 11.8446 12.1594 11.8446 11.6362C11.8446 11.1131 12.1735 10.6892 12.5791 10.6892C12.9842 10.6892 13.3131 11.1131 13.3131 11.6362C13.3131 12.1594 12.9844 12.5835 12.5791 12.5835ZM10.7834 0C4.8557 0 0.0509033 4.47708 0.0509033 10C0.0509033 15.5229 4.8557 20 10.7834 20C16.7106 20 21.5159 15.5229 21.5159 10C21.5159 4.47708 16.7106 0 10.7834 0ZM11.7623 14.1044C11.57 14.1044 11.1876 14.1048 10.7834 14.1052C10.3789 14.1048 9.99634 14.1044 9.80427 14.1044C8.95395 14.1044 5.58663 14.0437 5.58663 10.2617C5.58663 9.39146 5.90682 8.75479 6.43069 8.22458C6.34707 8.03229 6.34282 6.94021 6.78889 5.89479C6.78889 5.89479 7.81205 5.99937 9.36022 6.98917C9.68465 6.90562 10.234 6.86396 10.7834 6.86396C11.3323 6.86396 11.8817 6.90542 12.2066 6.98917C13.7545 5.99937 14.7774 5.89479 14.7774 5.89479C15.2235 6.94021 15.2195 8.03229 15.1359 8.22458C15.66 8.75479 15.9801 9.39167 15.9801 10.2617C15.9801 14.0437 12.6126 14.1044 11.7623 14.1044Z" fill="#BDBDBD"/>
</svg>
