<svg width="22" height="20" viewBox="0 0 22 20" fill="none" xmlns="http://www.w3.org/2000/svg">
<path fill-rule="evenodd" clip-rule="evenodd" d="M10.8344 0C4.90778 0 0.101868 4.47754 0.101868 10.0013C0.101868 14.4202 3.17708 18.1692 7.44146 19.4917C7.97784 19.5842 8.17476 19.2747 8.17476 19.0105C8.17476 18.772 8.16481 17.9842 8.16018 17.1485C5.17437 17.7535 4.54433 15.9684 4.54433 15.9684C4.05611 14.8124 3.35267 14.505 3.35267 14.505C2.37891 13.8843 3.42607 13.897 3.42607 13.897C4.50381 13.9674 5.07129 14.9277 5.07129 14.9277C6.02853 16.4567 7.58204 16.0146 8.19449 15.7591C8.29081 15.1128 8.56896 14.6713 8.87589 14.4217C6.49204 14.1688 3.98609 13.3112 3.98609 9.47893C3.98609 8.387 4.40535 7.4948 5.09191 6.79439C4.98047 6.54232 4.61311 5.52525 5.19588 4.14762C5.19588 4.14762 6.09713 3.87882 8.1481 5.17281C9.00421 4.95121 9.92235 4.84008 10.8344 4.83627C11.7465 4.84008 12.6654 4.95121 13.5231 5.17281C15.5716 3.87882 16.4716 4.14762 16.4716 4.14762C17.0558 5.52525 16.6882 6.54232 16.5768 6.79439C17.265 7.4948 17.6814 8.387 17.6814 9.47893C17.6814 13.3203 15.1706 14.1661 12.7807 14.4137C13.1657 14.7241 13.5087 15.3328 13.5087 16.2659C13.5087 17.6039 13.4963 18.6809 13.4963 19.0105C13.4963 19.2767 13.6894 19.5885 14.2335 19.4903C18.4955 18.1664 21.5668 14.4187 21.5668 10.0013C21.5668 4.47754 16.7616 0 10.8344 0" fill="#BDBDBD"/>
<path fill-rule="evenodd" clip-rule="evenodd" d="M4.16638 14.3595C4.14278 14.4094 4.05902 14.4241 3.98272 14.39C3.905 14.3573 3.86134 14.2896 3.88654 14.2398C3.90961 14.1886 3.99354 14.1745 4.07109 14.2085C4.14899 14.2412 4.19335 14.3097 4.16638 14.3595" fill="#BDBDBD"/>
<path fill-rule="evenodd" clip-rule="evenodd" d="M4.6011 14.8115C4.55 14.8557 4.45009 14.8352 4.38231 14.7653C4.31221 14.6956 4.29908 14.6023 4.3509 14.5574C4.4036 14.5132 4.50049 14.5339 4.57076 14.6036C4.64085 14.6742 4.65452 14.7668 4.6011 14.8115" fill="#BDBDBD"/>
<path fill-rule="evenodd" clip-rule="evenodd" d="M5.02429 15.3875C4.95863 15.4301 4.85127 15.3902 4.78491 15.3012C4.71925 15.2123 4.71925 15.1056 4.78633 15.0629C4.85287 15.0202 4.95863 15.0586 5.02589 15.1469C5.09137 15.2371 5.09137 15.344 5.02429 15.3875" fill="#BDBDBD"/>
<path fill-rule="evenodd" clip-rule="evenodd" d="M5.6039 15.9439C5.54516 16.0043 5.42006 15.9881 5.32849 15.9056C5.2348 15.8249 5.20871 15.7105 5.26763 15.6501C5.32707 15.5894 5.45289 15.6065 5.54516 15.6883C5.63815 15.7688 5.66654 15.8841 5.6039 15.9439" fill="#BDBDBD"/>
<path fill-rule="evenodd" clip-rule="evenodd" d="M6.40354 16.2673C6.37763 16.3456 6.25714 16.3812 6.13576 16.3479C6.01456 16.3136 5.93524 16.2219 5.95973 16.1427C5.98493 16.0639 6.10595 16.0268 6.22822 16.0624C6.34924 16.0965 6.42874 16.1876 6.40354 16.2673" fill="#BDBDBD"/>
<path fill-rule="evenodd" clip-rule="evenodd" d="M7.28187 16.3271C7.28488 16.4096 7.18196 16.478 7.05455 16.4793C6.92643 16.4821 6.8228 16.4154 6.82138 16.3342C6.82138 16.2509 6.922 16.1832 7.05012 16.1812C7.17753 16.1789 7.28187 16.2451 7.28187 16.3271" fill="#BDBDBD"/>
<path fill-rule="evenodd" clip-rule="evenodd" d="M8.09922 16.1974C8.11448 16.2779 8.02593 16.3605 7.89941 16.3824C7.77502 16.4037 7.65985 16.354 7.64406 16.2742C7.62862 16.1917 7.71876 16.1091 7.84298 16.0877C7.96968 16.0672 8.08307 16.1155 8.09922 16.1974" fill="#BDBDBD"/>
</svg>
