<svg width="22" height="20" viewBox="0 0 22 20" fill="none" xmlns="http://www.w3.org/2000/svg">
<path fill-rule="evenodd" clip-rule="evenodd" d="M0.152832 10C0.152832 4.47715 4.95793 0 10.8853 0C16.8127 0 21.6178 4.47715 21.6178 10C21.6178 15.5228 16.8127 20 10.8853 20C4.95793 20 0.152832 15.5228 0.152832 10ZM9.15939 7.30701L5.7232 5.72512C5.6938 5.71157 5.66578 5.70518 5.64046 5.70518C5.60438 5.70518 5.57388 5.71824 5.55241 5.74208C5.5314 5.76539 5.51908 5.7991 5.51908 5.84126V12.6323C5.51908 12.7479 5.61094 12.8847 5.7232 12.9364L8.89864 14.3982C8.94276 14.4186 8.98479 14.4282 9.02277 14.4282C9.12977 14.4282 9.20481 14.352 9.20481 14.224V7.3747C9.20481 7.34605 9.18723 7.31982 9.15939 7.30701ZM16.2698 14.396L13.1841 12.9755L16.5759 7.90078V14.2217C16.5759 14.3951 16.4382 14.4735 16.2698 14.396ZM9.53059 7.81533V11.2956L12.8906 12.8424L9.53059 7.81533ZM12.9926 5.67815L16.4952 7.29058C16.5388 7.31066 16.5543 7.36083 16.5288 7.3991L13.0818 12.5563L10.6719 8.95065L12.8308 5.72063C12.8537 5.68633 12.8961 5.66663 12.9387 5.66663C12.9394 5.66663 12.94 5.66673 12.9406 5.66682C12.9411 5.66689 12.9416 5.66697 12.9421 5.66698C12.9594 5.6674 12.9767 5.67081 12.9926 5.67815Z" fill="#BDBDBD"/>
</svg>
