<svg width="22" height="20" viewBox="0 0 22 20" fill="none" xmlns="http://www.w3.org/2000/svg">
<path d="M10.7325 0C4.80547 0 0 4.4775 0 10C0 15.5225 4.80547 20 10.7325 20C16.6595 20 21.465 15.5225 21.465 10C21.465 4.47627 16.6595 0 10.7325 0ZM16.0719 7.75498L16.0799 8.07374C16.0799 11.3287 13.4223 15.0787 8.56181 15.0787C7.07001 15.0787 5.68147 14.6713 4.51165 13.9725C4.71827 13.995 4.92886 14.0075 5.14219 14.0075C6.38046 14.0075 7.51944 13.6137 8.42364 12.9537C7.26723 12.9337 6.29189 12.2212 5.95517 11.2437C6.11748 11.2725 6.28117 11.2862 6.45288 11.2862C6.69437 11.2862 6.92777 11.2575 7.14914 11.2013C5.94039 10.9737 5.02948 9.98002 5.02948 8.78752V8.75627C5.38632 8.94127 5.79281 9.05126 6.22614 9.06503C5.51779 8.62378 5.05093 7.87003 5.05093 7.01627C5.05093 6.56503 5.18107 6.14254 5.40777 5.7788C6.71043 7.26879 8.65837 8.24878 10.8545 8.35129C10.8089 8.17127 10.7861 7.98253 10.7861 7.79005C10.7861 6.43132 11.9693 5.32879 13.429 5.32879C14.1883 5.32879 14.8752 5.62752 15.3581 6.10627C15.9591 5.995 16.5253 5.79002 17.0364 5.50877C16.8392 6.08378 16.4207 6.56627 15.8746 6.87125C16.4072 6.81249 16.9184 6.67873 17.3919 6.48374C17.0378 6.97623 16.5884 7.40999 16.0719 7.75498Z" fill="#BDBDBD"/>
</svg>
